<svg width="22" height="22" viewBox="0 0 22 22" fill="none" xmlns="http://www.w3.org/2000/svg">
<path d="M10.581 8.00469C9.83463 8.00469 9.13571 8.28991 8.60652 8.81118C8.07984 9.33245 7.78779 10.0209 7.78779 10.7561C7.78779 11.4913 8.07984 12.1798 8.60652 12.701C9.13571 13.2198 9.83463 13.5075 10.581 13.5075C11.3273 13.5075 12.0263 13.2198 12.5554 12.701C13.0821 12.1798 13.3742 11.4913 13.3742 10.7561C13.3742 10.0209 13.0821 9.33245 12.5554 8.81118C12.297 8.55462 11.9893 8.35121 11.6504 8.21276C11.3114 8.07431 10.9479 8.00358 10.581 8.00469V8.00469ZM20.8726 13.7952L19.2401 12.4207C19.3175 11.9536 19.3575 11.4765 19.3575 11.002C19.3575 10.5274 19.3175 10.048 19.2401 9.58325L20.8726 8.20877C20.996 8.10478 21.0842 7.96627 21.1257 7.81167C21.1672 7.65707 21.1599 7.49369 21.1048 7.34327L21.0823 7.27934C20.633 6.04179 19.9599 4.89466 19.0954 3.89354L19.0504 3.84191C18.9455 3.72032 18.8056 3.63292 18.6492 3.59122C18.4927 3.54953 18.3272 3.55549 18.1743 3.60832L16.1474 4.31892C15.3986 3.71405 14.5648 3.23704 13.6612 2.9051L13.2693 0.817558C13.2398 0.660297 13.1623 0.515621 13.0473 0.402749C12.9323 0.289878 12.7851 0.214155 12.6253 0.185641L12.5579 0.173347C11.2599 -0.0577823 9.89204 -0.0577823 8.59404 0.173347L8.52665 0.185641C8.36689 0.214155 8.21971 0.289878 8.10468 0.402749C7.98965 0.515621 7.91221 0.660297 7.88264 0.817558L7.48825 2.91493C6.5932 3.24952 5.7594 3.72537 5.01955 4.32384L2.97769 3.60832C2.82484 3.55507 2.65916 3.54889 2.50266 3.59061C2.34616 3.63234 2.20626 3.71998 2.10154 3.84191L2.05661 3.89354C1.19367 4.89573 0.520654 6.04257 0.0696705 7.27934L0.047205 7.34327C-0.065122 7.65062 0.0272358 7.99485 0.279348 8.20877L1.9318 9.59801C1.85442 10.0603 1.81698 10.5324 1.81698 10.9995C1.81698 11.4716 1.85442 11.9437 1.9318 12.4011L0.28434 13.7903C0.161019 13.8943 0.0727567 14.0328 0.0312894 14.1874C-0.0101779 14.342 -0.00288546 14.5054 0.0521973 14.6558L0.0746627 14.7197C0.526467 15.9565 1.19294 17.0999 2.0616 18.1055L2.10653 18.1572C2.21151 18.2787 2.35142 18.3661 2.50782 18.4078C2.66423 18.4495 2.82979 18.4436 2.98268 18.3907L5.02454 17.6752C5.76839 18.2776 6.59712 18.7547 7.49324 19.0841L7.88763 21.1815C7.9172 21.3388 7.99464 21.4834 8.10967 21.5963C8.2247 21.7092 8.37188 21.7849 8.53164 21.8134L8.59904 21.8257C9.90981 22.0581 11.2522 22.0581 12.5629 21.8257L12.6303 21.8134C12.7901 21.7849 12.9373 21.7092 13.0523 21.5963C13.1673 21.4834 13.2448 21.3388 13.2743 21.1815L13.6662 19.094C14.5698 18.7596 15.4036 18.285 16.1524 17.6801L18.1793 18.3907C18.3321 18.444 18.4978 18.4502 18.6543 18.4085C18.8108 18.3667 18.9507 18.2791 19.0554 18.1572L19.1004 18.1055C19.969 17.095 20.6355 15.9565 21.0873 14.7197L21.1098 14.6558C21.2171 14.3509 21.1247 14.0091 20.8726 13.7952ZM10.581 15.0787C8.15722 15.0787 6.19274 13.1436 6.19274 10.7561C6.19274 8.3686 8.15722 6.4335 10.581 6.4335C13.0048 6.4335 14.9692 8.3686 14.9692 10.7561C14.9692 13.1436 13.0048 15.0787 10.581 15.0787Z" fill="#4F433C"/>
</svg>
