<svg width="188" height="33" viewBox="0 0 188 33" fill="none" xmlns="http://www.w3.org/2000/svg">
<path d="M60.54 12.98V14.34H58.62V20.05H56.9V14.34H55V12.98H60.54Z" fill="#0FA958"/>
<path d="M63.3808 14.4C63.8074 14.4 64.1741 14.4967 64.4808 14.69C64.7874 14.8833 65.0141 15.1467 65.1608 15.48V14.47H66.8608V20.05H65.1608V19.04C65.0141 19.3733 64.7874 19.6367 64.4808 19.83C64.1741 20.0233 63.8074 20.12 63.3808 20.12C62.9208 20.12 62.5074 20.0067 62.1408 19.78C61.7808 19.5467 61.4941 19.2133 61.2808 18.78C61.0741 18.3467 60.9708 17.84 60.9708 17.26C60.9708 16.6733 61.0741 16.1667 61.2808 15.74C61.4941 15.3067 61.7808 14.9767 62.1408 14.75C62.5074 14.5167 62.9208 14.4 63.3808 14.4ZM63.9308 15.9C63.5641 15.9 63.2674 16.02 63.0408 16.26C62.8208 16.5 62.7108 16.8333 62.7108 17.26C62.7108 17.6867 62.8208 18.02 63.0408 18.26C63.2674 18.5 63.5641 18.62 63.9308 18.62C64.2908 18.62 64.5841 18.4967 64.8108 18.25C65.0441 18.0033 65.1608 17.6733 65.1608 17.26C65.1608 16.84 65.0441 16.51 64.8108 16.27C64.5841 16.0233 64.2908 15.9 63.9308 15.9Z" fill="#0FA958"/>
<path d="M71.5181 14.4C71.9781 14.4 72.3881 14.5167 72.7481 14.75C73.1148 14.9767 73.4015 15.3067 73.6081 15.74C73.8215 16.1667 73.9281 16.6733 73.9281 17.26C73.9281 17.84 73.8215 18.3467 73.6081 18.78C73.4015 19.2133 73.1148 19.5467 72.7481 19.78C72.3881 20.0067 71.9781 20.12 71.5181 20.12C71.0915 20.12 70.7248 20.0233 70.4181 19.83C70.1115 19.6367 69.8881 19.3733 69.7481 19.04V22.71H68.0381V14.47H69.7481V15.48C69.8881 15.1467 70.1115 14.8833 70.4181 14.69C70.7248 14.4967 71.0915 14.4 71.5181 14.4ZM70.9681 15.9C70.6081 15.9 70.3115 16.0233 70.0781 16.27C69.8515 16.51 69.7381 16.84 69.7381 17.26C69.7381 17.6733 69.8515 18.0033 70.0781 18.25C70.3115 18.4967 70.6081 18.62 70.9681 18.62C71.3348 18.62 71.6281 18.5 71.8481 18.26C72.0748 18.02 72.1881 17.6867 72.1881 17.26C72.1881 16.8333 72.0748 16.5 71.8481 16.26C71.6281 16.02 71.3348 15.9 70.9681 15.9Z" fill="#0FA958"/>
<path d="M79.9774 18.58V20.05H79.2074C78.5541 20.05 78.0441 19.89 77.6774 19.57C77.3174 19.2433 77.1374 18.7067 77.1374 17.96V15.91H76.3874V14.47H77.1374V13.1H78.8474V14.47H79.9674V15.91H78.8474V17.99C78.8474 18.21 78.8908 18.3633 78.9774 18.45C79.0708 18.5367 79.2241 18.58 79.4374 18.58H79.9774Z" fill="#0FA958"/>
<path d="M83.5485 14.4C84.1018 14.4 84.5952 14.5167 85.0285 14.75C85.4685 14.9767 85.8118 15.3067 86.0585 15.74C86.3118 16.1733 86.4385 16.68 86.4385 17.26C86.4385 17.84 86.3118 18.3467 86.0585 18.78C85.8118 19.2133 85.4685 19.5467 85.0285 19.78C84.5952 20.0067 84.1018 20.12 83.5485 20.12C82.9952 20.12 82.4985 20.0067 82.0585 19.78C81.6185 19.5467 81.2718 19.2133 81.0185 18.78C80.7718 18.3467 80.6485 17.84 80.6485 17.26C80.6485 16.68 80.7718 16.1733 81.0185 15.74C81.2718 15.3067 81.6185 14.9767 82.0585 14.75C82.4985 14.5167 82.9952 14.4 83.5485 14.4ZM83.5485 15.88C83.2218 15.88 82.9452 16 82.7185 16.24C82.4985 16.4733 82.3885 16.8133 82.3885 17.26C82.3885 17.7067 82.4985 18.0467 82.7185 18.28C82.9452 18.5133 83.2218 18.63 83.5485 18.63C83.8752 18.63 84.1485 18.5133 84.3685 18.28C84.5885 18.0467 84.6985 17.7067 84.6985 17.26C84.6985 16.8133 84.5885 16.4733 84.3685 16.24C84.1485 16 83.8752 15.88 83.5485 15.88Z" fill="#0FA958"/>
<path d="M93.7072 18.76H91.0572L90.6172 20.05H88.8172L91.4072 13.03H93.3772L95.9672 20.05H94.1472L93.7072 18.76ZM93.2672 17.46L92.3872 14.86L91.4972 17.46H93.2672Z" fill="#0FA958"/>
<path d="M98.7519 14.4C99.1785 14.4 99.5452 14.4967 99.8519 14.69C100.159 14.8833 100.382 15.1467 100.522 15.48V12.65H102.232V20.05H100.522V19.04C100.382 19.3733 100.159 19.6367 99.8519 19.83C99.5452 20.0233 99.1785 20.12 98.7519 20.12C98.2919 20.12 97.8785 20.0067 97.5119 19.78C97.1519 19.5467 96.8652 19.2133 96.6519 18.78C96.4452 18.3467 96.3419 17.84 96.3419 17.26C96.3419 16.6733 96.4452 16.1667 96.6519 15.74C96.8652 15.3067 97.1519 14.9767 97.5119 14.75C97.8785 14.5167 98.2919 14.4 98.7519 14.4ZM99.3019 15.9C98.9352 15.9 98.6385 16.02 98.4119 16.26C98.1919 16.5 98.0819 16.8333 98.0819 17.26C98.0819 17.6867 98.1919 18.02 98.4119 18.26C98.6385 18.5 98.9352 18.62 99.3019 18.62C99.6619 18.62 99.9552 18.4967 100.182 18.25C100.415 18.0033 100.532 17.6733 100.532 17.26C100.532 16.84 100.415 16.51 100.182 16.27C99.9552 16.0233 99.6619 15.9 99.3019 15.9Z" fill="#0FA958"/>
<path d="M105.529 14.4C105.956 14.4 106.323 14.4967 106.629 14.69C106.936 14.8833 107.159 15.1467 107.299 15.48V12.65H109.009V20.05H107.299V19.04C107.159 19.3733 106.936 19.6367 106.629 19.83C106.323 20.0233 105.956 20.12 105.529 20.12C105.069 20.12 104.656 20.0067 104.289 19.78C103.929 19.5467 103.643 19.2133 103.429 18.78C103.223 18.3467 103.119 17.84 103.119 17.26C103.119 16.6733 103.223 16.1667 103.429 15.74C103.643 15.3067 103.929 14.9767 104.289 14.75C104.656 14.5167 105.069 14.4 105.529 14.4ZM106.079 15.9C105.713 15.9 105.416 16.02 105.189 16.26C104.969 16.5 104.859 16.8333 104.859 17.26C104.859 17.6867 104.969 18.02 105.189 18.26C105.416 18.5 105.713 18.62 106.079 18.62C106.439 18.62 106.733 18.4967 106.959 18.25C107.193 18.0033 107.309 17.6733 107.309 17.26C107.309 16.84 107.193 16.51 106.959 16.27C106.733 16.0233 106.439 15.9 106.079 15.9Z" fill="#0FA958"/>
<path d="M114.929 13.71C114.649 13.71 114.445 13.77 114.319 13.89C114.192 14.01 114.122 14.2033 114.109 14.47H115.119V15.91H114.109V20.05H112.399V15.91H111.729V14.47H112.399V14.41C112.399 13.7167 112.599 13.1833 112.999 12.81C113.405 12.43 113.992 12.24 114.759 12.24C114.919 12.24 115.039 12.2433 115.119 12.25V13.72L114.929 13.71Z" fill="#0FA958"/>
<path d="M115.71 12.9C115.71 12.64 115.803 12.4267 115.99 12.26C116.177 12.0867 116.423 12 116.73 12C117.037 12 117.283 12.0867 117.47 12.26C117.657 12.4267 117.75 12.64 117.75 12.9C117.75 13.1533 117.657 13.3667 117.47 13.54C117.283 13.7067 117.037 13.79 116.73 13.79C116.423 13.79 116.177 13.7067 115.99 13.54C115.803 13.3667 115.71 13.1533 115.71 12.9ZM117.58 14.47V20.05H115.87V14.47H117.58Z" fill="#0FA958"/>
<path d="M120.471 12.65V20.05H118.761V12.65H120.471Z" fill="#0FA958"/>
<path d="M126.951 17.11C126.951 17.25 126.935 17.4033 126.901 17.57H123.031C123.051 17.99 123.158 18.2933 123.351 18.48C123.545 18.66 123.791 18.75 124.091 18.75C124.345 18.75 124.555 18.6867 124.721 18.56C124.888 18.4333 124.998 18.27 125.051 18.07H126.861C126.788 18.4633 126.628 18.8167 126.381 19.13C126.135 19.4367 125.821 19.68 125.441 19.86C125.061 20.0333 124.638 20.12 124.171 20.12C123.625 20.12 123.138 20.0067 122.711 19.78C122.291 19.5467 121.961 19.2133 121.721 18.78C121.481 18.3467 121.361 17.84 121.361 17.26C121.361 16.6733 121.478 16.1667 121.711 15.74C121.951 15.3067 122.285 14.9767 122.711 14.75C123.138 14.5167 123.625 14.4 124.171 14.4C124.725 14.4 125.211 14.5133 125.631 14.74C126.051 14.9667 126.375 15.2867 126.601 15.7C126.835 16.1067 126.951 16.5767 126.951 17.11ZM125.221 16.85C125.228 16.4833 125.128 16.21 124.921 16.03C124.721 15.8433 124.471 15.75 124.171 15.75C123.858 15.75 123.598 15.8433 123.391 16.03C123.185 16.2167 123.068 16.49 123.041 16.85H125.221Z" fill="#0FA958"/>
<path d="M129.873 14.4C130.579 14.4 131.143 14.5767 131.563 14.93C131.989 15.2833 132.256 15.75 132.363 16.33H130.763C130.716 16.1033 130.609 15.9267 130.443 15.8C130.283 15.6667 130.079 15.6 129.833 15.6C129.639 15.6 129.493 15.6433 129.393 15.73C129.293 15.81 129.243 15.9267 129.243 16.08C129.243 16.2533 129.333 16.3833 129.513 16.47C129.699 16.5567 129.989 16.6433 130.383 16.73C130.809 16.83 131.159 16.9333 131.433 17.04C131.706 17.14 131.943 17.3067 132.143 17.54C132.343 17.7733 132.443 18.0867 132.443 18.48C132.443 18.8 132.356 19.0833 132.183 19.33C132.009 19.5767 131.759 19.77 131.433 19.91C131.106 20.05 130.719 20.12 130.273 20.12C129.519 20.12 128.916 19.9533 128.463 19.62C128.009 19.2867 127.733 18.81 127.633 18.19H129.283C129.309 18.43 129.409 18.6133 129.583 18.74C129.763 18.8667 129.993 18.93 130.273 18.93C130.466 18.93 130.613 18.8867 130.713 18.8C130.813 18.7067 130.863 18.5867 130.863 18.44C130.863 18.2467 130.769 18.11 130.583 18.03C130.403 17.9433 130.106 17.8533 129.693 17.76C129.279 17.6733 128.939 17.58 128.673 17.48C128.406 17.38 128.176 17.22 127.983 17C127.789 16.7733 127.693 16.4667 127.693 16.08C127.693 15.58 127.883 15.1767 128.263 14.87C128.643 14.5567 129.179 14.4 129.873 14.4Z" fill="#0FA958"/>
<rect x="1" y="1" width="186" height="31" stroke="#38A585" stroke-width="2" stroke-dasharray="2 2"/>
</svg>
