<svg width="317" height="46" viewBox="0 0 317 46" fill="none" xmlns="http://www.w3.org/2000/svg">
<path d="M0 23C0 12.6557 0 7.48352 2.97792 4.08785C3.32328 3.69405 3.69405 3.32328 4.08785 2.97792C7.48352 0 12.6557 0 23 0H294C304.344 0 309.516 0 312.912 2.97792C313.306 3.32328 313.677 3.69405 314.022 4.08785C317 7.48352 317 12.6557 317 23V23C317 33.3443 317 38.5165 314.022 41.9121C313.677 42.306 313.306 42.6767 312.912 43.0221C309.516 46 304.344 46 294 46H23C12.6557 46 7.48352 46 4.08785 43.0221C3.69405 42.6767 3.32328 42.306 2.97792 41.9121C0 38.5165 0 33.3443 0 23V23Z" fill="#38A585"/>
<path d="M278 16.303C278 13.3742 280.372 11 283.297 11H300.703C303.628 11 306 13.3742 306 16.303V30.697C306 33.6258 303.628 36 300.703 36H283.297C280.372 36 278 33.6258 278 30.697V16.303Z" fill="#E7F4F0"/>
<path d="M299.159 17.6451C299.19 17.5677 299.197 17.4828 299.181 17.4011C299.164 17.3194 299.123 17.2444 299.065 17.1854C299.006 17.1264 298.931 17.0861 298.849 17.0693C298.767 17.0525 298.683 17.0601 298.605 17.0911L286.221 22.0504L285.836 22.2038C285.763 22.2329 285.699 22.2816 285.652 22.3446C285.605 22.4075 285.577 22.4822 285.569 22.5604C285.562 22.6386 285.577 22.7173 285.611 22.7878C285.646 22.8583 285.699 22.9178 285.766 22.9598L286.115 23.1814L286.116 23.1831L290.368 25.8916L293.073 30.1486L293.075 30.1503L293.297 30.4998C293.339 30.5659 293.398 30.6191 293.468 30.6536C293.539 30.6881 293.617 30.7024 293.695 30.6951C293.773 30.6878 293.848 30.6591 293.91 30.6121C293.973 30.5652 294.022 30.5018 294.051 30.429L299.159 17.6451ZM297.598 19.2559L291.218 25.6427L291.035 25.3547C291.002 25.3018 290.957 25.257 290.904 25.2234L290.617 25.0402L296.996 18.6533L297.999 18.2519L297.598 19.2559Z" fill="#38A585"/>
<path opacity="0.8" d="M36.7521 17.4615H33.8462L33.1538 15.4659C33.106 15.3294 33.0184 15.2113 32.9029 15.128C32.7874 15.0446 32.6497 14.9999 32.5085 15H25.953C25.6645 15 25.406 15.1868 25.3098 15.4659L24.6154 17.4615H21.7094C20.765 17.4615 20 18.2484 20 19.2198V29.2418C20 30.2132 20.765 31 21.7094 31H36.7521C37.6966 31 38.4615 30.2132 38.4615 29.2418V19.2198C38.4615 18.2484 37.6966 17.4615 36.7521 17.4615ZM36.9231 29.2418C36.9231 29.3385 36.8462 29.4176 36.7521 29.4176H21.7094C21.6154 29.4176 21.5385 29.3385 21.5385 29.2418V19.2198C21.5385 19.1231 21.6154 19.044 21.7094 19.044H25.6987L26.0641 17.9934L26.5534 16.5824H31.906L32.3953 17.9934L32.7607 19.044H36.7521C36.8462 19.044 36.9231 19.1231 36.9231 19.2198V29.2418ZM29.2308 20.4505C27.3419 20.4505 25.812 22.0242 25.812 23.967C25.812 25.9099 27.3419 27.4835 29.2308 27.4835C31.1197 27.4835 32.6496 25.9099 32.6496 23.967C32.6496 22.0242 31.1197 20.4505 29.2308 20.4505ZM29.2308 26.0769C28.0983 26.0769 27.1795 25.1319 27.1795 23.967C27.1795 22.8022 28.0983 21.8571 29.2308 21.8571C30.3632 21.8571 31.2821 22.8022 31.2821 23.967C31.2821 25.1319 30.3632 26.0769 29.2308 26.0769Z" fill="white"/>
<path opacity="0.8" d="M251.904 20.1102L250.889 19.0962L245.814 24.1702C245.614 24.3702 245.456 24.6075 245.348 24.8687C245.24 25.1299 245.184 25.4099 245.184 25.6926C245.184 25.9753 245.24 26.2552 245.348 26.5164C245.456 26.7775 245.615 27.0148 245.815 27.2147C246.015 27.4146 246.252 27.5731 246.513 27.6813C246.774 27.7894 247.054 27.845 247.337 27.845C247.62 27.845 247.9 27.7892 248.161 27.681C248.422 27.5728 248.659 27.4142 248.859 27.2142L254.949 21.1252C255.622 20.4522 256 19.5395 256 18.5879C256 17.6362 255.622 16.7236 254.949 16.0507C254.276 15.3779 253.363 14.9999 252.411 15C251.46 15.0001 250.547 15.3782 249.874 16.0512L243.48 22.4442L243.466 22.4572C241.511 24.4122 241.511 27.5802 243.466 29.5342C245.421 31.4882 248.589 31.4882 250.544 29.5342L250.557 29.5202L250.558 29.5212L254.923 25.1572L253.908 24.1432L249.543 28.5062L249.53 28.5192C248.86 29.1878 247.953 29.5632 247.006 29.5632C246.06 29.5632 245.152 29.1878 244.482 28.5192C244.15 28.1864 243.887 27.7914 243.708 27.3568C243.529 26.9221 243.438 26.4564 243.439 25.9863C243.44 25.5162 243.534 25.051 243.716 24.6174C243.897 24.1837 244.162 23.7901 244.496 23.4592L244.495 23.4582L250.89 17.0652C251.729 16.2252 253.095 16.2252 253.935 17.0652C254.775 17.9052 254.774 19.2702 253.935 20.1092L247.845 26.1982C247.709 26.3236 247.53 26.3914 247.344 26.3876C247.159 26.3838 246.983 26.3086 246.852 26.1777C246.721 26.0468 246.645 25.8704 246.641 25.6853C246.637 25.5001 246.705 25.3206 246.83 25.1842L251.905 20.1092L251.904 20.1102Z" fill="white"/>
<g opacity="0.8">
<path d="M59.632 19V20.243H57.586V26.678H56.046V20.243H54V19H59.632Z" fill="white"/>
<path d="M66.8056 20.584L63.0326 29.56H61.3936L62.7136 26.524L60.2716 20.584H61.9986L63.5716 24.841L65.1666 20.584H66.8056Z" fill="white"/>
<path d="M69.3958 21.464C69.5938 21.1853 69.8651 20.9543 70.2098 20.771C70.5618 20.5803 70.9615 20.485 71.4088 20.485C71.9295 20.485 72.3988 20.6133 72.8168 20.87C73.2421 21.1267 73.5758 21.4933 73.8178 21.97C74.0671 22.4393 74.1918 22.9857 74.1918 23.609C74.1918 24.2323 74.0671 24.786 73.8178 25.27C73.5758 25.7467 73.2421 26.117 72.8168 26.381C72.3988 26.645 71.9295 26.777 71.4088 26.777C70.9615 26.777 70.5655 26.6853 70.2208 26.502C69.8835 26.3187 69.6085 26.0877 69.3958 25.809V29.582H67.8558V20.584H69.3958V21.464ZM72.6188 23.609C72.6188 23.2423 72.5418 22.927 72.3878 22.663C72.2411 22.3917 72.0431 22.1863 71.7938 22.047C71.5518 21.9077 71.2878 21.838 71.0018 21.838C70.7231 21.838 70.4591 21.9113 70.2098 22.058C69.9678 22.1973 69.7698 22.4027 69.6158 22.674C69.4691 22.9453 69.3958 23.2643 69.3958 23.631C69.3958 23.9977 69.4691 24.3167 69.6158 24.588C69.7698 24.8593 69.9678 25.0683 70.2098 25.215C70.4591 25.3543 70.7231 25.424 71.0018 25.424C71.2878 25.424 71.5518 25.3507 71.7938 25.204C72.0431 25.0573 72.2411 24.8483 72.3878 24.577C72.5418 24.3057 72.6188 23.983 72.6188 23.609Z" fill="white"/>
<path d="M81.1959 23.499C81.1959 23.719 81.1812 23.917 81.1519 24.093H76.6969C76.7335 24.533 76.8875 24.8777 77.1589 25.127C77.4302 25.3763 77.7639 25.501 78.1599 25.501C78.7319 25.501 79.1389 25.2553 79.3809 24.764H81.0419C80.8659 25.3507 80.5285 25.8347 80.0299 26.216C79.5312 26.59 78.9189 26.777 78.1929 26.777C77.6062 26.777 77.0782 26.6487 76.6089 26.392C76.1469 26.128 75.7839 25.7577 75.5199 25.281C75.2632 24.8043 75.1349 24.2543 75.1349 23.631C75.1349 23.0003 75.2632 22.4467 75.5199 21.97C75.7765 21.4933 76.1359 21.1267 76.5979 20.87C77.0599 20.6133 77.5915 20.485 78.1929 20.485C78.7722 20.485 79.2892 20.6097 79.7439 20.859C80.2059 21.1083 80.5615 21.464 80.8109 21.926C81.0675 22.3807 81.1959 22.905 81.1959 23.499ZM79.6009 23.059C79.5935 22.663 79.4505 22.3477 79.1719 22.113C78.8932 21.871 78.5522 21.75 78.1489 21.75C77.7675 21.75 77.4449 21.8673 77.1809 22.102C76.9242 22.3293 76.7665 22.6483 76.7079 23.059H79.6009Z" fill="white"/>
<path d="M91.486 19L88.89 24.005V26.678H87.35V24.005L84.743 19H86.481L88.131 22.509L89.77 19H91.486Z" fill="white"/>
<path d="M95.3002 26.777C94.7135 26.777 94.1855 26.6487 93.7162 26.392C93.2469 26.128 92.8765 25.7577 92.6052 25.281C92.3412 24.8043 92.2092 24.2543 92.2092 23.631C92.2092 23.0077 92.3449 22.4577 92.6162 21.981C92.8949 21.5043 93.2725 21.1377 93.7492 20.881C94.2259 20.617 94.7575 20.485 95.3442 20.485C95.9309 20.485 96.4625 20.617 96.9392 20.881C97.4159 21.1377 97.7899 21.5043 98.0612 21.981C98.3399 22.4577 98.4792 23.0077 98.4792 23.631C98.4792 24.2543 98.3362 24.8043 98.0502 25.281C97.7715 25.7577 97.3902 26.128 96.9062 26.392C96.4295 26.6487 95.8942 26.777 95.3002 26.777ZM95.3002 25.435C95.5789 25.435 95.8392 25.369 96.0812 25.237C96.3305 25.0977 96.5285 24.8923 96.6752 24.621C96.8219 24.3497 96.8952 24.0197 96.8952 23.631C96.8952 23.0517 96.7412 22.608 96.4332 22.3C96.1325 21.9847 95.7622 21.827 95.3222 21.827C94.8822 21.827 94.5119 21.9847 94.2112 22.3C93.9179 22.608 93.7712 23.0517 93.7712 23.631C93.7712 24.2103 93.9142 24.6577 94.2002 24.973C94.4935 25.281 94.8602 25.435 95.3002 25.435Z" fill="white"/>
<path d="M105.582 20.584V26.678H104.031V25.908C103.833 26.172 103.573 26.381 103.25 26.535C102.935 26.6817 102.59 26.755 102.216 26.755C101.739 26.755 101.318 26.656 100.951 26.458C100.584 26.2527 100.295 25.9557 100.082 25.567C99.8765 25.171 99.7738 24.7017 99.7738 24.159V20.584H101.314V23.939C101.314 24.423 101.435 24.797 101.677 25.061C101.919 25.3177 102.249 25.446 102.667 25.446C103.092 25.446 103.426 25.3177 103.668 25.061C103.91 24.797 104.031 24.423 104.031 23.939V20.584H105.582Z" fill="white"/>
<path d="M108.861 21.53C109.059 21.2073 109.316 20.9543 109.631 20.771C109.954 20.5877 110.321 20.496 110.731 20.496V22.113H110.324C109.84 22.113 109.474 22.2267 109.224 22.454C108.982 22.6813 108.861 23.0773 108.861 23.642V26.678H107.321V20.584H108.861V21.53Z" fill="white"/>
<path d="M123.201 19V26.678H121.661V21.684L119.604 26.678H118.438L116.37 21.684V26.678H114.83V19H116.579L119.021 24.709L121.463 19H123.201Z" fill="white"/>
<path d="M130.608 23.499C130.608 23.719 130.594 23.917 130.564 24.093H126.109C126.146 24.533 126.3 24.8777 126.571 25.127C126.843 25.3763 127.176 25.501 127.572 25.501C128.144 25.501 128.551 25.2553 128.793 24.764H130.454C130.278 25.3507 129.941 25.8347 129.442 26.216C128.944 26.59 128.331 26.777 127.605 26.777C127.019 26.777 126.491 26.6487 126.021 26.392C125.559 26.128 125.196 25.7577 124.932 25.281C124.676 24.8043 124.547 24.2543 124.547 23.631C124.547 23.0003 124.676 22.4467 124.932 21.97C125.189 21.4933 125.548 21.1267 126.01 20.87C126.472 20.6133 127.004 20.485 127.605 20.485C128.185 20.485 128.702 20.6097 129.156 20.859C129.618 21.1083 129.974 21.464 130.223 21.926C130.48 22.3807 130.608 22.905 130.608 23.499ZM129.013 23.059C129.006 22.663 128.863 22.3477 128.584 22.113C128.306 21.871 127.965 21.75 127.561 21.75C127.18 21.75 126.857 21.8673 126.593 22.102C126.337 22.3293 126.179 22.6483 126.12 23.059H129.013Z" fill="white"/>
<path d="M134.284 26.777C133.786 26.777 133.338 26.689 132.942 26.513C132.546 26.3297 132.231 26.084 131.996 25.776C131.769 25.468 131.644 25.127 131.622 24.753H133.173C133.203 24.9877 133.316 25.182 133.514 25.336C133.72 25.49 133.973 25.567 134.273 25.567C134.567 25.567 134.794 25.5083 134.955 25.391C135.124 25.2737 135.208 25.1233 135.208 24.94C135.208 24.742 135.106 24.5953 134.9 24.5C134.702 24.3973 134.383 24.2873 133.943 24.17C133.489 24.06 133.115 23.9463 132.821 23.829C132.535 23.7117 132.286 23.532 132.073 23.29C131.868 23.048 131.765 22.7217 131.765 22.311C131.765 21.9737 131.861 21.6657 132.051 21.387C132.249 21.1083 132.528 20.8883 132.887 20.727C133.254 20.5657 133.683 20.485 134.174 20.485C134.9 20.485 135.48 20.6683 135.912 21.035C136.345 21.3943 136.583 21.882 136.627 22.498H135.153C135.131 22.256 135.029 22.0653 134.845 21.926C134.669 21.7793 134.431 21.706 134.13 21.706C133.852 21.706 133.635 21.7573 133.481 21.86C133.335 21.9627 133.261 22.1057 133.261 22.289C133.261 22.4943 133.364 22.652 133.569 22.762C133.775 22.8647 134.094 22.971 134.526 23.081C134.966 23.191 135.329 23.3047 135.615 23.422C135.901 23.5393 136.147 23.7227 136.352 23.972C136.565 24.214 136.675 24.5367 136.682 24.94C136.682 25.292 136.583 25.6073 136.385 25.886C136.195 26.1647 135.916 26.3847 135.549 26.546C135.19 26.7 134.768 26.777 134.284 26.777Z" fill="white"/>
<path d="M140.498 26.777C140 26.777 139.552 26.689 139.156 26.513C138.76 26.3297 138.445 26.084 138.21 25.776C137.983 25.468 137.858 25.127 137.836 24.753H139.387C139.417 24.9877 139.53 25.182 139.728 25.336C139.934 25.49 140.187 25.567 140.487 25.567C140.781 25.567 141.008 25.5083 141.169 25.391C141.338 25.2737 141.422 25.1233 141.422 24.94C141.422 24.742 141.32 24.5953 141.114 24.5C140.916 24.3973 140.597 24.2873 140.157 24.17C139.703 24.06 139.329 23.9463 139.035 23.829C138.749 23.7117 138.5 23.532 138.287 23.29C138.082 23.048 137.979 22.7217 137.979 22.311C137.979 21.9737 138.075 21.6657 138.265 21.387C138.463 21.1083 138.742 20.8883 139.101 20.727C139.468 20.5657 139.897 20.485 140.388 20.485C141.114 20.485 141.694 20.6683 142.126 21.035C142.559 21.3943 142.797 21.882 142.841 22.498H141.367C141.345 22.256 141.243 22.0653 141.059 21.926C140.883 21.7793 140.645 21.706 140.344 21.706C140.066 21.706 139.849 21.7573 139.695 21.86C139.549 21.9627 139.475 22.1057 139.475 22.289C139.475 22.4943 139.578 22.652 139.783 22.762C139.989 22.8647 140.308 22.971 140.74 23.081C141.18 23.191 141.543 23.3047 141.829 23.422C142.115 23.5393 142.361 23.7227 142.566 23.972C142.779 24.214 142.889 24.5367 142.896 24.94C142.896 25.292 142.797 25.6073 142.599 25.886C142.409 26.1647 142.13 26.3847 141.763 26.546C141.404 26.7 140.982 26.777 140.498 26.777Z" fill="white"/>
<path d="M143.985 23.609C143.985 22.993 144.106 22.4467 144.348 21.97C144.597 21.4933 144.931 21.1267 145.349 20.87C145.774 20.6133 146.247 20.485 146.768 20.485C147.222 20.485 147.618 20.5767 147.956 20.76C148.3 20.9433 148.575 21.1743 148.781 21.453V20.584H150.332V26.678H148.781V25.787C148.583 26.073 148.308 26.3113 147.956 26.502C147.611 26.6853 147.211 26.777 146.757 26.777C146.243 26.777 145.774 26.645 145.349 26.381C144.931 26.117 144.597 25.7467 144.348 25.27C144.106 24.786 143.985 24.2323 143.985 23.609ZM148.781 23.631C148.781 23.257 148.707 22.938 148.561 22.674C148.414 22.4027 148.216 22.1973 147.967 22.058C147.717 21.9113 147.45 21.838 147.164 21.838C146.878 21.838 146.614 21.9077 146.372 22.047C146.13 22.1863 145.932 22.3917 145.778 22.663C145.631 22.927 145.558 23.2423 145.558 23.609C145.558 23.9757 145.631 24.2983 145.778 24.577C145.932 24.8483 146.13 25.0573 146.372 25.204C146.621 25.3507 146.885 25.424 147.164 25.424C147.45 25.424 147.717 25.3543 147.967 25.215C148.216 25.0683 148.414 24.863 148.561 24.599C148.707 24.3277 148.781 24.005 148.781 23.631Z" fill="white"/>
<path d="M154.443 20.485C154.897 20.485 155.297 20.5767 155.642 20.76C155.986 20.936 156.258 21.167 156.456 21.453V20.584H158.007V26.722C158.007 27.2867 157.893 27.789 157.666 28.229C157.438 28.6763 157.097 29.0283 156.643 29.285C156.188 29.549 155.638 29.681 154.993 29.681C154.127 29.681 153.416 29.4793 152.859 29.076C152.309 28.6727 151.997 28.1227 151.924 27.426H153.453C153.533 27.7047 153.706 27.9247 153.97 28.086C154.241 28.2547 154.567 28.339 154.949 28.339C155.396 28.339 155.759 28.2033 156.038 27.932C156.316 27.668 156.456 27.2647 156.456 26.722V25.776C156.258 26.062 155.983 26.3003 155.631 26.491C155.286 26.6817 154.89 26.777 154.443 26.777C153.929 26.777 153.46 26.645 153.035 26.381C152.609 26.117 152.272 25.7467 152.023 25.27C151.781 24.786 151.66 24.2323 151.66 23.609C151.66 22.993 151.781 22.4467 152.023 21.97C152.272 21.4933 152.606 21.1267 153.024 20.87C153.449 20.6133 153.922 20.485 154.443 20.485ZM156.456 23.631C156.456 23.257 156.382 22.938 156.236 22.674C156.089 22.4027 155.891 22.1973 155.642 22.058C155.392 21.9113 155.125 21.838 154.839 21.838C154.553 21.838 154.289 21.9077 154.047 22.047C153.805 22.1863 153.607 22.3917 153.453 22.663C153.306 22.927 153.233 23.2423 153.233 23.609C153.233 23.9757 153.306 24.2983 153.453 24.577C153.607 24.8483 153.805 25.0573 154.047 25.204C154.296 25.3507 154.56 25.424 154.839 25.424C155.125 25.424 155.392 25.3543 155.642 25.215C155.891 25.0683 156.089 24.863 156.236 24.599C156.382 24.3277 156.456 24.005 156.456 23.631Z" fill="white"/>
<path d="M165.396 23.499C165.396 23.719 165.381 23.917 165.352 24.093H160.897C160.933 24.533 161.087 24.8777 161.359 25.127C161.63 25.3763 161.964 25.501 162.36 25.501C162.932 25.501 163.339 25.2553 163.581 24.764H165.242C165.066 25.3507 164.728 25.8347 164.23 26.216C163.731 26.59 163.119 26.777 162.393 26.777C161.806 26.777 161.278 26.6487 160.809 26.392C160.347 26.128 159.984 25.7577 159.72 25.281C159.463 24.8043 159.335 24.2543 159.335 23.631C159.335 23.0003 159.463 22.4467 159.72 21.97C159.976 21.4933 160.336 21.1267 160.798 20.87C161.26 20.6133 161.791 20.485 162.393 20.485C162.972 20.485 163.489 20.6097 163.944 20.859C164.406 21.1083 164.761 21.464 165.011 21.926C165.267 22.3807 165.396 22.905 165.396 23.499ZM163.801 23.059C163.793 22.663 163.65 22.3477 163.372 22.113C163.093 21.871 162.752 21.75 162.349 21.75C161.967 21.75 161.645 21.8673 161.381 22.102C161.124 22.3293 160.966 22.6483 160.908 23.059H163.801Z" fill="white"/>
</g>
</svg>
