<svg width="103" height="125" viewBox="0 0 103 125" fill="none" xmlns="http://www.w3.org/2000/svg">
<path d="M85.9739 69.0229H78.5214V36.7124C78.5214 21.3961 66.3007 8.89657 51.2238 8.89657C36.1468 8.89657 23.9261 21.3961 23.9261 36.7124V69.0229H16.4813V36.7124C16.4813 17.1368 32.0932 1.25 51.2276 1.25C70.362 1.25 85.9739 17.1368 85.9739 36.7124V69.0229Z" fill="#FBF5FB" stroke="#2D3933" stroke-width="2.5"/>
<path d="M102.459 121.064C102.459 123.238 100.731 125 98.5998 125H3.8592C1.72788 125 0 123.238 0 121.064V58.2826C0 56.1089 1.72788 54.3466 3.8592 54.3466H98.5998C100.731 54.3466 102.459 56.1089 102.459 58.2826V121.064Z" fill="#F2CB30"/>
<path d="M77.0209 54.5977C77.0209 54.5977 84.557 46.2363 85.5003 34.3231V54.5977H77.0209Z" fill="#CCC4CC"/>
<path d="M102.459 121.064V82.5971C71.2466 109.528 26.2417 119.647 0.738281 123.362C1.43857 124.348 2.57273 125 3.85913 125H98.5997C100.731 125 102.459 123.238 102.459 121.064Z" fill="#EAB531"/>
<path d="M59.6958 79.0338C59.6958 74.2633 55.9051 70.3972 51.2277 70.3972C46.5502 70.3972 42.7595 74.2633 42.7595 79.0338C42.7595 81.8751 44.1144 84.3904 46.1924 85.9664L43.4979 105.495H58.9575L56.2629 85.9664C58.3409 84.3904 59.6958 81.8751 59.6958 79.0338Z" fill="#72716F"/>
<path d="M43.4978 105.491C43.4978 105.491 55.5778 100.779 56.4645 87.422L58.9574 105.491H43.4978Z" fill="#5C5A5A"/>
</svg>
