<svg width="57" height="13" viewBox="0 0 57 13" fill="none" xmlns="http://www.w3.org/2000/svg">
<rect width="57" height="13" rx="4" fill="#F7BA34"/>
<path d="M8.68 8.024H6.352L5.952 9.16H5L6.992 3.592H8.048L10.04 9.16H9.08L8.68 8.024ZM8.424 7.28L7.52 4.696L6.608 7.28H8.424Z" fill="#4F433C"/>
<path d="M12.5061 9.232C12.1595 9.232 11.8475 9.17067 11.5701 9.048C11.2981 8.92 11.0821 8.74934 10.9221 8.536C10.7621 8.31734 10.6768 8.07467 10.6661 7.808H11.6101C11.6261 7.99467 11.7141 8.152 11.8741 8.28C12.0395 8.40267 12.2448 8.464 12.4901 8.464C12.7461 8.464 12.9435 8.416 13.0821 8.32C13.2261 8.21867 13.2981 8.09067 13.2981 7.936C13.2981 7.77067 13.2181 7.648 13.0581 7.568C12.9035 7.488 12.6555 7.4 12.3141 7.304C11.9835 7.21334 11.7141 7.12534 11.5061 7.04C11.2981 6.95467 11.1168 6.824 10.9621 6.648C10.8128 6.472 10.7381 6.24 10.7381 5.952C10.7381 5.71734 10.8075 5.504 10.9461 5.312C11.0848 5.11467 11.2821 4.96 11.5381 4.848C11.7995 4.736 12.0981 4.68 12.4341 4.68C12.9355 4.68 13.3381 4.808 13.6421 5.064C13.9515 5.31467 14.1168 5.65867 14.1381 6.096H13.2261C13.2101 5.89867 13.1301 5.74134 12.9861 5.624C12.8421 5.50667 12.6475 5.448 12.4021 5.448C12.1621 5.448 11.9781 5.49334 11.8501 5.584C11.7221 5.67467 11.6581 5.79467 11.6581 5.944C11.6581 6.06134 11.7008 6.16 11.7861 6.24C11.8715 6.32 11.9755 6.384 12.0981 6.432C12.2208 6.47467 12.4021 6.53067 12.6421 6.6C12.9621 6.68534 13.2235 6.77334 13.4261 6.864C13.6341 6.94934 13.8128 7.07734 13.9621 7.248C14.1115 7.41867 14.1888 7.64534 14.1941 7.928C14.1941 8.17867 14.1248 8.40267 13.9861 8.6C13.8475 8.79734 13.6501 8.952 13.3941 9.064C13.1435 9.176 12.8475 9.232 12.5061 9.232Z" fill="#4F433C"/>
<path d="M16.9236 6.96L18.9556 9.16H17.7236L16.0916 7.264V9.16H15.1796V3.24H16.0916V6.68L17.6916 4.752H18.9556L16.9236 6.96Z" fill="#4F433C"/>
<path d="M24.5754 9.16L23.2954 6.936H22.5994V9.16H21.6874V3.6H23.6074C24.034 3.6 24.394 3.67467 24.6874 3.824C24.986 3.97334 25.2074 4.17334 25.3514 4.424C25.5007 4.67467 25.5754 4.95467 25.5754 5.264C25.5754 5.62667 25.4687 5.95734 25.2554 6.256C25.0474 6.54934 24.7247 6.74934 24.2874 6.856L25.6634 9.16H24.5754ZM22.5994 6.208H23.6074C23.9487 6.208 24.2047 6.12267 24.3754 5.952C24.5514 5.78134 24.6394 5.552 24.6394 5.264C24.6394 4.976 24.554 4.752 24.3834 4.592C24.2127 4.42667 23.954 4.344 23.6074 4.344H22.5994V6.208Z" fill="#4F433C"/>
<path d="M30.7821 6.848C30.7821 7.01334 30.7714 7.16267 30.7501 7.296H27.3821C27.4087 7.648 27.5394 7.93067 27.7741 8.144C28.0087 8.35734 28.2967 8.464 28.6381 8.464C29.1287 8.464 29.4754 8.25867 29.6781 7.848H30.6621C30.5287 8.25334 30.2861 8.58667 29.9341 8.848C29.5874 9.104 29.1554 9.232 28.6381 9.232C28.2167 9.232 27.8381 9.13867 27.5021 8.952C27.1714 8.76 26.9101 8.49334 26.7181 8.152C26.5314 7.80534 26.4381 7.40534 26.4381 6.952C26.4381 6.49867 26.5287 6.10134 26.7101 5.76C26.8967 5.41334 27.1554 5.14667 27.4861 4.96C27.8221 4.77334 28.2061 4.68 28.6381 4.68C29.0541 4.68 29.4247 4.77067 29.7501 4.952C30.0754 5.13334 30.3287 5.38934 30.5101 5.72C30.6914 6.04534 30.7821 6.42134 30.7821 6.848ZM29.8301 6.56C29.8247 6.224 29.7047 5.95467 29.4701 5.752C29.2354 5.54934 28.9447 5.448 28.5981 5.448C28.2834 5.448 28.0141 5.54934 27.7901 5.752C27.5661 5.94934 27.4327 6.21867 27.3901 6.56H29.8301Z" fill="#4F433C"/>
<path d="M33.3836 8.344L34.6316 4.752H35.5996L33.9196 9.16H32.8316L31.1596 4.752H32.1356L33.3836 8.344Z" fill="#4F433C"/>
<path d="M36.7529 4.168C36.5876 4.168 36.4489 4.112 36.3369 4C36.2249 3.888 36.1689 3.74934 36.1689 3.584C36.1689 3.41867 36.2249 3.28 36.3369 3.168C36.4489 3.056 36.5876 3 36.7529 3C36.9129 3 37.0489 3.056 37.1609 3.168C37.2729 3.28 37.3289 3.41867 37.3289 3.584C37.3289 3.74934 37.2729 3.888 37.1609 4C37.0489 4.112 36.9129 4.168 36.7529 4.168ZM37.2009 4.752V9.16H36.2889V4.752H37.2009Z" fill="#4F433C"/>
<path d="M39.9983 9.232C39.6516 9.232 39.3396 9.17067 39.0623 9.048C38.7903 8.92 38.5743 8.74934 38.4143 8.536C38.2543 8.31734 38.169 8.07467 38.1583 7.808H39.1023C39.1183 7.99467 39.2063 8.152 39.3663 8.28C39.5316 8.40267 39.737 8.464 39.9823 8.464C40.2383 8.464 40.4356 8.416 40.5743 8.32C40.7183 8.21867 40.7903 8.09067 40.7903 7.936C40.7903 7.77067 40.7103 7.648 40.5503 7.568C40.3956 7.488 40.1476 7.4 39.8063 7.304C39.4756 7.21334 39.2063 7.12534 38.9983 7.04C38.7903 6.95467 38.609 6.824 38.4543 6.648C38.305 6.472 38.2303 6.24 38.2303 5.952C38.2303 5.71734 38.2996 5.504 38.4383 5.312C38.577 5.11467 38.7743 4.96 39.0303 4.848C39.2916 4.736 39.5903 4.68 39.9263 4.68C40.4276 4.68 40.8303 4.808 41.1343 5.064C41.4436 5.31467 41.609 5.65867 41.6303 6.096H40.7183C40.7023 5.89867 40.6223 5.74134 40.4783 5.624C40.3343 5.50667 40.1396 5.448 39.8943 5.448C39.6543 5.448 39.4703 5.49334 39.3423 5.584C39.2143 5.67467 39.1503 5.79467 39.1503 5.944C39.1503 6.06134 39.193 6.16 39.2783 6.24C39.3636 6.32 39.4676 6.384 39.5903 6.432C39.713 6.47467 39.8943 6.53067 40.1343 6.6C40.4543 6.68534 40.7156 6.77334 40.9183 6.864C41.1263 6.94934 41.305 7.07734 41.4543 7.248C41.6036 7.41867 41.681 7.64534 41.6863 7.928C41.6863 8.17867 41.617 8.40267 41.4783 8.6C41.3396 8.79734 41.1423 8.952 40.8863 9.064C40.6356 9.176 40.3396 9.232 39.9983 9.232Z" fill="#4F433C"/>
<path d="M44.5838 9.232C44.1678 9.232 43.7917 9.13867 43.4557 8.952C43.1197 8.76 42.8557 8.49334 42.6637 8.152C42.4717 7.80534 42.3758 7.40534 42.3758 6.952C42.3758 6.504 42.4744 6.10667 42.6717 5.76C42.8691 5.41334 43.1384 5.14667 43.4798 4.96C43.8211 4.77334 44.2024 4.68 44.6237 4.68C45.0451 4.68 45.4264 4.77334 45.7677 4.96C46.1091 5.14667 46.3784 5.41334 46.5757 5.76C46.7731 6.10667 46.8717 6.504 46.8717 6.952C46.8717 7.4 46.7704 7.79734 46.5677 8.144C46.3651 8.49067 46.0878 8.76 45.7358 8.952C45.3891 9.13867 45.0051 9.232 44.5838 9.232ZM44.5838 8.44C44.8184 8.44 45.0371 8.384 45.2397 8.272C45.4477 8.16 45.6158 7.992 45.7438 7.768C45.8718 7.544 45.9357 7.272 45.9357 6.952C45.9357 6.632 45.8744 6.36267 45.7518 6.144C45.6291 5.92 45.4664 5.752 45.2638 5.64C45.0611 5.528 44.8424 5.472 44.6077 5.472C44.3731 5.472 44.1544 5.528 43.9518 5.64C43.7544 5.752 43.5971 5.92 43.4798 6.144C43.3624 6.36267 43.3037 6.632 43.3037 6.952C43.3037 7.42667 43.4237 7.79467 43.6637 8.056C43.9091 8.312 44.2158 8.44 44.5838 8.44Z" fill="#4F433C"/>
<path d="M49.9973 4.68C50.344 4.68 50.6533 4.752 50.9253 4.896C51.2026 5.04 51.4186 5.25334 51.5733 5.536C51.728 5.81867 51.8053 6.16 51.8053 6.56V9.16H50.9013V6.696C50.9013 6.30134 50.8026 6 50.6053 5.792C50.408 5.57867 50.1386 5.472 49.7973 5.472C49.456 5.472 49.184 5.57867 48.9813 5.792C48.784 6 48.6853 6.30134 48.6853 6.696V9.16H47.7733V4.752H48.6853V5.256C48.8346 5.07467 49.024 4.93334 49.2533 4.832C49.488 4.73067 49.736 4.68 49.9973 4.68Z" fill="#4F433C"/>
</svg>
