<svg width="280" height="215" viewBox="0 0 280 215" fill="none" xmlns="http://www.w3.org/2000/svg">
<g filter="url(#filter0_d_40_687)">
<g filter="url(#filter1_d_40_687)">
<path d="M5 6H273V90C273 141.854 273 167.782 256.891 183.891C240.782 200 214.854 200 163 200H115C63.1455 200 37.2183 200 21.1091 183.891C5 167.782 5 141.854 5 90V6Z" fill="white"/>
</g>
<path d="M69.8035 89.0636H208.085" stroke="#C1C1C7" stroke-width="0.45"/>
<path d="M69.8035 110.958H208.085" stroke="#C1C1C7" stroke-width="0.45"/>
<path d="M86.1703 97.7154C86.2164 96.7935 86.539 96.0837 87.1382 95.5859C87.7467 95.0788 88.5441 94.8253 89.5305 94.8253C90.2035 94.8253 90.7796 94.9452 91.259 95.1848C91.7384 95.4153 92.0979 95.7334 92.3376 96.139C92.5865 96.5354 92.711 96.9871 92.711 97.4941C92.711 98.0749 92.5588 98.5681 92.2546 98.9738C91.9596 99.3702 91.6047 99.6375 91.1899 99.7758V99.8311C91.7246 99.997 92.1394 100.292 92.4344 100.716C92.7386 101.14 92.8907 101.684 92.8907 102.348C92.8907 102.901 92.7617 103.394 92.5035 103.827C92.2546 104.261 91.8813 104.602 91.3835 104.851C90.8949 105.09 90.3049 105.21 89.6135 105.21C88.5717 105.21 87.7236 104.947 87.0691 104.422C86.4146 103.897 86.0689 103.122 86.032 102.099H87.9126C87.931 102.551 88.0832 102.915 88.3689 103.191C88.6639 103.459 89.0649 103.592 89.572 103.592C90.0421 103.592 90.4017 103.463 90.6506 103.205C90.9087 102.938 91.0378 102.597 91.0378 102.182C91.0378 101.629 90.8626 101.232 90.5123 100.993C90.162 100.753 89.6181 100.633 88.8806 100.633H88.4796V99.0429H88.8806C90.1896 99.0429 90.8442 98.605 90.8442 97.7292C90.8442 97.3328 90.7243 97.024 90.4846 96.8027C90.2542 96.5815 89.9177 96.4709 89.4752 96.4709C89.0419 96.4709 88.7054 96.5907 88.4657 96.8304C88.2353 97.0609 88.1016 97.3559 88.0647 97.7154H86.1703Z" fill="#303045"/>
<path d="M126.155 103.177V101.656L130.677 95.1848H132.931V101.49H134.147V103.177H132.931V105.141H130.995V103.177H126.155ZM131.119 97.2591L128.284 101.49H131.119V97.2591Z" fill="#303045"/>
<path d="M135.145 96.8442V95.0604H138.477V105.141H136.486V96.8442H135.145Z" fill="#303045"/>
<path d="M180.128 98.4759C180.128 98.9922 180.003 99.4762 179.754 99.9279C179.515 100.38 179.132 100.744 178.607 101.02C178.09 101.297 177.436 101.435 176.643 101.435H175.025V105.141H173.089V95.4891H176.643C177.39 95.4891 178.026 95.6181 178.551 95.8763C179.077 96.1344 179.469 96.4893 179.727 96.941C179.994 97.3927 180.128 97.9044 180.128 98.4759ZM176.56 99.8726C177.095 99.8726 177.491 99.7527 177.749 99.513C178.008 99.2641 178.137 98.9184 178.137 98.4759C178.137 97.5356 177.611 97.0655 176.56 97.0655H175.025V99.8726H176.56Z" fill="#303045"/>
<path d="M192.025 95.4891V105.141H190.09V98.8631L187.504 105.141H186.038L183.438 98.8631V105.141H181.502V95.4891H183.701L186.771 102.666L189.841 95.4891H192.025Z" fill="#303045"/>
<g opacity="0.3">
<path d="M86.032 125.058V123.537L90.5538 117.066H92.8078V123.371H94.0246V125.058H92.8078V127.022H90.8718V125.058H86.032ZM90.9963 119.14L88.1615 123.371H90.9963V119.14Z" fill="#303045"/>
<path d="M125.477 125.058V123.537L129.999 117.066H132.253V123.371H133.47V125.058H132.253V127.022H130.317V125.058H125.477ZM130.441 119.14L127.607 123.371H130.441V119.14Z" fill="#303045"/>
<path d="M135.311 124.837C136.196 124.099 136.901 123.486 137.427 122.998C137.952 122.5 138.39 121.984 138.74 121.449C139.091 120.914 139.266 120.389 139.266 119.873C139.266 119.402 139.155 119.034 138.934 118.766C138.713 118.499 138.371 118.365 137.911 118.365C137.45 118.365 137.095 118.522 136.846 118.836C136.597 119.14 136.468 119.559 136.459 120.094H134.578C134.615 118.988 134.942 118.149 135.56 117.577C136.187 117.006 136.979 116.72 137.938 116.72C138.989 116.72 139.796 117.001 140.358 117.563C140.92 118.116 141.202 118.849 141.202 119.762C141.202 120.481 141.008 121.168 140.621 121.822C140.234 122.477 139.791 123.048 139.293 123.537C138.796 124.016 138.146 124.597 137.344 125.279H141.423V126.883H134.592V125.445L135.311 124.837Z" fill="#303045"/>
<path d="M180.206 120.357C180.206 120.873 180.081 121.357 179.832 121.809C179.592 122.26 179.21 122.624 178.684 122.901C178.168 123.178 177.514 123.316 176.721 123.316H175.103V127.022H173.167V117.37H176.721C177.468 117.37 178.104 117.499 178.629 117.757C179.155 118.015 179.546 118.37 179.804 118.822C180.072 119.273 180.206 119.785 180.206 120.357ZM176.638 121.753C177.173 121.753 177.569 121.633 177.827 121.394C178.085 121.145 178.214 120.799 178.214 120.357C178.214 119.416 177.689 118.946 176.638 118.946H175.103V121.753H176.638Z" fill="#303045"/>
<path d="M192.103 117.37V127.022H190.167V120.744L187.581 127.022H186.116L183.516 120.744V127.022H181.58V117.37H183.779L186.849 124.547L189.918 117.37H192.103Z" fill="#303045"/>
</g>
<g opacity="0.3">
<path d="M86.7649 81.1171C87.6499 80.3796 88.3551 79.7666 88.8806 79.278C89.406 78.7801 89.8439 78.2639 90.1942 77.7292C90.5446 77.1945 90.7197 76.6691 90.7197 76.1528C90.7197 75.6827 90.6091 75.3139 90.3878 75.0466C90.1666 74.7792 89.8255 74.6455 89.3646 74.6455C88.9036 74.6455 88.5487 74.8023 88.2998 75.1157C88.0509 75.4199 87.9218 75.8394 87.9126 76.3741H86.032C86.0689 75.2678 86.3961 74.4289 87.0138 73.8573C87.6407 73.2858 88.4335 73 89.3922 73C90.4431 73 91.2498 73.2812 91.8121 73.8435C92.3745 74.3966 92.6556 75.1295 92.6556 76.0422C92.6556 76.7612 92.4621 77.448 92.0749 78.1026C91.6877 78.7571 91.2452 79.3287 90.7474 79.8173C90.2496 80.2966 89.5996 80.8774 88.7976 81.5596H92.8769V83.1637H86.0458V81.7255L86.7649 81.1171Z" fill="#303045"/>
<path d="M124.317 81.3383V79.8173L128.839 73.3457H131.093V79.6513H132.309V81.3383H131.093V83.3019H129.157V81.3383H124.317ZM129.281 75.4199L126.446 79.6513H129.281V75.4199Z" fill="#303045"/>
<path d="M133.542 78.1302C133.542 76.5354 133.828 75.2862 134.399 74.3828C134.98 73.4794 135.939 73.0277 137.276 73.0277C138.612 73.0277 139.566 73.4794 140.138 74.3828C140.719 75.2862 141.009 76.5354 141.009 78.1302C141.009 79.7343 140.719 80.9926 140.138 81.9053C139.566 82.818 138.612 83.2743 137.276 83.2743C135.939 83.2743 134.98 82.818 134.399 81.9053C133.828 80.9926 133.542 79.7343 133.542 78.1302ZM139.101 78.1302C139.101 77.448 139.055 76.8765 138.963 76.4155C138.88 75.9454 138.704 75.5628 138.437 75.2678C138.179 74.9728 137.792 74.8253 137.276 74.8253C136.759 74.8253 136.368 74.9728 136.1 75.2678C135.842 75.5628 135.667 75.9454 135.575 76.4155C135.492 76.8765 135.45 77.448 135.45 78.1302C135.45 78.8309 135.492 79.4209 135.575 79.9002C135.658 80.3704 135.833 80.753 136.1 81.048C136.368 81.3337 136.759 81.4766 137.276 81.4766C137.792 81.4766 138.184 81.3337 138.451 81.048C138.718 80.753 138.893 80.3704 138.976 79.9002C139.059 79.4209 139.101 78.8309 139.101 78.1302Z" fill="#303045"/>
<path d="M180.044 76.6368C180.044 77.153 179.92 77.637 179.671 78.0887C179.431 78.5405 179.049 78.9046 178.523 79.1812C178.007 79.4577 177.353 79.596 176.56 79.596H174.942V83.3019H173.006V73.6499H176.56C177.306 73.6499 177.943 73.779 178.468 74.0371C178.993 74.2952 179.385 74.6502 179.643 75.1019C179.911 75.5536 180.044 76.0652 180.044 76.6368ZM176.477 78.0334C177.011 78.0334 177.408 77.9136 177.666 77.6739C177.924 77.425 178.053 77.0793 178.053 76.6368C178.053 75.6965 177.528 75.2263 176.477 75.2263H174.942V78.0334H176.477Z" fill="#303045"/>
<path d="M191.942 73.6499V83.3019H190.006V77.024L187.42 83.3019H185.955L183.355 77.024V83.3019H181.419V73.6499H183.618L186.687 80.8267L189.757 73.6499H191.942Z" fill="#303045"/>
</g>
<g opacity="0.75">
<path d="M48.973 22.8478H46.7827V24.1957H48.8045V39.0217H29.9349V24.1957H31.9567V22.8478H29.7664C29.6089 22.8505 29.4534 22.8841 29.3089 22.9468C29.1644 23.0096 29.0336 23.1001 28.9241 23.2134C28.8146 23.3267 28.7284 23.4604 28.6706 23.607C28.6128 23.7536 28.5844 23.9101 28.5871 24.0676V39.1498C28.5844 39.3073 28.6128 39.4638 28.6706 39.6104C28.7284 39.757 28.8146 39.8907 28.9241 40.004C29.0336 40.1172 29.1644 40.2078 29.3089 40.2706C29.4534 40.3333 29.6089 40.3669 29.7664 40.3696H48.973C49.1305 40.3669 49.286 40.3333 49.4305 40.2706C49.575 40.2078 49.7058 40.1172 49.8153 40.004C49.9248 39.8907 50.011 39.757 50.0688 39.6104C50.1266 39.4638 50.155 39.3073 50.1523 39.1498V24.0676C50.155 23.9101 50.1266 23.7536 50.0688 23.607C50.011 23.4604 49.9248 23.3267 49.8153 23.2134C49.7058 23.1001 49.575 23.0096 49.4305 22.9468C49.286 22.8841 49.1305 22.8505 48.973 22.8478Z" fill="#0FA958"/>
<path d="M32.6306 28.2391H33.9784V29.587H32.6306V28.2391Z" fill="#0FA958"/>
<path d="M36.674 28.2391H38.0219V29.587H36.674V28.2391Z" fill="#0FA958"/>
<path d="M40.7175 28.2391H42.0653V29.587H40.7175V28.2391Z" fill="#0FA958"/>
<path d="M44.761 28.2391H46.1088V29.587H44.761V28.2391Z" fill="#0FA958"/>
<path d="M32.6306 31.6087H33.9784V32.9565H32.6306V31.6087Z" fill="#0FA958"/>
<path d="M36.674 31.6087H38.0219V32.9565H36.674V31.6087Z" fill="#0FA958"/>
<path d="M40.7175 31.6087H42.0653V32.9565H40.7175V31.6087Z" fill="#0FA958"/>
<path d="M44.761 31.6087H46.1088V32.9565H44.761V31.6087Z" fill="#0FA958"/>
<path d="M32.6306 34.9783H33.9784V36.3261H32.6306V34.9783Z" fill="#0FA958"/>
<path d="M36.674 34.9783H38.0219V36.3261H36.674V34.9783Z" fill="#0FA958"/>
<path d="M40.7175 34.9783H42.0653V36.3261H40.7175V34.9783Z" fill="#0FA958"/>
<path d="M44.761 34.9783H46.1088V36.3261H44.761V34.9783Z" fill="#0FA958"/>
<path d="M33.9784 25.5435C34.1571 25.5435 34.3285 25.4725 34.4549 25.3461C34.5813 25.2197 34.6523 25.0483 34.6523 24.8696V20.8261C34.6523 20.6474 34.5813 20.4759 34.4549 20.3496C34.3285 20.2232 34.1571 20.1522 33.9784 20.1522C33.7997 20.1522 33.6282 20.2232 33.5019 20.3496C33.3755 20.4759 33.3045 20.6474 33.3045 20.8261V24.8696C33.3045 25.0483 33.3755 25.2197 33.5019 25.3461C33.6282 25.4725 33.7997 25.5435 33.9784 25.5435Z" fill="#0FA958"/>
<path d="M44.761 25.5435C44.9397 25.5435 45.1111 25.4725 45.2375 25.3461C45.3639 25.2197 45.4349 25.0483 45.4349 24.8696V20.8261C45.4349 20.6474 45.3639 20.4759 45.2375 20.3496C45.1111 20.2232 44.9397 20.1522 44.761 20.1522C44.5823 20.1522 44.4108 20.2232 44.2845 20.3496C44.1581 20.4759 44.0871 20.6474 44.0871 20.8261V24.8696C44.0871 25.0483 44.1581 25.2197 44.2845 25.3461C44.4108 25.4725 44.5823 25.5435 44.761 25.5435Z" fill="#0FA958"/>
<path d="M36.0001 22.8478H42.7393V24.1957H36.0001V22.8478Z" fill="#0FA958"/>
<path d="M57.3199 35.3233C57.3199 34.3906 57.487 33.6601 57.8213 33.1317C58.1609 32.6034 58.7216 32.3392 59.5033 32.3392C60.2851 32.3392 60.8431 32.6034 61.1774 33.1317C61.517 33.6601 61.6868 34.3906 61.6868 35.3233C61.6868 36.2614 61.517 36.9973 61.1774 37.531C60.8431 38.0648 60.2851 38.3317 59.5033 38.3317C58.7216 38.3317 58.1609 38.0648 57.8213 37.531C57.487 36.9973 57.3199 36.2614 57.3199 35.3233ZM60.5708 35.3233C60.5708 34.9243 60.5439 34.5901 60.49 34.3205C60.4414 34.0456 60.339 33.8218 60.1827 33.6493C60.0317 33.4768 59.8053 33.3905 59.5033 33.3905C59.2014 33.3905 58.9723 33.4768 58.816 33.6493C58.665 33.8218 58.5626 34.0456 58.5087 34.3205C58.4601 34.5901 58.4359 34.9243 58.4359 35.3233C58.4359 35.733 58.4601 36.0781 58.5087 36.3584C58.5572 36.6334 58.6596 36.8571 58.816 37.0297C58.9723 37.1968 59.2014 37.2804 59.5033 37.2804C59.8053 37.2804 60.0344 37.1968 60.1907 37.0297C60.3471 36.8571 60.4495 36.6334 60.498 36.3584C60.5466 36.0781 60.5708 35.733 60.5708 35.3233Z" fill="#303045"/>
<path d="M62.4105 33.4957V32.4524H64.3594V38.3478H63.1949V33.4957H62.4105Z" fill="#303045"/>
<path d="M70.9955 37.2723H68.7473L68.3753 38.3478H67.1865L69.2164 32.695H70.5345L72.5644 38.3478H71.3675L70.9955 37.2723ZM70.6882 36.3665L69.8714 34.0051L69.0546 36.3665H70.6882Z" fill="#303045"/>
<path d="M74.4553 34.5146C74.6008 34.3097 74.8003 34.1399 75.0537 34.0051C75.3125 33.865 75.6063 33.7949 75.9352 33.7949C76.3179 33.7949 76.663 33.8892 76.9703 34.0779C77.283 34.2666 77.5283 34.5362 77.7062 34.8866C77.8895 35.2317 77.9812 35.6333 77.9812 36.0916C77.9812 36.5498 77.8895 36.9569 77.7062 37.3127C77.5283 37.6631 77.283 37.9354 76.9703 38.1295C76.663 38.3236 76.3179 38.4206 75.9352 38.4206C75.6063 38.4206 75.3152 38.3532 75.0618 38.2184C74.8138 38.0837 74.6116 37.9138 74.4553 37.709V40.4828H73.3231V33.8677H74.4553V34.5146ZM76.8247 36.0916C76.8247 35.822 76.7681 35.5902 76.6549 35.3961C76.5471 35.1966 76.4015 35.0457 76.2182 34.9432C76.0403 34.8408 75.8462 34.7896 75.6359 34.7896C75.4311 34.7896 75.237 34.8435 75.0537 34.9513C74.8758 35.0537 74.7302 35.2047 74.617 35.4042C74.5092 35.6037 74.4553 35.8382 74.4553 36.1077C74.4553 36.3773 74.5092 36.6118 74.617 36.8113C74.7302 37.0108 74.8758 37.1644 75.0537 37.2723C75.237 37.3747 75.4311 37.4259 75.6359 37.4259C75.8462 37.4259 76.0403 37.372 76.2182 37.2642C76.4015 37.1564 76.5471 37.0027 76.6549 36.8032C76.7681 36.6037 76.8247 36.3665 76.8247 36.0916Z" fill="#303045"/>
<path d="M79.9361 34.5631C80.0816 34.3259 80.2703 34.1399 80.5021 34.0051C80.7394 33.8703 81.0089 33.803 81.3108 33.803V34.9917H81.0116C80.6558 34.9917 80.3862 35.0753 80.2029 35.2424C80.025 35.4096 79.9361 35.7007 79.9361 36.1158V38.3478H78.8039V33.8677H79.9361V34.5631Z" fill="#303045"/>
<path d="M82.6476 33.3339C82.4481 33.3339 82.281 33.2719 82.1462 33.1479C82.0168 33.0185 81.9521 32.8595 81.9521 32.6708C81.9521 32.4821 82.0168 32.3257 82.1462 32.2017C82.281 32.0723 82.4481 32.0077 82.6476 32.0077C82.8471 32.0077 83.0115 32.0723 83.1409 32.2017C83.2757 32.3257 83.3431 32.4821 83.3431 32.6708C83.3431 32.8595 83.2757 33.0185 83.1409 33.1479C83.0115 33.2719 82.8471 33.3339 82.6476 33.3339ZM83.2056 33.8677V38.3478H82.0734V33.8677H83.2056Z" fill="#303045"/>
<path d="M85.4564 32.3635V38.3478H84.3242V32.3635H85.4564Z" fill="#303045"/>
<path d="M88.7283 37.0701C89.2459 36.6388 89.6583 36.2803 89.9657 35.9945C90.273 35.7034 90.529 35.4015 90.7339 35.0888C90.9388 34.7761 91.0412 34.4688 91.0412 34.1669C91.0412 33.8919 90.9765 33.6763 90.8471 33.5199C90.7177 33.3636 90.5183 33.2854 90.2487 33.2854C89.9791 33.2854 89.7716 33.377 89.626 33.5604C89.4804 33.7383 89.405 33.9836 89.3996 34.2963H88.2997C88.3213 33.6493 88.5127 33.1587 88.8739 32.8244C89.2405 32.4902 89.7042 32.323 90.2649 32.323C90.8795 32.323 91.3512 32.4875 91.6801 32.8164C92.009 33.1398 92.1734 33.5684 92.1734 34.1022C92.1734 34.5227 92.0602 34.9243 91.8337 35.3071C91.6073 35.6899 91.3485 36.0242 91.0574 36.3099C90.7663 36.5903 90.3862 36.9299 89.9171 37.3289H92.3028V38.267H88.3078V37.4259L88.7283 37.0701Z" fill="#303045"/>
<path d="M93.0162 35.3233C93.0162 34.3906 93.1833 33.6601 93.5176 33.1317C93.8572 32.6034 94.4179 32.3392 95.1997 32.3392C95.9814 32.3392 96.5394 32.6034 96.8737 33.1317C97.2133 33.6601 97.3832 34.3906 97.3832 35.3233C97.3832 36.2614 97.2133 36.9973 96.8737 37.531C96.5394 38.0648 95.9814 38.3317 95.1997 38.3317C94.4179 38.3317 93.8572 38.0648 93.5176 37.531C93.1833 36.9973 93.0162 36.2614 93.0162 35.3233ZM96.2672 35.3233C96.2672 34.9243 96.2402 34.5901 96.1863 34.3205C96.1378 34.0456 96.0353 33.8218 95.879 33.6493C95.728 33.4768 95.5016 33.3905 95.1997 33.3905C94.8978 33.3905 94.6686 33.4768 94.5123 33.6493C94.3613 33.8218 94.2589 34.0456 94.205 34.3205C94.1565 34.5901 94.1322 34.9243 94.1322 35.3233C94.1322 35.733 94.1565 36.0781 94.205 36.3584C94.2535 36.6334 94.3559 36.8571 94.5123 37.0297C94.6686 37.1968 94.8978 37.2804 95.1997 37.2804C95.5016 37.2804 95.7307 37.1968 95.8871 37.0297C96.0434 36.8571 96.1459 36.6334 96.1944 36.3584C96.2429 36.0781 96.2672 35.733 96.2672 35.3233Z" fill="#303045"/>
<path d="M98.6001 37.0701C99.1177 36.6388 99.5301 36.2803 99.8374 35.9945C100.145 35.7034 100.401 35.4015 100.606 35.0888C100.811 34.7761 100.913 34.4688 100.913 34.1669C100.913 33.8919 100.848 33.6763 100.719 33.5199C100.59 33.3636 100.39 33.2854 100.12 33.2854C99.8509 33.2854 99.6433 33.377 99.4978 33.5604C99.3522 33.7383 99.2767 33.9836 99.2713 34.2963H98.1715C98.1931 33.6493 98.3845 33.1587 98.7457 32.8244C99.1123 32.4902 99.5759 32.323 100.137 32.323C100.751 32.323 101.223 32.4875 101.552 32.8164C101.881 33.1398 102.045 33.5684 102.045 34.1022C102.045 34.5227 101.932 34.9243 101.706 35.3071C101.479 35.6899 101.22 36.0242 100.929 36.3099C100.638 36.5903 100.258 36.9299 99.7889 37.3289H102.175V38.267H98.1796V37.4259L98.6001 37.0701Z" fill="#303045"/>
<path d="M103.244 37.0701C103.761 36.6388 104.174 36.2803 104.481 35.9945C104.788 35.7034 105.044 35.4015 105.249 35.0888C105.454 34.7761 105.557 34.4688 105.557 34.1669C105.557 33.8919 105.492 33.6763 105.363 33.5199C105.233 33.3636 105.034 33.2854 104.764 33.2854C104.495 33.2854 104.287 33.377 104.141 33.5604C103.996 33.7383 103.92 33.9836 103.915 34.2963H102.815C102.837 33.6493 103.028 33.1587 103.389 32.8244C103.756 32.4902 104.22 32.323 104.78 32.323C105.395 32.323 105.867 32.4875 106.196 32.8164C106.524 33.1398 106.689 33.5684 106.689 34.1022C106.689 34.5227 106.576 34.9243 106.349 35.3071C106.123 35.6899 105.864 36.0242 105.573 36.3099C105.282 36.5903 104.902 36.9299 104.433 37.3289H106.818V38.267H102.823V37.4259L103.244 37.0701Z" fill="#303045"/>
<path d="M59.436 23.0904V23.4894H57.7754V24.8049H59.1826V25.1877H57.7754V26.8913H57.2848V23.0904H59.436Z" fill="#303045"/>
<path d="M60.5079 24.5299C60.605 24.325 60.747 24.1669 60.9339 24.0555C61.1208 23.9405 61.3436 23.883 61.6024 23.883V24.4167H61.4514C61.1747 24.4167 60.9482 24.4886 60.7721 24.6323C60.596 24.7725 60.5079 25.0061 60.5079 25.3332V26.8913H60.0173V23.9315H60.5079V24.5299Z" fill="#303045"/>
<path d="M63.4289 23.8937C63.7128 23.8937 63.9662 23.9548 64.1891 24.077C64.4155 24.1992 64.5916 24.3754 64.7174 24.6054C64.8468 24.8354 64.9115 25.105 64.9115 25.4141C64.9115 25.7232 64.8468 25.9928 64.7174 26.2228C64.5916 26.4492 64.4155 26.6235 64.1891 26.7457C63.9662 26.8679 63.7128 26.929 63.4289 26.929C63.145 26.929 62.8898 26.8679 62.6633 26.7457C62.4405 26.6235 62.2644 26.4492 62.135 26.2228C62.0056 25.9928 61.9409 25.7232 61.9409 25.4141C61.9409 25.105 62.0056 24.8354 62.135 24.6054C62.2644 24.3754 62.4405 24.1992 62.6633 24.077C62.8898 23.9548 63.145 23.8937 63.4289 23.8937ZM63.4289 24.325C63.2528 24.325 63.0892 24.3646 62.9383 24.4437C62.7909 24.5227 62.6705 24.6449 62.5771 24.8103C62.4872 24.972 62.4423 25.1733 62.4423 25.4141C62.4423 25.6513 62.4872 25.8526 62.5771 26.0179C62.6705 26.1797 62.7909 26.3001 62.9383 26.3791C63.0892 26.4582 63.2528 26.4977 63.4289 26.4977C63.605 26.4977 63.7667 26.4582 63.9141 26.3791C64.0651 26.3001 64.1855 26.1797 64.2753 26.0179C64.3688 25.8526 64.4155 25.6513 64.4155 25.4141C64.4155 25.1733 64.3688 24.972 64.2753 24.8103C64.1855 24.6449 64.0651 24.5227 63.9141 24.4437C63.7667 24.3646 63.605 24.325 63.4289 24.325Z" fill="#303045"/>
<path d="M69.1899 23.883C69.535 23.883 69.8117 23.9944 70.0202 24.2172C70.2322 24.4365 70.3383 24.7546 70.3383 25.1715V26.8913H69.8477V25.2146C69.8477 24.9235 69.7758 24.7006 69.632 24.5461C69.4918 24.3915 69.2977 24.3143 69.0498 24.3143C68.791 24.3143 68.5825 24.4005 68.4244 24.573C68.2698 24.742 68.1925 24.9918 68.1925 25.3224V26.8913H67.7019V25.2146C67.7019 24.9235 67.63 24.7006 67.4863 24.5461C67.3425 24.3915 67.1484 24.3143 66.904 24.3143C66.6416 24.3143 66.4314 24.4005 66.2732 24.573C66.1187 24.742 66.0414 24.9918 66.0414 25.3224V26.8913H65.5508V23.9315H66.0414V24.6054C66.1133 24.3718 66.2409 24.1939 66.4242 24.0717C66.6111 23.9459 66.8249 23.883 67.0657 23.883C67.3173 23.883 67.5348 23.9477 67.7181 24.077C67.905 24.2028 68.038 24.3897 68.1171 24.6377C68.1997 24.3969 68.3381 24.2118 68.5322 24.0824C68.7263 23.9495 68.9455 23.883 69.1899 23.883Z" fill="#303045"/>
<path d="M75.6345 24.9882C75.6345 25.3728 75.5572 25.7088 75.4027 25.9963C75.2481 26.2803 75.0199 26.5013 74.718 26.6595C74.4197 26.814 74.0603 26.8913 73.6397 26.8913H72.4321V23.0904H73.6397C74.0603 23.0904 74.4197 23.1677 74.718 23.3223C75.0199 23.4732 75.2481 23.6925 75.4027 23.98C75.5572 24.2639 75.6345 24.6 75.6345 24.9882ZM73.602 26.4492C74.098 26.4492 74.4772 26.3216 74.7396 26.0664C75.0019 25.8112 75.1331 25.4518 75.1331 24.9882C75.1331 24.5245 75.0019 24.1651 74.7396 23.9099C74.4808 23.6511 74.1016 23.5217 73.602 23.5217H72.9227V26.4492H73.602Z" fill="#303045"/>
<path d="M77.5096 23.8937C77.7971 23.8937 78.0397 23.9656 78.2374 24.1094C78.4387 24.2532 78.5789 24.4455 78.6579 24.6863V23.9315H79.1485V26.8913H78.6579V26.1365C78.5789 26.3773 78.4387 26.5696 78.2374 26.7134C78.0397 26.8572 77.7971 26.929 77.5096 26.929C77.2472 26.929 77.0136 26.8679 76.8087 26.7457C76.6039 26.6235 76.4421 26.4492 76.3235 26.2228C76.2085 25.9928 76.151 25.7232 76.151 25.4141C76.151 25.105 76.2085 24.8354 76.3235 24.6054C76.4421 24.3754 76.6039 24.1992 76.8087 24.077C77.0136 23.9548 77.2472 23.8937 77.5096 23.8937ZM77.6498 24.3304C77.3479 24.3304 77.1052 24.4275 76.9219 24.6216C76.7422 24.8121 76.6524 25.0762 76.6524 25.4141C76.6524 25.7519 76.7422 26.0179 76.9219 26.212C77.1052 26.4025 77.3479 26.4977 77.6498 26.4977C77.8439 26.4977 78.0164 26.4528 78.1673 26.363C78.3219 26.2731 78.4423 26.1473 78.5285 25.9856C78.6148 25.8202 78.6579 25.6297 78.6579 25.4141C78.6579 25.1984 78.6148 25.0079 78.5285 24.8426C78.4423 24.6773 78.3219 24.5515 78.1673 24.4652C78.0164 24.3754 77.8439 24.3304 77.6498 24.3304Z" fill="#303045"/>
<path d="M81.3419 26.46V26.8913H80.9753C80.6734 26.8913 80.4469 26.8194 80.296 26.6757C80.1486 26.5319 80.0749 26.2911 80.0749 25.9532V24.3574H79.6328V23.9315H80.0749V23.1929H80.5709V23.9315H81.3365V24.3574H80.5709V25.964C80.5709 26.1545 80.6051 26.2857 80.6734 26.3576C80.7452 26.4259 80.8674 26.46 81.04 26.46H81.3419Z" fill="#303045"/>
<path d="M84.6632 25.247C84.6632 25.3512 84.656 25.441 84.6416 25.5165H82.2748C82.2856 25.8544 82.3809 26.1078 82.5606 26.2767C82.7439 26.4456 82.9667 26.5301 83.2291 26.5301C83.4663 26.5301 83.664 26.4708 83.8221 26.3522C83.9839 26.23 84.0827 26.0682 84.1187 25.867H84.6416C84.6057 26.0718 84.5248 26.2551 84.399 26.4169C84.2768 26.5786 84.1169 26.7044 83.9192 26.7943C83.7215 26.8841 83.4987 26.929 83.2507 26.929C82.9667 26.929 82.7151 26.8679 82.4959 26.7457C82.2766 26.6235 82.1041 26.4492 81.9783 26.2228C81.8561 25.9928 81.795 25.7232 81.795 25.4141C81.795 25.105 81.8561 24.8354 81.9783 24.6054C82.1041 24.3754 82.2766 24.1992 82.4959 24.077C82.7151 23.9548 82.9667 23.8937 83.2507 23.8937C83.5382 23.8937 83.788 23.9548 84 24.077C84.2157 24.1992 84.3792 24.3628 84.4907 24.5677C84.6057 24.7725 84.6632 24.999 84.6632 25.247ZM84.1672 25.2793C84.178 25.0601 84.142 24.8768 84.0593 24.7294C83.9767 24.582 83.8635 24.4724 83.7197 24.4005C83.5759 24.3286 83.4196 24.2927 83.2507 24.2927C82.9811 24.2927 82.7547 24.3772 82.5713 24.5461C82.388 24.7114 82.2892 24.9558 82.2748 25.2793H84.1672Z" fill="#303045"/>
</g>
<g opacity="0.75">
<path d="M191.843 22.8478H189.652V24.1957H191.674V39.0217H172.805V24.1957H174.826V22.8478H172.636C172.479 22.8505 172.323 22.8841 172.179 22.9468C172.034 23.0096 171.903 23.1001 171.794 23.2134C171.684 23.3267 171.598 23.4604 171.54 23.607C171.482 23.7536 171.454 23.9101 171.457 24.0676V39.1498C171.454 39.3073 171.482 39.4638 171.54 39.6104C171.598 39.757 171.684 39.8907 171.794 40.004C171.903 40.1172 172.034 40.2078 172.179 40.2706C172.323 40.3333 172.479 40.3669 172.636 40.3696H191.843C192 40.3669 192.156 40.3333 192.3 40.2706C192.445 40.2078 192.575 40.1172 192.685 40.004C192.794 39.8907 192.881 39.757 192.938 39.6104C192.996 39.4638 193.025 39.3073 193.022 39.1498V24.0676C193.025 23.9101 192.996 23.7536 192.938 23.607C192.881 23.4604 192.794 23.3267 192.685 23.2134C192.575 23.1001 192.445 23.0096 192.3 22.9468C192.156 22.8841 192 22.8505 191.843 22.8478Z" fill="#0FA958"/>
<path d="M175.5 28.2391H176.848V29.587H175.5V28.2391Z" fill="#0FA958"/>
<path d="M179.544 28.2391H180.891V29.587H179.544V28.2391Z" fill="#0FA958"/>
<path d="M183.587 28.2391H184.935V29.587H183.587V28.2391Z" fill="#0FA958"/>
<path d="M187.631 28.2391H188.978V29.587H187.631V28.2391Z" fill="#0FA958"/>
<path d="M175.5 31.6087H176.848V32.9565H175.5V31.6087Z" fill="#0FA958"/>
<path d="M179.544 31.6087H180.891V32.9565H179.544V31.6087Z" fill="#0FA958"/>
<path d="M183.587 31.6087H184.935V32.9565H183.587V31.6087Z" fill="#0FA958"/>
<path d="M187.631 31.6087H188.978V32.9565H187.631V31.6087Z" fill="#0FA958"/>
<path d="M175.5 34.9783H176.848V36.3261H175.5V34.9783Z" fill="#0FA958"/>
<path d="M179.544 34.9783H180.891V36.3261H179.544V34.9783Z" fill="#0FA958"/>
<path d="M183.587 34.9783H184.935V36.3261H183.587V34.9783Z" fill="#0FA958"/>
<path d="M187.631 34.9783H188.978V36.3261H187.631V34.9783Z" fill="#0FA958"/>
<path d="M176.848 25.5435C177.027 25.5435 177.198 25.4725 177.325 25.3461C177.451 25.2197 177.522 25.0483 177.522 24.8696V20.8261C177.522 20.6474 177.451 20.4759 177.325 20.3496C177.198 20.2232 177.027 20.1522 176.848 20.1522C176.669 20.1522 176.498 20.2232 176.371 20.3496C176.245 20.4759 176.174 20.6474 176.174 20.8261V24.8696C176.174 25.0483 176.245 25.2197 176.371 25.3461C176.498 25.4725 176.669 25.5435 176.848 25.5435Z" fill="#0FA958"/>
<path d="M187.631 25.5435C187.809 25.5435 187.981 25.4725 188.107 25.3461C188.234 25.2197 188.305 25.0483 188.305 24.8696V20.8261C188.305 20.6474 188.234 20.4759 188.107 20.3496C187.981 20.2232 187.809 20.1522 187.631 20.1522C187.452 20.1522 187.28 20.2232 187.154 20.3496C187.028 20.4759 186.957 20.6474 186.957 20.8261V24.8696C186.957 25.0483 187.028 25.2197 187.154 25.3461C187.28 25.4725 187.452 25.5435 187.631 25.5435Z" fill="#0FA958"/>
<path d="M178.87 22.8478H185.609V24.1957H178.87V22.8478Z" fill="#0FA958"/>
<path d="M200.19 35.3233C200.19 34.3906 200.357 33.6601 200.691 33.1317C201.031 32.6034 201.591 32.3392 202.373 32.3392C203.155 32.3392 203.713 32.6034 204.047 33.1317C204.387 33.6601 204.556 34.3906 204.556 35.3233C204.556 36.2614 204.387 36.9973 204.047 37.531C203.713 38.0648 203.155 38.3317 202.373 38.3317C201.591 38.3317 201.031 38.0648 200.691 37.531C200.357 36.9973 200.19 36.2614 200.19 35.3233ZM203.44 35.3233C203.44 34.9243 203.414 34.5901 203.36 34.3205C203.311 34.0456 203.209 33.8218 203.052 33.6493C202.901 33.4768 202.675 33.3905 202.373 33.3905C202.071 33.3905 201.842 33.4768 201.686 33.6493C201.535 33.8218 201.432 34.0456 201.378 34.3205C201.33 34.5901 201.306 34.9243 201.306 35.3233C201.306 35.733 201.33 36.0781 201.378 36.3584C201.427 36.6334 201.529 36.8571 201.686 37.0297C201.842 37.1968 202.071 37.2804 202.373 37.2804C202.675 37.2804 202.904 37.1968 203.06 37.0297C203.217 36.8571 203.319 36.6334 203.368 36.3584C203.416 36.0781 203.44 35.733 203.44 35.3233Z" fill="#303045"/>
<path d="M205.28 33.4957V32.4524H207.229V38.3478H206.065V33.4957H205.28Z" fill="#303045"/>
<path d="M213.865 37.2723H211.617L211.245 38.3478H210.056L212.086 32.695H213.404L215.434 38.3478H214.237L213.865 37.2723ZM213.558 36.3665L212.741 34.0051L211.924 36.3665H213.558Z" fill="#303045"/>
<path d="M217.325 34.5146C217.47 34.3097 217.67 34.1399 217.923 34.0051C218.182 33.865 218.476 33.7949 218.805 33.7949C219.188 33.7949 219.533 33.8892 219.84 34.0779C220.153 34.2666 220.398 34.5362 220.576 34.8866C220.759 35.2317 220.851 35.6333 220.851 36.0916C220.851 36.5498 220.759 36.9569 220.576 37.3127C220.398 37.6631 220.153 37.9354 219.84 38.1295C219.533 38.3236 219.188 38.4206 218.805 38.4206C218.476 38.4206 218.185 38.3532 217.931 38.2184C217.683 38.0837 217.481 37.9138 217.325 37.709V40.4828H216.193V33.8677H217.325V34.5146ZM219.694 36.0916C219.694 35.822 219.638 35.5902 219.525 35.3961C219.417 35.1966 219.271 35.0457 219.088 34.9432C218.91 34.8408 218.716 34.7896 218.506 34.7896C218.301 34.7896 218.107 34.8435 217.923 34.9513C217.745 35.0537 217.6 35.2047 217.487 35.4042C217.379 35.6037 217.325 35.8382 217.325 36.1077C217.325 36.3773 217.379 36.6118 217.487 36.8113C217.6 37.0108 217.745 37.1644 217.923 37.2723C218.107 37.3747 218.301 37.4259 218.506 37.4259C218.716 37.4259 218.91 37.372 219.088 37.2642C219.271 37.1564 219.417 37.0027 219.525 36.8032C219.638 36.6037 219.694 36.3665 219.694 36.0916Z" fill="#303045"/>
<path d="M222.806 34.5631C222.951 34.3259 223.14 34.1399 223.372 34.0051C223.609 33.8703 223.879 33.803 224.18 33.803V34.9917H223.881C223.525 34.9917 223.256 35.0753 223.073 35.2424C222.895 35.4096 222.806 35.7007 222.806 36.1158V38.3478H221.674V33.8677H222.806V34.5631Z" fill="#303045"/>
<path d="M225.517 33.3339C225.318 33.3339 225.151 33.2719 225.016 33.1479C224.886 33.0185 224.822 32.8595 224.822 32.6708C224.822 32.4821 224.886 32.3257 225.016 32.2017C225.151 32.0723 225.318 32.0077 225.517 32.0077C225.717 32.0077 225.881 32.0723 226.011 32.2017C226.145 32.3257 226.213 32.4821 226.213 32.6708C226.213 32.8595 226.145 33.0185 226.011 33.1479C225.881 33.2719 225.717 33.3339 225.517 33.3339ZM226.075 33.8677V38.3478H224.943V33.8677H226.075Z" fill="#303045"/>
<path d="M228.326 32.3635V38.3478H227.194V32.3635H228.326Z" fill="#303045"/>
<path d="M231.598 37.0701C232.116 36.6388 232.528 36.2803 232.835 35.9945C233.143 35.7034 233.399 35.4015 233.604 35.0888C233.808 34.7761 233.911 34.4688 233.911 34.1669C233.911 33.8919 233.846 33.6763 233.717 33.5199C233.587 33.3636 233.388 33.2854 233.118 33.2854C232.849 33.2854 232.641 33.377 232.496 33.5604C232.35 33.7383 232.275 33.9836 232.269 34.2963H231.169C231.191 33.6493 231.382 33.1587 231.744 32.8244C232.11 32.4902 232.574 32.323 233.134 32.323C233.749 32.323 234.221 32.4875 234.55 32.8164C234.879 33.1398 235.043 33.5684 235.043 34.1022C235.043 34.5227 234.93 34.9243 234.703 35.3071C234.477 35.6899 234.218 36.0242 233.927 36.3099C233.636 36.5903 233.256 36.9299 232.787 37.3289H235.172V38.267H231.177V37.4259L231.598 37.0701Z" fill="#303045"/>
<path d="M235.886 35.3233C235.886 34.3906 236.053 33.6601 236.387 33.1317C236.727 32.6034 237.288 32.3392 238.069 32.3392C238.851 32.3392 239.409 32.6034 239.743 33.1317C240.083 33.6601 240.253 34.3906 240.253 35.3233C240.253 36.2614 240.083 36.9973 239.743 37.531C239.409 38.0648 238.851 38.3317 238.069 38.3317C237.288 38.3317 236.727 38.0648 236.387 37.531C236.053 36.9973 235.886 36.2614 235.886 35.3233ZM239.137 35.3233C239.137 34.9243 239.11 34.5901 239.056 34.3205C239.007 34.0456 238.905 33.8218 238.749 33.6493C238.598 33.4768 238.371 33.3905 238.069 33.3905C237.767 33.3905 237.538 33.4768 237.382 33.6493C237.231 33.8218 237.129 34.0456 237.075 34.3205C237.026 34.5901 237.002 34.9243 237.002 35.3233C237.002 35.733 237.026 36.0781 237.075 36.3584C237.123 36.6334 237.226 36.8571 237.382 37.0297C237.538 37.1968 237.767 37.2804 238.069 37.2804C238.371 37.2804 238.6 37.1968 238.757 37.0297C238.913 36.8571 239.015 36.6334 239.064 36.3584C239.113 36.0781 239.137 35.733 239.137 35.3233Z" fill="#303045"/>
<path d="M241.47 37.0701C241.987 36.6388 242.4 36.2803 242.707 35.9945C243.014 35.7034 243.27 35.4015 243.475 35.0888C243.68 34.7761 243.783 34.4688 243.783 34.1669C243.783 33.8919 243.718 33.6763 243.589 33.5199C243.459 33.3636 243.26 33.2854 242.99 33.2854C242.721 33.2854 242.513 33.377 242.367 33.5604C242.222 33.7383 242.146 33.9836 242.141 34.2963H241.041C241.063 33.6493 241.254 33.1587 241.615 32.8244C241.982 32.4902 242.446 32.323 243.006 32.323C243.621 32.323 244.093 32.4875 244.421 32.8164C244.75 33.1398 244.915 33.5684 244.915 34.1022C244.915 34.5227 244.802 34.9243 244.575 35.3071C244.349 35.6899 244.09 36.0242 243.799 36.3099C243.508 36.5903 243.128 36.9299 242.659 37.3289H245.044V38.267H241.049V37.4259L241.47 37.0701Z" fill="#303045"/>
<path d="M246.113 37.0701C246.631 36.6388 247.043 36.2803 247.351 35.9945C247.658 35.7034 247.914 35.4015 248.119 35.0888C248.324 34.7761 248.426 34.4688 248.426 34.1669C248.426 33.8919 248.362 33.6763 248.232 33.5199C248.103 33.3636 247.903 33.2854 247.634 33.2854C247.364 33.2854 247.157 33.377 247.011 33.5604C246.866 33.7383 246.79 33.9836 246.785 34.2963H245.685C245.706 33.6493 245.898 33.1587 246.259 32.8244C246.626 32.4902 247.089 32.323 247.65 32.323C248.265 32.323 248.736 32.4875 249.065 32.8164C249.394 33.1398 249.558 33.5684 249.558 34.1022C249.558 34.5227 249.445 34.9243 249.219 35.3071C248.992 35.6899 248.734 36.0242 248.442 36.3099C248.151 36.5903 247.771 36.9299 247.302 37.3289H249.688V38.267H245.693V37.4259L246.113 37.0701Z" fill="#303045"/>
<path d="M202.484 23.0904V23.4894H201.411V26.8913H200.92V23.4894H199.847V23.0904H202.484Z" fill="#303045"/>
<path d="M204.314 23.8937C204.598 23.8937 204.851 23.9548 205.074 24.077C205.3 24.1992 205.476 24.3754 205.602 24.6054C205.732 24.8354 205.796 25.105 205.796 25.4141C205.796 25.7232 205.732 25.9928 205.602 26.2228C205.476 26.4492 205.3 26.6235 205.074 26.7457C204.851 26.8679 204.598 26.929 204.314 26.929C204.03 26.929 203.775 26.8679 203.548 26.7457C203.325 26.6235 203.149 26.4492 203.02 26.2228C202.89 25.9928 202.826 25.7232 202.826 25.4141C202.826 25.105 202.89 24.8354 203.02 24.6054C203.149 24.3754 203.325 24.1992 203.548 24.077C203.775 23.9548 204.03 23.8937 204.314 23.8937ZM204.314 24.325C204.138 24.325 203.974 24.3646 203.823 24.4437C203.676 24.5227 203.555 24.6449 203.462 24.8103C203.372 24.972 203.327 25.1733 203.327 25.4141C203.327 25.6513 203.372 25.8526 203.462 26.0179C203.555 26.1797 203.676 26.3001 203.823 26.3791C203.974 26.4582 204.138 26.4977 204.314 26.4977C204.49 26.4977 204.651 26.4582 204.799 26.3791C204.95 26.3001 205.07 26.1797 205.16 26.0179C205.254 25.8526 205.3 25.6513 205.3 25.4141C205.3 25.1733 205.254 24.972 205.16 24.8103C205.07 24.6449 204.95 24.5227 204.799 24.4437C204.651 24.3646 204.49 24.325 204.314 24.325Z" fill="#303045"/>
<path d="M210.97 24.9882C210.97 25.3728 210.893 25.7088 210.738 25.9963C210.584 26.2803 210.355 26.5013 210.053 26.6595C209.755 26.814 209.396 26.8913 208.975 26.8913H207.768V23.0904H208.975C209.396 23.0904 209.755 23.1677 210.053 23.3223C210.355 23.4732 210.584 23.6925 210.738 23.98C210.893 24.2639 210.97 24.6 210.97 24.9882ZM208.937 26.4492C209.433 26.4492 209.813 26.3216 210.075 26.0664C210.337 25.8112 210.469 25.4518 210.469 24.9882C210.469 24.5245 210.337 24.1651 210.075 23.9099C209.816 23.6511 209.437 23.5217 208.937 23.5217H208.258V26.4492H208.937Z" fill="#303045"/>
<path d="M212.845 23.8937C213.133 23.8937 213.375 23.9656 213.573 24.1094C213.774 24.2532 213.914 24.4455 213.993 24.6863V23.9315H214.484V26.8913H213.993V26.1365C213.914 26.3773 213.774 26.5696 213.573 26.7134C213.375 26.8572 213.133 26.929 212.845 26.929C212.583 26.929 212.349 26.8679 212.144 26.7457C211.939 26.6235 211.778 26.4492 211.659 26.2228C211.544 25.9928 211.486 25.7232 211.486 25.4141C211.486 25.105 211.544 24.8354 211.659 24.6054C211.778 24.3754 211.939 24.1992 212.144 24.077C212.349 23.9548 212.583 23.8937 212.845 23.8937ZM212.985 24.3304C212.683 24.3304 212.441 24.4275 212.257 24.6216C212.078 24.8121 211.988 25.0762 211.988 25.4141C211.988 25.7519 212.078 26.0179 212.257 26.212C212.441 26.4025 212.683 26.4977 212.985 26.4977C213.179 26.4977 213.352 26.4528 213.503 26.363C213.657 26.2731 213.778 26.1473 213.864 25.9856C213.95 25.8202 213.993 25.6297 213.993 25.4141C213.993 25.1984 213.95 25.0079 213.864 24.8426C213.778 24.6773 213.657 24.5515 213.503 24.4652C213.352 24.3754 213.179 24.3304 212.985 24.3304Z" fill="#303045"/>
<path d="M216.677 26.46V26.8913H216.311C216.009 26.8913 215.782 26.8194 215.631 26.6757C215.484 26.5319 215.41 26.2911 215.41 25.9532V24.3574H214.968V23.9315H215.41V23.1929H215.906V23.9315H216.672V24.3574H215.906V25.964C215.906 26.1545 215.941 26.2857 216.009 26.3576C216.081 26.4259 216.203 26.46 216.375 26.46H216.677Z" fill="#303045"/>
<path d="M219.999 25.247C219.999 25.3512 219.991 25.441 219.977 25.5165H217.61C217.621 25.8544 217.716 26.1078 217.896 26.2767C218.079 26.4456 218.302 26.5301 218.565 26.5301C218.802 26.5301 218.999 26.4708 219.158 26.3522C219.319 26.23 219.418 26.0682 219.454 25.867H219.977C219.941 26.0718 219.86 26.2551 219.734 26.4169C219.612 26.5786 219.452 26.7044 219.255 26.7943C219.057 26.8841 218.834 26.929 218.586 26.929C218.302 26.929 218.051 26.8679 217.831 26.7457C217.612 26.6235 217.44 26.4492 217.314 26.2228C217.192 25.9928 217.13 25.7232 217.13 25.4141C217.13 25.105 217.192 24.8354 217.314 24.6054C217.44 24.3754 217.612 24.1992 217.831 24.077C218.051 23.9548 218.302 23.8937 218.586 23.8937C218.874 23.8937 219.123 23.9548 219.336 24.077C219.551 24.1992 219.715 24.3628 219.826 24.5677C219.941 24.7725 219.999 24.999 219.999 25.247ZM219.503 25.2793C219.513 25.0601 219.478 24.8768 219.395 24.7294C219.312 24.582 219.199 24.4724 219.055 24.4005C218.911 24.3286 218.755 24.2927 218.586 24.2927C218.317 24.2927 218.09 24.3772 217.907 24.5461C217.724 24.7114 217.625 24.9558 217.61 25.2793H219.503Z" fill="#303045"/>
</g>
<path d="M102.043 172.793C102.043 170.602 102.043 169.506 102.225 168.594C102.969 164.851 105.895 161.926 109.638 161.181C110.549 161 111.645 161 113.837 161H164.38C166.572 161 167.668 161 168.58 161.181C172.322 161.926 175.248 164.851 175.993 168.594C176.174 169.506 176.174 170.602 176.174 172.793C176.174 174.985 176.174 176.081 175.993 176.993C175.248 180.735 172.322 183.661 168.58 184.406C167.668 184.587 166.572 184.587 164.38 184.587H113.837C111.645 184.587 110.549 184.587 109.638 184.406C105.895 183.661 102.969 180.735 102.225 176.993C102.043 176.081 102.043 174.985 102.043 172.793Z" fill="#38A585"/>
<path d="M132.45 173.346C132.45 174.094 132.289 174.759 131.965 175.341C131.649 175.916 131.189 176.365 130.585 176.689C129.988 177.012 129.284 177.174 128.472 177.174H125.593V169.551H128.472C129.291 169.551 129.999 169.709 130.596 170.025C131.192 170.341 131.649 170.787 131.965 171.362C132.289 171.937 132.45 172.598 132.45 173.346ZM128.31 175.524C129.029 175.524 129.586 175.334 129.981 174.953C130.384 174.572 130.585 174.036 130.585 173.346C130.585 172.656 130.384 172.12 129.981 171.739C129.586 171.358 129.029 171.168 128.31 171.168H127.436V175.524H128.31Z" fill="white"/>
<path d="M136.315 171.082C136.912 171.082 137.443 171.208 137.911 171.459C138.385 171.704 138.755 172.059 139.021 172.527C139.294 172.994 139.431 173.54 139.431 174.166C139.431 174.791 139.294 175.337 139.021 175.805C138.755 176.272 138.385 176.631 137.911 176.883C137.443 177.127 136.912 177.249 136.315 177.249C135.718 177.249 135.183 177.127 134.708 176.883C134.234 176.631 133.86 176.272 133.587 175.805C133.321 175.337 133.188 174.791 133.188 174.166C133.188 173.54 133.321 172.994 133.587 172.527C133.86 172.059 134.234 171.704 134.708 171.459C135.183 171.208 135.718 171.082 136.315 171.082ZM136.315 172.678C135.963 172.678 135.664 172.807 135.42 173.066C135.183 173.317 135.064 173.684 135.064 174.166C135.064 174.647 135.183 175.014 135.42 175.265C135.664 175.517 135.963 175.643 136.315 175.643C136.667 175.643 136.962 175.517 137.199 175.265C137.436 175.014 137.555 174.647 137.555 174.166C137.555 173.684 137.436 173.317 137.199 173.066C136.962 172.807 136.667 172.678 136.315 172.678Z" fill="white"/>
<path d="M144.204 171.093C144.894 171.093 145.441 171.323 145.843 171.783C146.253 172.243 146.458 172.875 146.458 173.68V177.174H144.614V173.896C144.614 173.493 144.506 173.181 144.29 172.958C144.082 172.728 143.802 172.613 143.449 172.613C143.076 172.613 142.777 172.731 142.554 172.969C142.339 173.206 142.231 173.544 142.231 173.982V177.174H140.387V171.157H142.231V172.257C142.404 171.898 142.659 171.614 142.997 171.405C143.342 171.197 143.744 171.093 144.204 171.093Z" fill="white"/>
<path d="M153.389 174.004C153.389 174.155 153.371 174.32 153.335 174.5H149.162C149.183 174.953 149.298 175.28 149.507 175.481C149.715 175.675 149.981 175.772 150.305 175.772C150.578 175.772 150.804 175.704 150.984 175.567C151.164 175.431 151.282 175.255 151.34 175.039H153.292C153.213 175.463 153.04 175.844 152.774 176.182C152.508 176.513 152.17 176.775 151.76 176.969C151.351 177.156 150.894 177.249 150.391 177.249C149.802 177.249 149.277 177.127 148.817 176.883C148.364 176.631 148.008 176.272 147.749 175.805C147.491 175.337 147.361 174.791 147.361 174.166C147.361 173.533 147.487 172.987 147.739 172.527C147.997 172.059 148.357 171.704 148.817 171.459C149.277 171.208 149.802 171.082 150.391 171.082C150.988 171.082 151.512 171.204 151.965 171.448C152.418 171.693 152.767 172.038 153.011 172.483C153.263 172.922 153.389 173.429 153.389 174.004ZM151.523 173.723C151.53 173.328 151.423 173.033 151.2 172.839C150.984 172.638 150.715 172.537 150.391 172.537C150.053 172.537 149.773 172.638 149.55 172.839C149.327 173.041 149.201 173.335 149.173 173.723H151.523Z" fill="white"/>
</g>
<defs>
<filter id="filter0_d_40_687" x="0" y="0" width="280" height="206" filterUnits="userSpaceOnUse" color-interpolation-filters="sRGB">
<feFlood flood-opacity="0" result="BackgroundImageFix"/>
<feColorMatrix in="SourceAlpha" type="matrix" values="0 0 0 0 0 0 0 0 0 0 0 0 0 0 0 0 0 0 127 0" result="hardAlpha"/>
<feOffset dx="1"/>
<feGaussianBlur stdDeviation="3"/>
<feComposite in2="hardAlpha" operator="out"/>
<feColorMatrix type="matrix" values="0 0 0 0 0 0 0 0 0 0 0 0 0 0 0 0 0 0 0.25 0"/>
<feBlend mode="normal" in2="BackgroundImageFix" result="effect1_dropShadow_40_687"/>
<feBlend mode="normal" in="SourceGraphic" in2="effect1_dropShadow_40_687" result="shape"/>
</filter>
<filter id="filter1_d_40_687" x="0" y="6" width="278" height="209" filterUnits="userSpaceOnUse" color-interpolation-filters="sRGB">
<feFlood flood-opacity="0" result="BackgroundImageFix"/>
<feColorMatrix in="SourceAlpha" type="matrix" values="0 0 0 0 0 0 0 0 0 0 0 0 0 0 0 0 0 0 127 0" result="hardAlpha"/>
<feMorphology radius="9" operator="erode" in="SourceAlpha" result="effect1_dropShadow_40_687"/>
<feOffset dy="10"/>
<feGaussianBlur stdDeviation="7"/>
<feComposite in2="hardAlpha" operator="out"/>
<feColorMatrix type="matrix" values="0 0 0 0 0 0 0 0 0 0 0 0 0 0 0 0 0 0 0.2 0"/>
<feBlend mode="normal" in2="BackgroundImageFix" result="effect1_dropShadow_40_687"/>
<feBlend mode="normal" in="SourceGraphic" in2="effect1_dropShadow_40_687" result="shape"/>
</filter>
</defs>
</svg>
