<svg width="125" height="132" viewBox="0 0 125 132" fill="none" xmlns="http://www.w3.org/2000/svg">
<path d="M118.815 57.7163C118.812 57.7133 118.812 57.6922 118.809 57.6471C118.809 57.596 118.806 57.5299 118.803 57.4487C118.8 57.2653 118.797 57.0127 118.791 56.688C118.785 56.0205 118.776 55.0584 118.767 53.8497L118.812 53.8948C115.473 53.9008 110.163 53.9128 104.192 53.9248C104.225 53.8918 104.117 54 104.267 53.8497V53.8527V53.8557V53.8647V53.8797V53.9098V53.973V54.0962V54.3458C104.267 54.5112 104.267 54.6765 104.267 54.8389C104.267 55.1666 104.267 55.4913 104.267 55.8161C104.267 56.4625 104.267 57.0969 104.267 57.7193L104.195 57.6471C108.357 57.6592 112.002 57.6712 114.614 57.6802C115.915 57.6892 116.961 57.6953 117.688 57.7013C118.043 57.7043 118.322 57.7073 118.52 57.7103C118.611 57.7133 118.683 57.7133 118.737 57.7163C118.788 57.7133 118.812 57.7163 118.815 57.7163C118.818 57.7193 118.794 57.7193 118.746 57.7223C118.692 57.7223 118.623 57.7253 118.538 57.7283C118.343 57.7313 118.07 57.7343 117.724 57.7374C117 57.7434 115.96 57.7494 114.665 57.7584C112.038 57.7674 108.378 57.7794 104.195 57.7915H104.123V57.7193C104.123 57.0969 104.123 56.4625 104.123 55.8161C104.123 55.4943 104.123 55.1666 104.123 54.8389C104.123 54.6735 104.123 54.5112 104.123 54.3458V54.0962V53.973V53.9098V53.8797V53.8647V53.8557V53.8527V53.8497C104.273 53.6993 104.165 53.8076 104.198 53.7745C110.169 53.7865 115.479 53.7956 118.818 53.8046H118.863V53.8497C118.851 55.0734 118.845 56.0416 118.839 56.7151C118.833 57.0368 118.83 57.2863 118.827 57.4667C118.824 57.5449 118.824 57.6081 118.821 57.6562C118.818 57.6983 118.815 57.7193 118.815 57.7163Z" fill="#E0E0E0"/>
<path d="M63.0512 20.1084H48.4312V23.9781H63.0512V20.1084Z" fill="#F5F5F5"/>
<path d="M56.8697 28.0552C56.8667 28.0521 56.8667 28.0311 56.8637 27.986C56.8637 27.9349 56.8607 27.8687 56.8577 27.7876C56.8547 27.6041 56.8517 27.3516 56.8457 27.0269C56.8396 26.3594 56.8306 25.3972 56.8216 24.1885L56.8667 24.2336C53.528 24.2396 48.2178 24.2517 42.2466 24.2637C42.2796 24.2306 42.1715 24.3389 42.3217 24.1885V24.1915V24.1945V24.2036V24.2186V24.2487V24.3118V24.4351V24.6846C42.3217 24.85 42.3217 25.0154 42.3217 25.1777C42.3217 25.5055 42.3217 25.8302 42.3217 26.1549C42.3217 26.8014 42.3217 27.4358 42.3217 28.0582L42.2496 27.986C46.4117 27.998 50.057 28.0101 52.6685 28.0191C53.9697 28.0281 55.0155 28.0341 55.7428 28.0401C56.0974 28.0431 56.3768 28.0461 56.5752 28.0491C56.6653 28.0521 56.7375 28.0521 56.7916 28.0552C56.8426 28.0521 56.8667 28.0521 56.8697 28.0552C56.8727 28.0582 56.8487 28.0582 56.8006 28.0612C56.7465 28.0612 56.6774 28.0642 56.5932 28.0672C56.3979 28.0702 56.1244 28.0732 55.7788 28.0762C55.0546 28.0822 54.0148 28.0882 52.7196 28.0972C50.0931 28.1063 46.4328 28.1183 42.2496 28.1303H42.1775V28.0582C42.1775 27.4358 42.1775 26.8014 42.1775 26.1549C42.1775 25.8332 42.1775 25.5055 42.1775 25.1777C42.1775 25.0124 42.1775 24.85 42.1775 24.6846V24.4351V24.3118V24.2487V24.2186V24.2036V24.1945V24.1915V24.1885C42.3277 24.0382 42.2195 24.1464 42.2526 24.1134C48.2239 24.1254 53.534 24.1344 56.8727 24.1434H56.9178V24.1885C56.9058 25.4123 56.8997 26.3804 56.8937 27.0539C56.8877 27.3756 56.8847 27.6252 56.8817 27.8056C56.8787 27.8838 56.8787 27.9469 56.8757 27.995C56.8727 28.0341 56.8697 28.0552 56.8697 28.0552Z" fill="#E0E0E0"/>
<path d="M19.7739 14.0469C19.7709 14.0439 19.7709 14.0229 19.7679 13.9778C19.7679 13.9266 19.7649 13.8605 19.7618 13.7793C19.7588 13.5959 19.7558 13.3433 19.7498 13.0186C19.7438 12.3511 19.7348 11.389 19.7258 10.1803L19.7739 10.2224C16.4351 10.2284 11.125 10.2404 5.15377 10.2524C5.18683 10.2194 5.07864 10.3276 5.2259 10.1773V10.1803V10.1833V10.1923V10.2073V10.2374V10.3005V10.4238V10.6734C5.2259 10.8388 5.2259 11.0041 5.2259 11.1665C5.2259 11.4942 5.2259 11.8189 5.2259 12.1437C5.2259 12.7901 5.2259 13.4245 5.2259 14.0469L5.15377 13.9747C9.31592 13.9868 12.9612 13.9988 15.5727 14.0078C16.8739 14.0168 17.9197 14.0229 18.6469 14.0289C19.0015 14.0319 19.281 14.0349 19.4794 14.0379C19.5695 14.0409 19.6416 14.0409 19.6957 14.0439C19.7438 14.0439 19.7709 14.0439 19.7739 14.0469C19.7769 14.0499 19.7528 14.0499 19.7047 14.0529C19.6507 14.0529 19.5815 14.0559 19.4974 14.0589C19.3021 14.0619 19.0286 14.0649 18.683 14.068C17.9588 14.074 16.919 14.08 15.6237 14.089C12.9972 14.098 9.33695 14.11 5.15377 14.1221H5.08165V14.0499C5.08165 13.4275 5.08165 12.7931 5.08165 12.1467C5.08165 11.825 5.08165 11.4972 5.08165 11.1695C5.08165 11.0041 5.08165 10.8418 5.08165 10.6764V10.4268V10.3036V10.2404V10.2103V10.1923V10.1833V10.1803V10.1773C5.23191 10.0269 5.12372 10.1352 5.15678 10.1021C11.128 10.1141 16.4381 10.1232 19.7769 10.1322H19.822V10.1773C19.8099 11.401 19.8039 12.3692 19.7979 13.0427C19.7919 13.3644 19.7889 13.6139 19.7859 13.7943C19.7829 13.8725 19.7829 13.9357 19.7799 13.9838C19.7769 14.0289 19.7739 14.0469 19.7739 14.0469Z" fill="#E0E0E0"/>
<path d="M106.954 8.49051C106.951 8.4875 106.951 8.46645 106.948 8.42135C106.948 8.37024 106.945 8.30409 106.942 8.22291C106.939 8.0395 106.936 7.78694 106.93 7.46221C106.924 6.79473 106.915 5.83258 106.906 4.62388L106.951 4.66898C103.612 4.675 98.3018 4.68703 92.3305 4.69905C92.3636 4.66598 92.2554 4.77422 92.4026 4.62388V4.62689V4.6299V4.63892V4.65395V4.68402V4.74716V4.87043V5.11999C92.4026 5.28536 92.4026 5.45073 92.4026 5.61309C92.4026 5.94082 92.4026 6.26555 92.4026 6.59027C92.4026 7.23671 92.4026 7.87113 92.4026 8.49352L92.3305 8.42135C96.4927 8.43338 100.138 8.44541 102.749 8.45443C104.051 8.46345 105.096 8.46946 105.824 8.47548C106.178 8.47848 106.458 8.48149 106.656 8.48449C106.746 8.4875 106.818 8.4875 106.872 8.49051C106.927 8.4875 106.954 8.4875 106.954 8.49051C106.957 8.49352 106.933 8.49352 106.884 8.49652C106.83 8.49652 106.761 8.49953 106.677 8.50254C106.482 8.50554 106.208 8.50855 105.863 8.51156C105.138 8.51757 104.099 8.52358 102.803 8.5326C100.177 8.54162 96.5167 8.55365 92.3335 8.56568H92.2614V8.49352C92.2614 7.87113 92.2614 7.23671 92.2614 6.59027C92.2614 6.26855 92.2614 5.94082 92.2614 5.61309C92.2614 5.44772 92.2614 5.28536 92.2614 5.11999V4.87043V4.74716V4.68402V4.65395V4.63892V4.6299V4.62689V4.62388C92.4117 4.47355 92.3035 4.58179 92.3365 4.54872C98.3078 4.56074 103.618 4.56976 106.957 4.57878H107.002V4.62388C106.99 5.84761 106.984 6.81577 106.978 7.48928C106.972 7.81099 106.969 8.06055 106.966 8.24095C106.963 8.31913 106.963 8.38227 106.96 8.43037C106.957 8.46946 106.957 8.49051 106.954 8.49051Z" fill="#E0E0E0"/>
<path d="M108.937 4.61787C108.934 4.61486 108.934 4.59081 108.931 4.54571C108.928 4.49159 108.928 4.42243 108.925 4.34125C108.922 4.15183 108.916 3.89325 108.913 3.56552C108.907 2.88601 108.895 1.92987 108.883 0.751244L108.937 0.805365C106.662 0.811378 103.564 0.817392 100.153 0.826412C100.087 0.892559 100.243 0.736211 100.228 0.751244V0.754251V0.763271V0.781311V0.811378V0.874519V1.0008V1.25336C100.228 1.42174 100.228 1.59012 100.228 1.75548C100.228 2.08923 100.228 2.41696 100.228 2.74168C100.228 3.38813 100.225 4.01653 100.225 4.61787L100.153 4.54571C102.689 4.56074 104.871 4.56976 106.437 4.57878C107.209 4.5878 107.828 4.59381 108.267 4.59983C108.471 4.60283 108.636 4.60584 108.76 4.60885C108.874 4.61486 108.934 4.61486 108.937 4.61787C108.94 4.62087 108.886 4.62388 108.778 4.62689C108.657 4.6299 108.498 4.6329 108.3 4.63591C107.864 4.64192 107.251 4.64794 106.485 4.65696C104.907 4.66598 102.707 4.678 100.153 4.69003H100.081V4.61787C100.081 4.01653 100.078 3.38813 100.078 2.74168C100.078 2.41696 100.078 2.08923 100.078 1.75548C100.078 1.59012 100.078 1.42174 100.078 1.25336V1.0008V0.874519V0.811378V0.781311V0.763271V0.757258V0.751244C100.063 0.766278 100.219 0.609929 100.153 0.676077C103.564 0.685097 106.662 0.69111 108.937 0.697124H108.991V0.751244C108.979 1.9419 108.97 2.91307 108.961 3.59859C108.955 3.92031 108.952 4.17588 108.949 4.3623C108.943 4.53368 108.94 4.62388 108.937 4.61787Z" fill="#E0E0E0"/>
<path d="M14.6952 100.763C14.6952 100.76 14.6922 100.739 14.6922 100.694C14.6922 100.643 14.6892 100.577 14.6862 100.496C14.6832 100.312 14.6802 100.06 14.6742 99.735C14.6682 99.0675 14.6592 98.1054 14.6501 96.8967L14.6952 96.9418C11.3565 96.9478 6.04638 96.9598 0.075129 96.9719C0.108186 96.9388 0 97.047 0.150258 96.8967V96.8997V96.9027V96.9117V96.9268V96.9568V97.02V97.1432V97.3928C0.150258 97.5582 0.150258 97.7235 0.150258 97.8859C0.150258 98.2136 0.150258 98.5384 0.150258 98.8631C0.150258 99.5095 0.150258 100.144 0.150258 100.766L0.0781341 100.694C4.24028 100.706 7.88554 100.718 10.497 100.727C11.7983 100.736 12.844 100.742 13.5713 100.748C13.9259 100.751 14.2054 100.754 14.4037 100.757C14.4939 100.76 14.566 100.76 14.6201 100.763C14.6682 100.76 14.6952 100.763 14.6952 100.763C14.6982 100.766 14.6742 100.766 14.6261 100.769C14.572 100.769 14.5029 100.772 14.4187 100.775C14.2234 100.778 13.9499 100.781 13.6013 100.784C12.8771 100.79 11.8373 100.796 10.5421 100.805C7.91559 100.814 4.2553 100.826 0.0721238 100.838H0V100.766C0 100.144 0 99.5095 0 98.8631C0 98.5414 0 98.2136 0 97.8859C0 97.7205 0 97.5582 0 97.3928V97.1432V97.02V96.9568V96.9268V96.9117V96.9027V96.8997V96.8967C0.150258 96.7464 0.0420722 96.8546 0.075129 96.8215C6.04638 96.8336 11.3565 96.8426 14.6952 96.8516H14.7403V96.8967C14.7283 98.1204 14.7223 99.0886 14.7163 99.7621C14.7102 100.084 14.7072 100.333 14.7042 100.514C14.7012 100.592 14.7012 100.655 14.6982 100.703C14.6982 100.745 14.6982 100.766 14.6952 100.763Z" fill="#E0E0E0"/>
<path d="M16.6787 96.8937C16.6757 96.8907 16.6757 96.8666 16.6727 96.8215C16.6697 96.7674 16.6697 96.6982 16.6667 96.6171C16.6637 96.4276 16.6577 96.1691 16.6547 95.8413C16.6487 95.1618 16.6367 94.2057 16.6246 93.0271L16.6787 93.0812C14.4038 93.0872 11.3055 93.0932 7.89466 93.1022C7.82855 93.1684 7.98481 93.012 7.96979 93.0271V93.0301V93.0331V93.0421V93.0571V93.0902V93.1533V93.2796V93.5322C7.96979 93.7006 7.96979 93.8689 7.96979 94.0343C7.96979 94.3681 7.96979 94.6958 7.96979 95.0205C7.96979 95.6669 7.96678 96.2953 7.96678 96.8967L7.89466 96.8245C10.431 96.8396 12.6128 96.8486 14.1784 96.8576C14.9508 96.8666 15.5698 96.8726 16.0086 96.8786C16.2129 96.8817 16.3782 96.8847 16.5014 96.8877C16.6156 96.8877 16.6757 96.8907 16.6787 96.8937C16.6817 96.8967 16.6276 96.8997 16.5195 96.9027C16.3993 96.9057 16.24 96.9087 16.0416 96.9117C15.6059 96.9177 14.9928 96.9238 14.2265 96.9328C12.6488 96.9418 10.449 96.9538 7.89466 96.9658H7.82254V96.8937C7.82254 96.2923 7.81953 95.6639 7.81953 95.0175C7.81953 94.6928 7.81953 94.365 7.81953 94.0313C7.81953 93.8659 7.81953 93.6976 7.81953 93.5292V93.2766V93.1503V93.0872V93.0541V93.0391V93.0301V93.0271V93.0241C7.8045 93.0391 7.96077 92.8827 7.89466 92.9489C11.3055 92.9579 14.4038 92.9639 16.6787 92.9699H16.7328V93.0241C16.7208 94.2147 16.7118 95.1859 16.7028 95.8714C16.6968 96.1931 16.6938 96.4487 16.6908 96.6351C16.6847 96.8095 16.6817 96.8967 16.6787 96.8937Z" fill="#E0E0E0"/>
<path d="M60.7344 68.9433C60.7314 68.9403 60.7314 68.9193 60.7314 68.8742C60.7314 68.8231 60.7284 68.7569 60.7254 68.6758C60.7223 68.4923 60.7193 68.2398 60.7133 67.9151C60.7073 67.2476 60.6983 66.2854 60.6893 65.0767L60.7344 65.1218C57.3956 65.1278 52.0855 65.1399 46.1143 65.1519C46.1473 65.1188 46.0391 65.2271 46.1864 65.0767V65.0797V65.0827V65.0918V65.1068V65.1369V65.2V65.3233V65.5728C46.1864 65.7382 46.1864 65.9036 46.1864 66.0659C46.1864 66.3937 46.1864 66.7184 46.1864 67.0431C46.1864 67.6895 46.1864 68.324 46.1864 68.9464L46.1143 68.8742C50.2764 68.8862 53.9217 68.8982 56.5332 68.9073C57.8344 68.9163 58.8802 68.9223 59.6074 68.9283C59.962 68.9313 60.2415 68.9343 60.4399 68.9373C60.53 68.9403 60.6021 68.9403 60.6562 68.9433C60.7073 68.9403 60.7314 68.9403 60.7344 68.9433C60.7374 68.9464 60.7133 68.9464 60.6652 68.9494C60.6112 68.9494 60.542 68.9524 60.4579 68.9554C60.2626 68.9584 59.9891 68.9614 59.6435 68.9644C58.9192 68.9704 57.8795 68.9764 56.5842 68.9854C53.9577 68.9945 50.2974 69.0065 46.1143 69.0185H46.0421V68.9464C46.0421 68.324 46.0421 67.6895 46.0421 67.0431C46.0421 66.7214 46.0421 66.3937 46.0421 66.0659C46.0421 65.9006 46.0421 65.7382 46.0421 65.5728V65.3233V65.2V65.1369V65.1068V65.0918V65.0827V65.0797V65.0767C46.1924 64.9264 46.0842 65.0346 46.1173 65.0016C52.0885 65.0136 57.3986 65.0226 60.7374 65.0316H60.7824V65.0767C60.7704 66.3005 60.7644 67.2686 60.7584 67.9421C60.7524 68.2638 60.7494 68.5134 60.7464 68.6938C60.7434 68.772 60.7434 68.8351 60.7404 68.8832C60.7374 68.9253 60.7344 68.9464 60.7344 68.9433Z" fill="#E0E0E0"/>
<path d="M62.7148 65.0737C62.7118 65.0707 62.7118 65.0467 62.7088 65.0016C62.7058 64.9474 62.7058 64.8783 62.7028 64.7971C62.6997 64.6077 62.6937 64.3491 62.6907 64.0214C62.6847 63.3418 62.6727 62.3857 62.6607 61.2071L62.7148 61.2612C60.4399 61.2672 57.3416 61.2732 53.9307 61.2823C53.8646 61.3484 54.0209 61.1921 54.0058 61.2071V61.2101V61.2131V61.2221V61.2372V61.2702V61.3334V61.4597V61.7122C54.0058 61.8806 54.0058 62.049 54.0058 62.2143C54.0058 62.5481 54.0058 62.8758 54.0058 63.2005C54.0058 63.847 54.0028 64.4754 54.0028 65.0767L53.9307 65.0046C56.4671 65.0196 58.6488 65.0286 60.2145 65.0376C60.9868 65.0467 61.6059 65.0527 62.0446 65.0587C62.249 65.0617 62.4143 65.0647 62.5375 65.0677C62.6517 65.0677 62.7118 65.0707 62.7148 65.0737C62.7178 65.0767 62.6637 65.0797 62.5555 65.0827C62.4353 65.0857 62.276 65.0887 62.0777 65.0918C61.6419 65.0978 61.0289 65.1038 60.2626 65.1128C58.6849 65.1218 56.4851 65.1338 53.9307 65.1459H53.8586V65.0737C53.8586 64.4724 53.8556 63.844 53.8556 63.1975C53.8556 62.8728 53.8556 62.5451 53.8556 62.2113C53.8556 62.046 53.8556 61.8776 53.8556 61.7092V61.4566V61.3304V61.2672V61.2342V61.2191V61.2101V61.2071V61.2041C53.8405 61.2191 53.9968 61.0628 53.9307 61.1289C57.3416 61.1379 60.4399 61.144 62.7148 61.15H62.7689V61.2041C62.7568 62.3947 62.7478 63.3659 62.7388 64.0514C62.7328 64.3732 62.7298 64.6287 62.7268 64.8151C62.7238 64.9895 62.7208 65.0767 62.7148 65.0737Z" fill="#E0E0E0"/>
<path d="M6.59941 115.37L1.19915 122.709L10.2928 129.48C10.8848 128.572 7.47993 123.323 7.47993 123.323L11.1342 118.761L6.59941 115.37Z" fill="#455A64"/>
<path d="M4.95833 120.836C4.74797 120.752 4.4775 120.86 4.38735 121.068C4.29719 121.275 4.40237 121.552 4.61273 121.636C4.82309 121.723 5.15066 121.603 5.21677 121.386C5.28288 121.17 5.14164 120.854 4.91625 120.821" fill="white"/>
<path d="M1.18693 122.724L1.76092 121.937L10.2565 128.78C10.2565 128.78 10.527 129.258 10.2685 129.507L1.18693 122.724Z" fill="#263238"/>
<path d="M7.66008 123.386C7.62703 123.428 7.38962 123.284 7.06506 123.265C6.7405 123.238 6.48507 123.347 6.45802 123.299C6.42496 123.259 6.68641 123.043 7.08009 123.073C7.47076 123.1 7.69915 123.353 7.66008 123.386Z" fill="#263238"/>
<path d="M8.32118 124.492C8.30015 124.543 8.05072 124.474 7.75922 124.549C7.46772 124.616 7.27839 124.79 7.23331 124.757C7.18523 124.733 7.35052 124.45 7.71113 124.363C8.07476 124.273 8.35123 124.447 8.32118 124.492Z" fill="#263238"/>
<path d="M8.01167 126.038C7.96359 126.017 8.06877 125.749 8.36327 125.59C8.65778 125.43 8.93726 125.49 8.92824 125.542C8.92524 125.596 8.69384 125.626 8.45343 125.761C8.21001 125.887 8.05975 126.065 8.01167 126.038Z" fill="#263238"/>
<path d="M8.37821 122.255C8.33013 122.282 8.17085 122.069 7.9064 121.9C7.64495 121.726 7.38951 121.663 7.39252 121.609C7.38951 121.558 7.70505 121.534 8.01158 121.738C8.32111 121.94 8.42329 122.237 8.37821 122.255Z" fill="#263238"/>
<path d="M28.5821 84.6564C28.7473 85.5764 29.0028 93.4029 29.1681 97.5311C29.3333 101.659 28.9216 103.692 28.4498 104.615C27.978 105.538 10.1845 118.659 8.82915 121.801L4.33344 118.166C4.33344 118.166 10.9328 106.29 13.7636 104.134C16.5945 101.978 22.0038 99.9936 22.0038 99.9936L20.4651 77.3862L27.8548 76.9833L28.5821 84.6564Z" fill="#263238"/>
<path d="M12.0478 122.625L11.9697 131.741L23.3052 131.898C23.2541 130.812 17.4211 128.557 17.4211 128.557L17.7096 122.718L12.0478 122.625Z" fill="#455A64"/>
<path d="M13.9199 128.016C13.7006 128.073 13.5443 128.317 13.5924 128.539C13.6404 128.762 13.8869 128.921 14.1093 128.867C14.3316 128.813 14.524 128.527 14.4518 128.311C14.3797 128.094 14.0792 127.923 13.8779 128.028" fill="white"/>
<path d="M11.9665 131.756L11.9695 130.779L22.8632 131.345C22.8632 131.345 23.3621 131.573 23.299 131.928L11.9665 131.756Z" fill="#263238"/>
<path d="M17.6012 128.5C17.5982 128.554 17.3218 128.575 17.0453 128.75C16.7658 128.918 16.6216 129.156 16.5705 129.132C16.5194 129.12 16.6065 128.789 16.9431 128.584C17.2797 128.38 17.6133 128.449 17.6012 128.5Z" fill="#263238"/>
<path d="M18.7821 129.008C18.7941 129.062 18.5537 129.153 18.3614 129.384C18.1631 129.61 18.112 129.862 18.0579 129.859C18.0068 129.868 17.9707 129.543 18.2141 129.258C18.4576 128.975 18.7821 128.954 18.7821 129.008Z" fill="#263238"/>
<path d="M19.4403 130.443C19.3892 130.455 19.317 130.175 19.4643 129.874C19.6085 129.571 19.87 129.456 19.894 129.501C19.9241 129.547 19.7558 129.709 19.6386 129.958C19.5124 130.202 19.4944 130.436 19.4403 130.443Z" fill="#263238"/>
<path d="M17.52 127.162C17.496 127.213 17.2435 127.132 16.931 127.15C16.6185 127.162 16.3721 127.261 16.345 127.213C16.315 127.174 16.5554 126.97 16.922 126.958C17.2916 126.94 17.5471 127.12 17.52 127.162Z" fill="#263238"/>
<path d="M29.4025 76.0482C29.4025 76.5834 30.2649 90.0534 25.8624 99.7921C25.8624 99.7921 24.3388 102.841 24.0713 104.173C23.8039 105.508 18.0971 127.595 18.0971 127.595L11.5158 127.355C11.5158 127.355 10.461 116.287 11.5278 109.883C12.5946 103.478 14.542 104.224 14.542 100.09C14.542 95.9556 13.5593 87.3744 13.5593 87.3744C13.5593 87.3744 12.1228 85.0292 11.633 80.4891C11.2363 76.7999 12.9703 72.846 12.9703 72.846L14.6892 69.8063L29.2071 69.0456L29.4025 76.0482Z" fill="#263238"/>
<path d="M29.4024 76.0482C29.4024 76.0482 29.4054 75.8918 29.3994 75.5912C29.3934 75.2845 29.3844 74.8335 29.3694 74.2442C29.3393 73.0565 29.2972 71.3066 29.2401 69.0456V69.0095L29.2041 69.0125C25.637 69.1929 20.6814 69.4455 14.6862 69.7521L14.6531 69.7551L14.6381 69.7822C14.1032 70.7263 13.5202 71.7576 12.9161 72.822L12.9131 72.825V72.828C12.4804 73.8743 12.1318 74.9898 11.8793 76.1594C11.6209 77.329 11.4766 78.5618 11.5157 79.8246C11.5969 81.0874 11.8012 82.3593 12.1077 83.6401C12.4263 84.918 12.832 86.2048 13.4991 87.4195L13.4901 87.3895C13.7395 89.6325 13.9679 91.9567 14.1663 94.35C14.2624 95.5467 14.3496 96.7614 14.4067 97.9911C14.4367 98.6045 14.4578 99.2239 14.4638 99.8463C14.4758 100.159 14.4518 100.466 14.4457 100.778C14.4127 101.088 14.3977 101.401 14.3315 101.704C14.2234 102.318 14.001 102.91 13.7095 103.469C13.418 104.032 13.0904 104.588 12.8169 105.174C12.258 106.347 11.8974 107.613 11.6359 108.902C11.113 111.488 11.0048 114.176 10.9778 116.882C10.9658 120.46 11.1461 123.969 11.4406 127.367L11.4466 127.436L11.5157 127.439C13.7576 127.52 15.9543 127.601 18.097 127.676L18.1601 127.679L18.1751 127.619C20.0804 120.22 21.8625 113.304 23.4282 107.086C23.6205 106.308 23.8098 105.541 23.9991 104.786C24.0953 104.404 24.1584 104.026 24.2756 103.665C24.3898 103.301 24.525 102.946 24.6633 102.597C24.9458 101.9 25.2493 101.223 25.5588 100.565C25.637 100.399 25.7151 100.237 25.7932 100.075C25.8744 99.9154 25.9525 99.75 26.0156 99.5817C26.1508 99.2479 26.2861 98.9202 26.4183 98.5925C27.4551 95.9676 28.0681 93.4209 28.4979 91.0967C29.3393 86.4333 29.4505 82.6389 29.4896 80.0531C29.5076 77.4583 29.4024 76.0482 29.4024 76.0482C29.4024 76.0482 29.3994 76.1354 29.4054 76.3098C29.4084 76.4872 29.4174 76.7427 29.4265 77.0765C29.4445 77.753 29.4565 78.7542 29.4385 80.0471C29.3844 82.6329 29.2552 86.4243 28.4017 91.0757C27.966 93.3939 27.3499 95.9345 26.3101 98.5474C26.1779 98.8721 26.0426 99.1998 25.9074 99.5306C25.8443 99.6989 25.7692 99.8583 25.685 100.021C25.6069 100.183 25.5288 100.348 25.4476 100.511C25.1351 101.172 24.8286 101.849 24.5431 102.549C24.4018 102.901 24.2666 103.259 24.1494 103.626C24.0292 103.996 23.9631 104.38 23.8669 104.753C23.6776 105.508 23.4883 106.275 23.2929 107.053C21.6972 113.265 19.9211 120.181 18.0189 127.58L18.097 127.523C15.9543 127.445 13.7576 127.364 11.5157 127.282L11.5908 127.355C11.2993 123.966 11.119 120.457 11.1311 116.888C11.1611 114.188 11.2663 111.506 11.7862 108.939C12.0446 107.658 12.4052 106.404 12.9552 105.246C13.2256 104.666 13.5502 104.116 13.8447 103.545C14.1422 102.976 14.3706 102.366 14.4818 101.734C14.5509 101.422 14.5659 101.103 14.599 100.79C14.605 100.475 14.6291 100.159 14.617 99.8463C14.611 99.2209 14.59 98.6015 14.5599 97.9851C14.4998 96.7524 14.4127 95.5376 14.3165 94.341C14.1182 91.9476 13.8868 89.6205 13.6343 87.3744L13.6313 87.3594L13.6223 87.3444C12.9732 86.1627 12.5615 84.8729 12.243 83.61C11.9394 82.3412 11.7321 81.0664 11.6509 79.8216C11.6119 78.5738 11.7501 77.3501 12.0056 76.1895C12.255 75.0259 12.6006 73.9134 13.0273 72.8791L13.0243 72.8851C13.6253 71.8208 14.2053 70.7864 14.7372 69.8423L14.6892 69.8724C20.6845 69.5477 25.64 69.2801 29.2041 69.0877L29.168 69.0546C29.2371 71.3126 29.2912 73.0625 29.3303 74.2502C29.3513 74.8395 29.3664 75.2905 29.3754 75.5972C29.3904 75.8948 29.4024 76.0482 29.4024 76.0482Z" fill="#455A64"/>
<path d="M24.6813 48.4617C24.6813 48.4617 20.7595 47.7701 21.1382 52.8003C21.3636 55.8131 22.2501 60.9665 22.7399 64.2589C22.9082 65.3984 23.2809 67.437 24.7865 68.6336L35.575 76.1053L38.9798 72.0312L29.3453 62.8487L27.8307 53.7685L24.6813 48.4617Z" fill="#455A64"/>
<path d="M25.1379 30.3312C26.382 31.3114 27.0943 32.935 26.971 34.5165C26.9109 35.2833 26.7006 36.1612 27.1994 36.7475C27.6923 37.3278 28.666 37.3098 29.1378 37.9081C29.6967 38.6117 29.2279 39.658 29.4293 40.533C29.6156 41.3538 30.4841 41.9612 31.3195 41.8529C30.3398 42.6527 29.1348 43.1759 27.8816 43.3442C27.5601 42.9323 27.2415 42.5204 26.92 42.1085C27.2836 42.5414 27.1874 43.23 26.8358 43.672C26.4842 44.114 25.9373 44.3545 25.3993 44.5259C22.8239 45.3437 19.8729 44.8626 17.6911 43.2721" fill="#263238"/>
<path d="M10.7072 37.1174C10.8995 36.528 11.2211 35.9838 11.3503 35.3765C11.6298 34.0746 10.9957 32.6103 11.6268 31.4377C12.0776 30.6048 13.0332 30.1959 13.9377 29.9163C14.8423 29.6367 15.813 29.4021 16.4891 28.7377C16.985 28.2506 17.2645 27.5801 17.7603 27.09C18.4635 26.3924 19.5003 26.1579 20.489 26.0948C21.5047 26.0316 22.5535 26.1308 23.4641 26.5788C24.3777 27.0268 25.135 27.8687 25.2972 28.873C25.3754 29.3631 25.3153 29.8742 25.4715 30.3462C25.6398 30.8634 26.0485 31.2663 26.298 31.7504C26.8269 32.7727 26.5414 34.1497 25.6458 34.8774L18.6799 43.8794C17.2164 44.4327 13.6703 43.7622 12.5404 42.6828C11.4104 41.6004 10.2204 38.6057 10.7072 37.1174Z" fill="#263238"/>
<path d="M25.4626 33.7318C25.1741 31.6872 23.6204 29.2728 21.592 29.6457L15.3292 31.7534C14.7131 31.8676 15.1549 32.8719 15.215 33.4973L16.5763 47.6288C16.5673 47.6318 15.7319 48.2331 15.4284 48.1159C15.3502 48.0858 15.2811 48.173 15.3262 48.2422C16.0775 49.3336 19.6296 54.1112 23.2869 52.653C24.1043 52.3283 23.2027 49.7515 23.2959 48.7954L23.1877 46.357C23.1066 45.1122 23.0675 44.601 23.0705 44.6131C23.0705 44.6131 25.6609 43.9756 25.9404 40.5119C26.0817 38.7891 25.7842 36.0049 25.4626 33.7318Z" fill="#FFBF9D"/>
<path d="M25.0267 36.8798C25.0537 37.1113 24.8794 37.3248 24.639 37.3549C24.3986 37.3849 24.1822 37.2256 24.1552 36.9941C24.1282 36.7626 24.3025 36.5491 24.5429 36.519C24.7863 36.4859 25.0027 36.6483 25.0267 36.8798Z" fill="#263238"/>
<path d="M20.7624 37.1474C20.7894 37.3789 20.6151 37.5924 20.3747 37.6225C20.1343 37.6525 19.9179 37.4932 19.8909 37.2617C19.8638 37.0302 20.0381 36.8167 20.2786 36.7866C20.522 36.7535 20.7383 36.9159 20.7624 37.1474Z" fill="#263238"/>
<path d="M25.1861 35.4306C25.138 35.5118 24.7293 35.2532 24.2184 35.3284C23.7075 35.3945 23.38 35.7523 23.3138 35.6892C23.2808 35.6621 23.3198 35.5208 23.4641 35.3614C23.6023 35.2021 23.8578 35.0277 24.1763 34.9826C24.4949 34.9405 24.7834 35.0367 24.9607 35.154C25.135 35.2712 25.2101 35.3945 25.1861 35.4306Z" fill="#263238"/>
<path d="M20.5941 35.8094C20.534 35.8846 20.1313 35.593 19.5814 35.614C19.0314 35.629 18.6408 35.9477 18.5777 35.8786C18.5476 35.8485 18.6047 35.7162 18.776 35.5719C18.9413 35.4276 19.2328 35.2833 19.5754 35.2712C19.918 35.2592 20.2125 35.3825 20.3838 35.5148C20.5611 35.6501 20.6242 35.7764 20.5941 35.8094Z" fill="#263238"/>
<path d="M22.3193 39.0477C22.3163 39.0206 22.6048 38.9484 23.0766 38.8492C23.1968 38.8282 23.308 38.7951 23.323 38.7109C23.344 38.6207 23.2839 38.4944 23.2148 38.3591C23.0796 38.0765 22.9383 37.7788 22.7881 37.4691C22.193 36.2003 21.7513 35.151 21.8024 35.1269C21.8535 35.1029 22.3794 36.1131 22.9744 37.3819C23.1186 37.6946 23.2569 37.9953 23.3861 38.281C23.4432 38.4132 23.5333 38.5636 23.4853 38.75C23.4612 38.8432 23.3771 38.9154 23.3019 38.9424C23.2268 38.9725 23.1577 38.9785 23.1006 38.9875C22.6198 39.0507 22.3223 39.0747 22.3193 39.0477Z" fill="#263238"/>
<path d="M23.0733 44.6131C23.0733 44.6131 20.7834 44.9378 18.3973 43.7411C18.3973 43.7411 19.7346 46.0563 23.1334 45.473L23.0733 44.6131Z" fill="#FF9A6C"/>
<path d="M20.8766 40.4277C20.9397 40.3195 21.0088 40.2022 21.12 40.1391C21.2402 40.0699 21.3904 40.0729 21.5287 40.097C21.73 40.1331 21.9254 40.2203 22.0636 40.3706C22.2018 40.5209 22.268 40.7434 22.1988 40.9359C22.1447 41.1343 21.8502 41.2426 21.6489 41.2756C21.4475 41.3117 21.2372 41.2516 21.0599 41.1523C20.9096 41.0682 20.7654 40.9329 20.7594 40.7615C20.7534 40.6442 20.8165 40.533 20.8766 40.4277Z" fill="#FF9A6C"/>
<path d="M20.9759 39.7633C21.051 39.7542 21.0931 40.2654 21.5589 40.5961C22.0247 40.9269 22.5656 40.8276 22.5777 40.8998C22.5867 40.9329 22.4635 41.008 22.2321 41.0321C22.0067 41.0561 21.6701 41.011 21.3846 40.8066C21.0991 40.6051 20.9609 40.3135 20.9278 40.106C20.8918 39.8925 20.9399 39.7633 20.9759 39.7633Z" fill="#263238"/>
<path d="M20.5521 33.9603C20.516 34.0926 20.0382 34.0685 19.4913 34.1768C18.9413 34.276 18.5056 34.4714 18.4245 34.3632C18.3884 34.3121 18.4575 34.1828 18.6258 34.0445C18.7941 33.9062 19.0706 33.7679 19.4011 33.7047C19.7317 33.6416 20.0382 33.6717 20.2486 33.7378C20.4589 33.807 20.5671 33.8972 20.5521 33.9603Z" fill="#263238"/>
<path d="M24.8945 33.7017C24.8074 33.816 24.4287 33.7348 23.981 33.7619C23.5332 33.7769 23.1605 33.8972 23.0644 33.7919C23.0223 33.7408 23.0734 33.6296 23.2297 33.5153C23.3859 33.4011 23.6504 33.2988 23.9599 33.2838C24.2664 33.2688 24.5399 33.3469 24.7052 33.4432C24.8705 33.5394 24.9306 33.6476 24.8945 33.7017Z" fill="#263238"/>
<path d="M13.9468 32.2465C14.2623 31.7594 14.8303 31.5098 15.3712 31.2994C17.7032 30.3974 20.1464 29.775 22.6257 29.4503C22.9352 29.9584 22.6497 30.6529 22.1839 31.0228C21.7181 31.3926 21.1201 31.5399 20.5612 31.7474C20.0022 31.9548 19.4312 32.2766 19.2028 32.8268C18.9594 33.4101 19.1638 34.1046 18.9504 34.7C18.5808 35.7252 17.1503 36.056 16.7867 37.0843C16.5132 37.86 16.961 38.6899 17.0752 39.5047C17.2014 40.4307 16.8588 41.4079 16.1826 42.0514C15.6477 42.5595 14.9175 42.8421 14.1842 42.8572C14.0159 39.9136 13.8446 36.973 13.6763 34.0295C13.6373 33.4221 13.6132 32.7606 13.9468 32.2465Z" fill="#263238"/>
<path d="M8.02057 39.6791C8.48637 39.2611 9.06637 38.9033 9.25269 38.305C9.52315 37.4361 8.82595 36.4168 9.27372 35.626C9.68242 34.9044 10.8875 34.9405 11.2691 34.2039C11.5667 33.6296 11.2241 33.1184 11.3383 32.6133C11.4525 32.1082 12.1677 31.6662 12.6816 31.7263L16.6995 37.5503C17.0721 39.5047 17.4478 40.545 17.027 41.6875C16.7956 42.316 16.4981 42.9263 16.408 43.5878C16.3178 44.2493 16.4861 44.9979 17.027 45.3918C14.6259 45.5812 12.375 44.3214 10.2955 43.1067C9.56222 42.6768 8.82896 42.2498 8.09269 41.8198C7.8643 41.6845 7.62389 41.5432 7.48866 41.3147C7.16711 40.7855 7.55778 40.097 8.02057 39.6791Z" fill="#263238"/>
<path d="M10.2354 42.5204C10.2354 42.5204 10.3195 42.5535 10.4908 42.5685C10.6621 42.5865 10.9205 42.5926 11.2391 42.5144C11.5546 42.4362 11.9393 42.2769 12.2819 41.9521C12.6245 41.6334 12.9009 41.1373 12.9701 40.548C13.0031 40.2533 12.9821 39.9376 12.8919 39.6249C12.7988 39.3122 12.6245 39.0206 12.4472 38.732C12.2699 38.4433 12.0775 38.1456 11.9874 37.8059C11.9002 37.4721 11.8972 37.0753 12.1166 36.7866C12.336 36.495 12.7417 36.4228 13.1173 36.2695C13.3066 36.1943 13.502 36.077 13.6282 35.8906C13.7544 35.7042 13.7965 35.4757 13.7935 35.2592C13.7875 34.8202 13.6011 34.4173 13.52 34.0084C13.4779 33.804 13.4629 33.5905 13.517 33.395C13.5681 33.1996 13.6913 33.0252 13.8626 32.908C14.2082 32.6614 14.6529 32.6193 15.0767 32.5832C15.5064 32.5532 15.9542 32.457 16.3148 32.2194C16.6814 31.9939 16.9729 31.6692 17.1623 31.2994C17.3486 30.9265 17.4147 30.5266 17.4748 30.1478C17.5319 29.769 17.586 29.3991 17.7092 29.0684C17.8354 28.7377 18.0368 28.449 18.2742 28.2175C18.758 27.7575 19.371 27.5109 19.936 27.4658C20.504 27.4177 21.0209 27.568 21.4236 27.7755C21.8293 27.983 22.1328 28.2446 22.3492 28.4791C22.7819 28.9602 22.9021 29.3089 22.9201 29.2999C22.9231 29.2999 22.9141 29.2789 22.8961 29.2368C22.8781 29.1977 22.854 29.1345 22.8119 29.0594C22.7338 28.906 22.6016 28.6896 22.3852 28.443C22.1718 28.1965 21.8683 27.9258 21.4566 27.7064C21.0479 27.4869 20.519 27.3245 19.924 27.3666C19.338 27.4087 18.7009 27.6552 18.19 28.1333C17.9406 28.3769 17.7242 28.6775 17.592 29.0263C17.4568 29.3751 17.4027 29.7539 17.3456 30.1298C17.2855 30.5056 17.2163 30.8935 17.042 31.2422C16.8647 31.588 16.5883 31.8917 16.2427 32.1052C15.9001 32.3277 15.4914 32.4149 15.0647 32.4479C14.6439 32.487 14.1691 32.5231 13.7814 32.7967C13.5891 32.929 13.4389 33.1335 13.3818 33.362C13.3217 33.5905 13.3397 33.822 13.3848 34.0385C13.4719 34.4714 13.6552 34.8623 13.6582 35.2652C13.6612 35.4637 13.6222 35.6621 13.517 35.8154C13.4118 35.9718 13.2465 36.074 13.0662 36.1492C12.8859 36.2244 12.6936 36.2755 12.5073 36.3567C12.3209 36.4318 12.1376 36.5431 12.0144 36.7114C11.762 37.0512 11.774 37.4872 11.8702 37.839C11.9693 38.2058 12.1737 38.5064 12.351 38.7951C12.5313 39.0837 12.7026 39.3634 12.7928 39.658C12.8829 39.9527 12.9039 40.2564 12.8769 40.539C12.8198 41.1072 12.5583 41.5853 12.2338 41.898C11.9092 42.2137 11.5396 42.3791 11.2301 42.4633C10.599 42.6226 10.2354 42.4963 10.2354 42.5204Z" fill="#455A64"/>
<path d="M7.03192 38.3802C7.03192 38.3802 6.98384 38.4403 6.95379 38.5756C6.92373 38.7109 6.92674 38.9334 7.05596 39.1709C7.12207 39.2852 7.22125 39.4055 7.36249 39.4957C7.50373 39.5828 7.68103 39.637 7.87637 39.631C8.25802 39.634 8.7088 39.4055 8.92817 38.9635C9.03937 38.747 9.09947 38.4944 9.09947 38.2298C9.09947 37.9652 9.03035 37.6946 8.93118 37.4361C8.74185 36.9159 8.39326 36.4108 8.38725 35.8004C8.38124 35.5058 8.45035 35.187 8.66673 34.9736C8.88009 34.7571 9.21066 34.703 9.53822 34.7C9.86879 34.6879 10.2264 34.73 10.578 34.5917C10.7493 34.5226 10.9056 34.3933 11.0047 34.2309C11.1069 34.0685 11.158 33.8851 11.179 33.7017C11.2241 33.3259 11.137 32.9711 11.0919 32.6343C11.0378 32.2946 11.0588 31.9608 11.146 31.6451C11.3233 31.0137 11.747 30.4815 12.2639 30.1779C12.7838 29.8652 13.3878 29.8291 13.9288 29.796C14.4757 29.766 15.0016 29.7329 15.4494 29.5555C15.8971 29.3901 16.2548 29.1376 16.5252 28.879C16.7987 28.6204 16.985 28.3498 17.1142 28.1213C17.3697 27.6552 17.3997 27.3576 17.3997 27.3576C17.3817 27.3516 17.3306 27.6432 17.0661 28.0942C16.9309 28.3167 16.7446 28.5753 16.4711 28.8218C16.2007 29.0684 15.8491 29.3089 15.4133 29.4623C14.9806 29.6276 14.4697 29.6547 13.9197 29.6788C13.3788 29.7058 12.7537 29.7329 12.1948 30.0636C11.6448 30.3823 11.2001 30.9386 11.0107 31.6061C10.9176 31.9368 10.8935 32.3036 10.9506 32.6524C10.9957 33.0012 11.0769 33.3469 11.0378 33.6867C11.0047 34.0265 10.8274 34.3482 10.5209 34.4654C10.2174 34.5887 9.86879 34.5556 9.53221 34.5647C9.19864 34.5677 8.81999 34.6218 8.56756 34.8804C8.31512 35.1329 8.246 35.4907 8.25502 35.8034C8.26103 36.1251 8.3572 36.4288 8.4744 36.6994C8.5916 36.973 8.72082 37.2256 8.81999 37.4782C8.91916 37.7307 8.98527 37.9833 8.98828 38.2298C8.99128 38.4764 8.93719 38.7139 8.83802 38.9154C8.63968 39.3273 8.23098 39.5468 7.87336 39.5498C7.69306 39.5558 7.52777 39.5107 7.39554 39.4355C7.26332 39.3573 7.16715 39.2491 7.10104 39.1409C6.97182 38.9214 6.95679 38.7079 6.97783 38.5786C7.00187 38.4463 7.03793 38.3832 7.03192 38.3802Z" fill="#263238"/>
<path d="M32.3444 39.8144C32.3234 39.8114 32.4736 40.0459 32.3354 40.4428C32.2663 40.6292 32.11 40.8577 31.8365 40.9479C31.5691 41.0381 31.1995 40.9689 30.956 40.7074C30.8328 40.5781 30.7607 40.4007 30.7487 40.2052C30.7367 40.0098 30.7757 39.8023 30.8418 39.5979C30.9681 39.192 31.2295 38.747 31.1904 38.2178C31.1604 37.7037 30.9019 37.1775 30.4602 36.8287C30.2408 36.6543 29.9854 36.519 29.7119 36.4348C29.4354 36.3446 29.1409 36.3266 28.8554 36.3116C28.5699 36.2965 28.2875 36.2905 28.026 36.2244C27.7646 36.1612 27.5302 36.0289 27.3799 35.8215C27.2296 35.617 27.1635 35.3614 27.1455 35.1119C27.1275 34.8593 27.1575 34.6128 27.2086 34.3722C27.3078 33.8912 27.452 33.4251 27.425 32.9651C27.4009 32.5081 27.2266 32.1022 26.9952 31.7985C26.7638 31.4858 26.4633 31.2964 26.2139 31.137C25.9615 30.9777 25.7451 30.8424 25.5888 30.704C25.2673 30.4334 25.2132 30.1869 25.1951 30.1989C25.1921 30.1989 25.1951 30.214 25.2042 30.241C25.2132 30.2681 25.2252 30.3102 25.2522 30.3583C25.3003 30.4605 25.3935 30.6018 25.5498 30.7461C25.706 30.8935 25.9194 31.0408 26.1688 31.2032C26.4152 31.3685 26.7007 31.5579 26.9141 31.8586C27.1305 32.1533 27.2897 32.5411 27.3078 32.9711C27.3288 33.4041 27.1876 33.8551 27.0824 34.3452C27.0313 34.5887 26.9952 34.8533 27.0133 35.1209C27.0313 35.3885 27.1004 35.6681 27.2687 35.9026C27.44 36.1402 27.7105 36.2905 27.993 36.3597C28.2754 36.4288 28.5639 36.4348 28.8494 36.4499C29.1349 36.4649 29.4114 36.4829 29.6698 36.5671C29.9283 36.6453 30.1687 36.7716 30.373 36.9339C30.7847 37.2587 31.0312 37.7457 31.0612 38.2238C31.1033 38.7079 30.8629 39.1348 30.7307 39.5618C30.6645 39.7783 30.6255 39.9978 30.6405 40.2143C30.6555 40.4277 30.7427 40.6352 30.8839 40.7765C31.1634 41.0652 31.5691 41.1313 31.8636 41.0231C32.1641 40.9118 32.3234 40.6623 32.3895 40.4608C32.4586 40.2533 32.4406 40.079 32.4135 39.9707C32.3805 39.8625 32.3444 39.8144 32.3444 39.8144Z" fill="#263238"/>
<path d="M29.4715 63.3659V60.0375C29.8441 58.1733 29.6668 55.9604 28.8013 54.2526C28.2965 53.2574 27.1365 51.6728 26.7158 51.0805L23.4041 46.7869C21.5829 48.1129 18.7341 47.1537 16.2879 46.2638C16.2879 46.2638 13.8717 47.6017 12.7478 48.8585C11.5668 50.1815 15.6057 66.7334 15.6057 66.7334C13.7755 70.3956 11.4165 73.6398 11.0559 76.9863L30.1687 77.7229L29.3573 68.9554L29.4715 63.3659Z" fill="#38A585"/>
<path d="M29.2071 69.0456C29.1951 69.0456 29.1921 68.9103 29.1921 68.6697C29.1951 68.3961 29.1981 68.0564 29.2041 67.6505C29.2191 66.7575 29.2371 65.5849 29.2582 64.289C29.2822 62.975 29.3183 61.7874 29.3604 60.9275C29.3814 60.4975 29.4024 60.1487 29.4205 59.9082C29.4415 59.6677 29.4565 59.5354 29.4655 59.5354C29.4776 59.5354 29.4806 59.6707 29.4806 59.9112C29.4776 60.1848 29.4746 60.5246 29.4685 60.9305C29.4535 61.8235 29.4355 62.9961 29.4144 64.292C29.3904 65.6059 29.3543 66.7935 29.3123 67.6535C29.2912 68.0834 29.2702 68.4322 29.2522 68.6727C29.2341 68.9163 29.2161 69.0486 29.2071 69.0456Z" fill="#263238"/>
<path d="M37.9371 72.0733C37.9371 72.0733 39.7973 72.1756 40.9543 72.8972C42.1082 73.6218 43.9624 74.7433 44.7257 76.1354C45.0773 76.7758 44.0766 76.9111 43.5808 76.5383C43.0879 76.1655 42.3306 75.4679 41.955 75.3807C41.5793 75.2935 41.5793 75.2935 41.5793 75.2935C41.5793 75.2935 42.3336 76.9743 42.7243 77.5636C43.115 78.1529 43.4515 79.1631 42.2855 79.2113C42.2855 79.2113 41.4982 80.2335 40.7048 79.4758C40.7048 79.4758 40.0858 80.4019 39.0881 79.118C39.0881 79.118 38.5081 79.8547 38.2646 79.5721C38.0212 79.2924 37.2279 78.8444 36.9965 77.9244C36.7651 77.0043 35.7914 74.7703 35.7914 74.7703L37.9371 72.0733Z" fill="#FFBF9D"/>
<path d="M79.6517 46.2337C79.8591 46.2367 88.3938 45.3377 88.3938 45.3377C88.3938 45.3377 89.115 41.8649 89.0789 40.9629C89.0399 40.0609 88.4328 34.0926 88.4328 34.0926L91.6273 32.5802C91.6273 32.5802 95.8976 46.9884 94.963 48.188C94.0284 49.3847 92.2794 50.4551 92.1292 50.4611C91.9789 50.4671 83.862 54.0662 78.2153 52.196C72.5656 50.3288 79.6517 46.2337 79.6517 46.2337Z" fill="#FFBF9D"/>
<path d="M72.1749 54.012C73.4311 55.2598 75.5948 56.2941 79.204 55.3951C86.3472 53.6121 91.6964 52.0998 93.8271 50.9452C95.9547 49.7876 95.1253 44.6973 95.3056 44.4657C95.8466 43.7682 95.2545 42.2708 94.4852 42.0363C92.3005 41.3748 88.4989 41.6364 88.3066 41.8349C87.1857 43.0135 88.2074 44.4447 88.2074 44.4447L78.7923 45.6774C78.7923 45.6774 77.1545 45.5662 75.3333 45.8999" fill="#455A64"/>
<path d="M75.3335 45.8999C75.3335 45.8999 75.4086 45.8789 75.5589 45.8518C75.7092 45.8218 75.9315 45.7857 76.226 45.7496C76.812 45.6775 77.6805 45.5963 78.7955 45.6414H78.7894C81.0373 45.3407 84.2859 44.9047 88.2016 44.3786L88.1565 44.4838C87.865 44.0388 87.6817 43.5006 87.7238 42.9353C87.7448 42.6557 87.844 42.3761 87.9942 42.1355C88.0634 42.0093 88.1625 41.904 88.2527 41.7928C88.2827 41.7687 88.3368 41.7387 88.3759 41.7266L88.4841 41.6996C88.5562 41.6815 88.6253 41.6755 88.6974 41.6605C89.8274 41.5162 90.9994 41.5102 92.2075 41.5853C92.8115 41.6274 93.4246 41.6996 94.0346 41.8379C94.1879 41.874 94.3381 41.9161 94.4914 41.9551C94.6507 42.0063 94.8009 42.0935 94.9211 42.2077C95.1676 42.4302 95.3328 42.7219 95.453 43.0255C95.5672 43.3322 95.6213 43.669 95.5763 44.0057C95.5432 44.1711 95.4951 44.3425 95.3869 44.4838C95.3599 44.5139 95.3629 44.595 95.3599 44.6732L95.3629 44.9137C95.3869 45.5602 95.414 46.2187 95.399 46.8831C95.3719 47.8272 95.2878 48.7804 94.9512 49.6553C94.7829 50.0883 94.5365 50.5092 94.1668 50.8069C93.9865 50.9632 93.7732 51.0595 93.5748 51.1617C93.3735 51.2669 93.1661 51.3511 92.9618 51.4443C92.1414 51.7961 91.3119 52.0847 90.5005 52.3523C89.6861 52.6229 88.8838 52.8665 88.0994 53.095C84.959 54.009 82.1011 54.7276 79.703 55.326C79.105 55.4793 78.525 55.6056 77.972 55.6868C77.4161 55.7529 76.8902 55.798 76.3943 55.771C75.4056 55.7439 74.5672 55.5154 73.9331 55.2358C73.296 54.9531 72.8603 54.6284 72.5808 54.3939C72.3013 54.1594 72.1781 54.012 72.1781 54.012C72.1871 54.003 72.3163 54.1443 72.6018 54.3698C72.8843 54.5953 73.3261 54.908 73.9572 55.1816C74.5882 55.4492 75.4177 55.6657 76.3943 55.6838C76.8842 55.7048 77.4041 55.6567 77.954 55.5876C78.504 55.5034 79.0719 55.3771 79.673 55.2177C82.0681 54.6074 84.92 53.8767 88.0543 52.9567C88.8387 52.7252 89.6381 52.4786 90.4495 52.208C91.2609 51.9374 92.0843 51.6488 92.8987 51.3C93.1 51.2068 93.3074 51.1256 93.5027 51.0204C93.704 50.9181 93.9054 50.8279 94.0677 50.6836C94.4072 50.41 94.6417 50.0131 94.8039 49.5952C95.1285 48.7503 95.2126 47.8092 95.2397 46.8741C95.2577 46.2156 95.2277 45.5632 95.2036 44.9137L95.2006 44.6672C95.2006 44.6251 95.2036 44.583 95.2066 44.5379C95.2126 44.5139 95.2096 44.4958 95.2186 44.4627C95.2247 44.4447 95.2337 44.4267 95.2427 44.4116L95.2577 44.3876C95.3479 44.2703 95.3899 44.123 95.42 43.9757C95.4591 43.675 95.411 43.3623 95.3028 43.0736C95.1916 42.788 95.0353 42.5174 94.8129 42.316C94.7048 42.2137 94.5785 42.1416 94.4403 42.0965C94.2901 42.0574 94.1428 42.0153 93.9955 41.9792C93.3975 41.8439 92.7905 41.7717 92.1924 41.7266C90.9964 41.6485 89.8214 41.6515 88.7125 41.7928C88.6464 41.8048 88.5742 41.8108 88.5111 41.8289L88.415 41.8529C88.3879 41.8649 88.3759 41.8649 88.3519 41.88C88.2677 41.9852 88.1715 42.0814 88.1084 42.1987C87.9672 42.4242 87.877 42.6768 87.856 42.9383C87.8139 43.4585 87.9912 43.9787 88.2587 44.3966L88.3188 44.4868L88.2136 44.4988C84.2949 45.0009 81.0433 45.4159 78.7924 45.7045H78.7894H78.7864C77.6835 45.6474 76.812 45.7165 76.226 45.7767C75.9315 45.8067 75.7092 45.8368 75.5589 45.8609C75.4116 45.8939 75.3335 45.8999 75.3335 45.8999Z" fill="#263238"/>
<path d="M123.44 9.81045L123.768 10.4028C124.735 12.1406 124.11 14.3325 122.373 15.2977L49.8407 55.6928L46.0121 48.8104L118.548 8.41534C120.282 7.45018 122.475 8.07257 123.44 9.81045Z" fill="#F7BA34"/>
<path d="M107.032 0.345338L115.915 16.3109L110.665 19.2365L101.782 3.27086C101.601 2.94614 101.719 2.53723 102.043 2.35682L106.118 0.0867617C106.44 -0.0966474 106.851 0.0206142 107.032 0.345338Z" fill="#F7BA34"/>
<path d="M98.4399 8.87837L104.913 20.5113C105.174 20.9834 105.006 21.5757 104.534 21.8373L100.988 23.8127C100.516 24.0743 99.9244 23.9059 99.663 23.4338L93.1899 11.8009C92.9284 11.3288 93.0967 10.7365 93.5685 10.4749L97.1146 8.49953C97.5864 8.23795 98.1784 8.40632 98.4399 8.87837Z" fill="#F7BA34"/>
<path d="M98.9018 11.1149L102.91 18.3188L111.066 13.7764L107.058 6.57247L98.9018 11.1149Z" fill="#F7BA34"/>
<path d="M117.481 9.01067C117.502 9.04975 103.266 17.0175 85.692 26.8044C68.1088 36.5942 53.8434 44.4988 53.8223 44.4627C53.8013 44.4237 68.0337 36.4589 85.6139 26.666C103.191 16.8792 117.46 8.97158 117.481 9.01067Z" fill="#263238"/>
<path d="M20.4652 69.0095C25.8114 78.6189 37.0897 82.5427 45.6574 77.774C54.2251 73.0054 56.8336 61.3454 51.4874 51.733C46.1412 42.1205 34.8629 38.1998 26.2952 42.9684C17.7305 47.7401 15.119 59.3971 20.4652 69.0095ZM46.8475 54.3157C50.5949 61.0507 48.7647 69.22 42.7634 72.5634C36.7591 75.9069 28.8556 73.1557 25.1111 66.4237C21.3637 59.6887 23.1939 51.5195 29.1952 48.176C35.1965 44.8326 43.1 47.5837 46.8475 54.3157Z" fill="#F7BA34"/>
<path d="M61.9574 39.8294L65.9152 46.9433C66.4411 47.8904 66.1015 49.081 65.1579 49.6072L64.8363 49.7876C63.8897 50.3138 62.6996 49.974 62.1737 49.0299L58.2159 41.9161C57.69 40.969 58.0296 39.7783 58.9732 39.2521L59.2948 39.0717C60.2384 38.5425 61.4315 38.8823 61.9574 39.8294Z" fill="#F7BA34"/>
<path d="M69.5604 35.596L73.5182 42.7098C74.0441 43.6569 73.7045 44.8476 72.7609 45.3738L72.4394 45.5542C71.4927 46.0803 70.3027 45.7406 69.7768 44.7965L65.819 37.6826C65.2931 36.7355 65.6327 35.5448 66.5763 35.0187L66.8978 34.8383C67.8415 34.3091 69.0345 34.6488 69.5604 35.596Z" fill="#F7BA34"/>
<path d="M61.8764 39.7061C61.9154 39.6851 62.832 41.2997 63.9289 43.3112C65.0258 45.3227 65.8822 46.9703 65.8432 46.9914C65.8041 47.0124 64.8875 45.3978 63.7906 43.3863C62.6938 41.3749 61.8373 39.7272 61.8764 39.7061Z" fill="#263238"/>
<path d="M58.3872 42.2017C58.4263 42.1806 59.3218 43.7201 60.3887 45.6414C61.4585 47.5626 62.2939 49.1352 62.2549 49.1562C62.2158 49.1772 61.3203 47.6378 60.2504 45.7165C59.1866 43.7983 58.3512 42.2227 58.3872 42.2017Z" fill="#263238"/>
<path d="M69.5243 35.5298C69.5634 35.5088 70.495 37.1174 71.6099 39.1198C72.7248 41.1223 73.5963 42.764 73.5603 42.785C73.5212 42.806 72.5896 41.2005 71.4747 39.195C70.3598 37.1925 69.4853 35.5509 69.5243 35.5298Z" fill="#263238"/>
<path d="M65.8551 37.7488C65.8942 37.7277 66.8077 39.3243 67.8986 41.3147C68.9895 43.3052 69.843 44.9348 69.8039 44.9558C69.7648 44.9769 68.8512 43.3803 67.7604 41.3899C66.6695 39.3994 65.816 37.7698 65.8551 37.7488Z" fill="#263238"/>
<path d="M87.6513 26.9036C88.3425 26.9848 89.0517 26.4766 89.202 25.7971C89.3522 25.1176 88.9195 24.3599 88.2584 24.1404C88.6881 23.7014 88.7993 22.9768 88.5168 22.4296C88.2343 21.8824 87.5822 21.5516 86.9752 21.6448C86.9511 21.0375 86.5905 20.4542 86.0556 20.1625C85.5207 19.8709 84.8355 19.8829 84.3126 20.1896C83.6424 19.6123 82.5606 19.5883 81.8634 20.1355C81.2744 20.0242 80.6283 20.3399 80.3518 20.8721C80.0723 21.4043 80.1835 22.1139 80.6132 22.5348" fill="#263238"/>
<path d="M81.5539 21.5396H81.8664C85.0068 21.5486 87.6153 23.969 87.8557 27.102C88.0811 30.0155 88.2944 33.2387 88.2704 34.7992C88.2193 38.0344 84.9858 38.5275 84.9858 38.5275L85.2472 42.4152L77.3977 42.1476L76.7456 28.0461C76.4661 24.6906 78.1881 21.726 81.5539 21.5396Z" fill="#FFBF9D"/>
<path d="M85.0128 38.5275C85.0128 38.5275 82.9482 38.6448 80.7785 37.2737C80.7785 37.2737 81.8183 39.7242 85.0459 39.4415L85.0128 38.5275Z" fill="#FF9A6C"/>
<path d="M86.0827 30.1418C86.0917 30.3853 85.8904 30.5928 85.6349 30.6078C85.3795 30.6199 85.1691 30.4335 85.1601 30.1899C85.1511 29.9464 85.3525 29.7389 85.6049 29.7239C85.8603 29.7118 86.0737 29.8983 86.0827 30.1418Z" fill="#263238"/>
<path d="M87.1555 28.6836C87.0984 28.7437 86.7498 28.4821 86.251 28.4821C85.7551 28.4761 85.3885 28.7286 85.3344 28.6685C85.3073 28.6415 85.3675 28.5332 85.5267 28.419C85.683 28.3047 85.9505 28.1935 86.26 28.1965C86.5695 28.1995 86.831 28.3137 86.9782 28.431C87.1345 28.5482 87.1856 28.6565 87.1555 28.6836Z" fill="#263238"/>
<path d="M81.5988 29.9283C81.6078 30.1719 81.4065 30.3793 81.151 30.3944C80.8956 30.4064 80.6852 30.22 80.6762 29.9764C80.6672 29.7329 80.8686 29.5254 81.124 29.5104C81.3764 29.4984 81.5898 29.6848 81.5988 29.9283Z" fill="#263238"/>
<path d="M82.272 28.7617C82.2149 28.8219 81.8663 28.5603 81.3674 28.5603C80.8716 28.5543 80.5049 28.8068 80.4508 28.7467C80.4238 28.7196 80.4839 28.6114 80.6432 28.4971C80.7995 28.3829 81.0669 28.2716 81.3764 28.2746C81.686 28.2776 81.9474 28.3919 82.0947 28.5092C82.2479 28.6264 82.299 28.7347 82.272 28.7617Z" fill="#263238"/>
<path d="M84.0631 32.457C84.0601 32.4299 84.3696 32.3758 84.8715 32.3126C84.9977 32.3006 85.1179 32.2766 85.1389 32.1894C85.169 32.0992 85.1179 31.9609 85.0548 31.8135C84.9376 31.5068 84.8114 31.1821 84.6821 30.8454C84.1652 29.4683 83.7926 28.3348 83.8467 28.3137C83.9038 28.2927 84.3666 29.3931 84.8835 30.7732C85.0067 31.113 85.1269 31.4377 85.2411 31.7474C85.2892 31.8917 85.3703 32.0571 85.3042 32.2465C85.2711 32.3427 85.175 32.4089 85.0938 32.4329C85.0127 32.457 84.9406 32.46 84.8775 32.463C84.3786 32.481 84.0661 32.484 84.0631 32.457Z" fill="#263238"/>
<path d="M82.7078 26.8495C82.6417 26.9757 82.215 26.8374 81.6921 26.8194C81.1692 26.7893 80.7274 26.8855 80.6793 26.7562C80.6583 26.6931 80.7515 26.5819 80.9408 26.4796C81.1271 26.3804 81.4126 26.3022 81.7281 26.3173C82.0437 26.3323 82.3141 26.4345 82.4854 26.5518C82.6597 26.6691 82.7379 26.7893 82.7078 26.8495Z" fill="#263238"/>
<path d="M87.1884 26.633C87.0833 26.7442 86.6745 26.627 86.1817 26.621C85.6889 26.5999 85.2711 26.6931 85.175 26.5758C85.1329 26.5187 85.199 26.4045 85.3823 26.2992C85.5626 26.194 85.8632 26.1068 86.2027 26.1158C86.5423 26.1248 86.8338 26.2301 87.0051 26.3443C87.1764 26.4616 87.2335 26.5789 87.1884 26.633Z" fill="#263238"/>
<path d="M87.5492 25.6197C87.5492 25.6197 86.7017 23.5902 85.728 23.1151C84.547 22.5378 84.0331 23.8367 82.9092 23.518C81.7823 23.1993 80.6553 22.6461 79.5013 23.515C78.2392 24.4651 78.8252 25.1356 78.7441 26.5728C78.4105 32.3938 77.3437 34.0355 77.0491 31.2934C77.0161 30.9927 76.1837 30.7522 76.0635 29.4833C75.9072 27.8357 75.8501 25.8392 76.2227 24.6726C76.5353 23.6894 77.0972 23.0099 78.107 22.2642C79.6997 21.0856 81.8784 21.0676 83.36 21.2209C84.8415 21.3682 87.6934 23.0821 87.5492 25.6197Z" fill="#263238"/>
<path d="M77.2564 31.2032C77.2384 30.7041 76.8087 30.3072 76.3098 30.3553C75.7058 30.4094 75.0356 30.7522 75.0717 31.9999C75.1348 34.2129 77.3436 33.6927 77.3436 33.6296C77.3466 33.5815 77.2925 32.1262 77.2564 31.2032Z" fill="#FFBF9D"/>
<path d="M76.8387 32.8057C76.8296 32.7997 76.7996 32.8328 76.7365 32.8659C76.6734 32.8959 76.5652 32.92 76.448 32.8809C76.2106 32.8027 76.0032 32.4359 75.9822 32.039C75.9702 31.8376 76.0062 31.6452 76.0753 31.4828C76.1384 31.3204 76.2406 31.2032 76.3578 31.1791C76.475 31.149 76.5592 31.2152 76.5892 31.2783C76.6193 31.3385 76.6073 31.3836 76.6193 31.3866C76.6253 31.3926 76.6644 31.3475 76.6463 31.2573C76.6373 31.2122 76.6073 31.1611 76.5562 31.122C76.5021 31.0799 76.4239 31.0619 76.3428 31.0709C76.1715 31.0889 76.0243 31.2483 75.9491 31.4257C75.865 31.6031 75.8199 31.8195 75.8319 32.045C75.859 32.49 76.0994 32.902 76.4209 32.9831C76.5772 33.0192 76.7064 32.9681 76.7725 32.914C76.8356 32.8599 76.8477 32.8087 76.8387 32.8057Z" fill="#FF9A6C"/>
<path d="M77.3136 26.9156C77.5991 27.114 77.9026 27.3155 78.2482 27.3516C78.5938 27.3877 78.9905 27.1892 79.0506 26.8465C79.0777 26.6931 79.0416 26.5127 79.1408 26.3954C79.261 26.2541 79.4834 26.2992 79.6697 26.3203C80.3128 26.3894 81.0641 25.6829 81.2324 25.0575C81.3946 25.304 81.7553 25.3792 82.0017 25.2198C82.2511 25.0605 82.3413 24.9703 82.5366 24.7478C82.7319 24.5253 83.0054 24.3268 83.2969 24.3689C83.4592 24.393 83.6124 24.4892 83.7777 24.4772C84.0692 24.4531 84.2105 24.1134 84.2555 23.8247C84.3006 23.5361 84.3367 23.1993 84.5831 23.043C84.8115 22.8986 85.106 22.9828 85.3735 23.0249C85.6409 23.064 85.9865 23.0039 86.0556 22.7423C86.0917 22.604 86.0346 22.4597 85.9565 22.3394C85.6139 21.7952 84.8626 21.5516 84.2676 21.7922C84.0542 21.0615 83.372 20.4903 82.6147 20.4061C81.8574 20.3249 81.0701 20.7338 80.7034 21.4043C80.2377 20.9774 79.5585 20.8 78.9424 20.9383C78.3264 21.0766 77.7915 21.5306 77.551 22.1139C77.0131 21.9696 76.4001 22.177 76.0575 22.616C75.7149 23.055 75.6638 23.7014 75.9343 24.1885C75.5376 24.414 75.195 24.8079 75.186 25.2679C75.177 25.7249 75.6217 26.182 76.0635 26.0647C75.8832 26.4195 76.0274 26.9036 76.373 27.105C76.7186 27.3065 77.2085 27.1892 77.4308 26.8585" fill="#263238"/>
<path d="M84.4297 22.4416C84.4327 22.4416 84.4327 22.4567 84.4297 22.4807C84.4267 22.5078 84.4237 22.5469 84.4147 22.598C84.3936 22.7002 84.3516 22.8505 84.2524 23.0249C84.1532 23.1963 83.997 23.3917 83.7596 23.5451C83.5282 23.7014 83.2096 23.8217 82.852 23.8007L82.8911 23.7526C82.9602 23.942 82.9391 24.1675 82.846 24.3629C82.7558 24.5614 82.6146 24.7357 82.4673 24.9071C82.3922 24.9883 82.3231 25.0845 82.2179 25.1597C82.1157 25.2319 81.9925 25.2739 81.8663 25.289C81.6169 25.319 81.3344 25.2409 81.1541 25.0304L81.2382 25.0063C81.1811 25.4453 80.9287 25.8843 80.532 26.1519C80.3217 26.3022 80.0602 26.3954 79.8048 26.3864C79.5493 26.3834 79.3119 26.3083 79.0895 26.2271L79.1496 26.2C79.0294 26.4736 78.8461 26.7081 78.6237 26.8825C78.4044 27.0539 78.1159 27.1561 77.8514 27.09C77.3285 26.9787 76.9859 26.5428 76.9168 26.1339L76.9679 26.1579C76.7094 26.2992 76.43 26.3113 76.2076 26.2662C75.9822 26.2241 75.8049 26.1248 75.6787 26.0286C75.5525 25.9294 75.4773 25.8272 75.4323 25.758C75.3902 25.6859 75.3752 25.6438 75.3752 25.6438C75.3872 25.6348 75.4473 25.8121 75.6997 25.9986C75.8259 26.0888 75.9972 26.179 76.2166 26.215C76.43 26.2511 76.6944 26.2331 76.9348 26.1008L76.9769 26.0767L76.9859 26.1248C77.055 26.5067 77.3856 26.9126 77.8694 27.0118C78.1068 27.0689 78.3623 26.9788 78.5696 26.8164C78.777 26.654 78.9513 26.4285 79.0625 26.1699L79.0805 26.1279L79.1226 26.1429C79.342 26.2211 79.5704 26.2932 79.8078 26.2932C80.0452 26.2992 80.2766 26.2181 80.4779 26.0737C80.8536 25.8212 81.091 25.4092 81.1451 24.9943L81.1601 24.8891L81.2292 24.9703C81.3825 25.1507 81.6319 25.2258 81.8573 25.1988C81.9685 25.1868 82.0797 25.1477 82.1668 25.0875C82.254 25.0274 82.3231 24.9342 82.4012 24.85C82.5515 24.6816 82.6867 24.5132 82.7739 24.3298C82.864 24.1494 82.882 23.948 82.8249 23.7766L82.8069 23.7225L82.861 23.7255C83.1976 23.7495 83.5041 23.6413 83.7295 23.494C83.9609 23.3497 84.1142 23.1632 84.2193 23.0009C84.4207 22.6701 84.4147 22.4356 84.4297 22.4416Z" fill="#455A64"/>
<path d="M84.0542 34.1076C84.0392 34.0265 83.4982 34.1588 83.0024 33.7919C82.5035 33.4251 82.4224 32.8358 82.3443 32.8508C82.3082 32.8508 82.2721 33.0042 82.3262 33.2507C82.3773 33.4913 82.5396 33.819 82.8431 34.0445C83.1466 34.267 83.4922 34.3121 83.7176 34.273C83.949 34.2369 84.0662 34.1437 84.0542 34.1076Z" fill="#263238"/>
<path d="M100.721 118.229L102.854 125.503C102.854 125.503 110.962 125.773 111.488 127.081L97.5384 131.729L93.7459 120.532L100.721 118.229Z" fill="#455A64"/>
<path d="M98.3438 126.338C98.0974 126.501 98.0132 126.868 98.1665 127.12C98.3198 127.373 98.6924 127.463 98.9388 127.304C99.1883 127.144 99.3024 126.708 99.1221 126.474C98.9418 126.239 98.5001 126.158 98.2957 126.371" fill="#E0E0E0"/>
<path d="M110.704 126.558C110.704 126.558 111.416 126.621 111.491 127.081L97.5414 131.729L97.2048 130.587L110.704 126.558Z" fill="#263238"/>
<path d="M103.059 125.358C103.08 125.427 102.749 125.572 102.488 125.902C102.217 126.227 102.142 126.579 102.07 126.573C102.004 126.582 101.968 126.14 102.292 125.743C102.614 125.346 103.053 125.292 103.059 125.358Z" fill="white"/>
<path d="M104.724 125.475C104.76 125.536 104.504 125.749 104.369 126.116C104.222 126.477 104.27 126.807 104.201 126.828C104.141 126.862 103.96 126.477 104.138 126.026C104.309 125.575 104.7 125.412 104.724 125.475Z" fill="white"/>
<path d="M106.139 126.952C106.082 126.988 105.875 126.678 105.926 126.245C105.974 125.812 106.244 125.56 106.292 125.605C106.35 125.647 106.208 125.917 106.172 126.272C106.127 126.627 106.205 126.922 106.139 126.952Z" fill="white"/>
<path d="M102.389 123.756C102.38 123.828 102.037 123.837 101.661 123.993C101.283 124.14 101.024 124.369 100.97 124.321C100.913 124.285 101.123 123.936 101.568 123.759C102.013 123.578 102.404 123.689 102.389 123.756Z" fill="white"/>
<path d="M68.1659 118.295L65.1277 125.241C65.1277 125.241 71.1651 130.662 70.7263 132L57.0528 126.591L61.3412 115.574L68.1659 118.295Z" fill="#455A64"/>
<path d="M61.1338 122.974C60.8393 122.941 60.5388 123.166 60.4967 123.458C60.4516 123.75 60.68 124.056 60.9715 124.095C61.263 124.131 61.6327 123.873 61.6447 123.578C61.6567 123.284 61.3712 122.938 61.0767 122.971" fill="#E0E0E0"/>
<path d="M70.4619 131.092C70.4619 131.092 70.9667 131.597 70.7263 132L57.0528 126.591L57.5276 125.496L70.4619 131.092Z" fill="#263238"/>
<path d="M65.3772 125.259C65.3471 125.325 65.0015 125.223 64.5898 125.307C64.1751 125.382 63.8896 125.605 63.8385 125.554C63.7814 125.518 64.0399 125.157 64.5417 125.064C65.0436 124.964 65.4162 125.202 65.3772 125.259Z" fill="white"/>
<path d="M66.5761 126.42C66.5671 126.492 66.2306 126.489 65.894 126.681C65.5514 126.865 65.3711 127.147 65.308 127.117C65.2419 127.102 65.35 126.693 65.7738 126.462C66.1975 126.227 66.6002 126.353 66.5761 126.42Z" fill="white"/>
<path d="M66.7113 128.458C66.6452 128.449 66.6843 128.079 66.9998 127.779C67.3124 127.478 67.685 127.46 67.691 127.526C67.706 127.595 67.4266 127.712 67.1711 127.962C66.9127 128.203 66.7805 128.479 66.7113 128.458Z" fill="white"/>
<path d="M65.894 123.599C65.8429 123.65 65.5724 123.437 65.1848 123.314C64.8001 123.181 64.4575 123.193 64.4425 123.121C64.4215 123.058 64.8061 122.923 65.2629 123.076C65.7197 123.223 65.9481 123.56 65.894 123.599Z" fill="white"/>
<path d="M73.2838 80.1403L68.4936 99.5817C68.4936 99.5817 59.8538 114.134 58.3902 121.416L66.2938 124.525C66.2938 124.525 72.0427 110.499 73.7286 107.925C74.6572 106.509 75.6368 105.415 76.331 104.717C76.9591 104.086 77.4159 103.304 77.6413 102.444L81.2685 88.5741L73.2838 80.1403Z" fill="#0D263A"/>
<path d="M71.2433 77.0314C71.2433 77.0314 71.9104 82.236 76.917 84.5451L87.4711 101.744C87.4711 101.744 88.3005 107.336 89.8933 112.047C91.474 116.726 94.6594 125.836 94.6594 125.836L103.341 122.589L97.8088 103.665L96.9043 97.1012L88.2885 75.1672L80.8898 70.7293L71.2433 77.0314Z" fill="#0D263A"/>
<path d="M71.2433 77.0314C71.2433 77.0314 71.2943 76.9923 71.4025 76.9231C71.5137 76.851 71.673 76.7427 71.8803 76.6044C72.3071 76.3218 72.9382 75.9069 73.7556 75.3657C75.4054 74.2833 77.8125 72.6987 80.8658 70.6932L80.8898 70.6782L80.9138 70.6932C83.0716 71.9831 85.5568 73.4714 88.3186 75.1221L88.3336 75.1311L88.3396 75.1492C90.7497 81.2738 93.6918 88.7485 96.9704 97.0771L96.9734 97.0861V97.0951C97.2589 99.1698 97.5684 101.389 97.881 103.659L97.878 103.647C99.3745 108.761 100.973 114.227 102.62 119.865C102.885 120.773 103.149 121.675 103.41 122.574L103.431 122.643L103.362 122.667C100.405 123.774 97.5053 124.856 94.6805 125.911L94.6053 125.938L94.5783 125.863C93.0727 121.501 91.6242 117.3 90.2479 113.316C89.9023 112.321 89.5627 111.335 89.2802 110.349C88.9947 109.362 88.7423 108.382 88.5139 107.417C88.0571 105.481 87.6905 103.59 87.402 101.756L87.411 101.78C83.0926 94.7259 79.4984 88.8537 76.8779 84.5692L76.896 84.5842C75.4625 83.9107 74.3656 82.9877 73.5813 82.0616C72.7909 81.1355 72.2951 80.2185 71.9615 79.4608C71.6279 78.6971 71.4566 78.0837 71.3574 77.6688C71.3064 77.4613 71.2793 77.302 71.2613 77.1968C71.2463 77.0885 71.2433 77.0314 71.2433 77.0314C71.2433 77.0314 71.2553 77.0855 71.2763 77.1907C71.2973 77.296 71.3274 77.4553 71.3845 77.6598C71.4897 78.0717 71.667 78.6821 72.0066 79.4398C72.3461 80.1944 72.845 81.1025 73.6354 82.0195C74.4227 82.9335 75.5136 83.8476 76.938 84.5091L76.95 84.5151L76.9561 84.5241C79.5886 88.8026 83.1978 94.6657 87.5312 101.707L87.5372 101.719L87.5402 101.734C87.8287 103.563 88.2014 105.451 88.6581 107.384C88.8895 108.349 89.142 109.326 89.4275 110.31C89.7099 111.293 90.0495 112.273 90.3951 113.271C91.7745 117.255 93.226 121.455 94.7346 125.815L94.6354 125.767C97.4603 124.712 100.36 123.626 103.317 122.52L103.269 122.616C103.008 121.72 102.743 120.815 102.479 119.907C100.832 114.269 99.2333 108.803 97.7397 103.689L97.7367 103.683V103.677C97.4242 101.41 97.1207 99.1878 96.8352 97.1132L96.8382 97.1312C93.5716 88.7966 90.6415 81.3189 88.2404 75.1913L88.2645 75.2183C85.5087 73.5586 83.0265 72.0643 80.8718 70.7684H80.9169C77.8606 72.7528 75.4475 74.3193 73.7976 75.3927C72.9712 75.9279 72.3371 76.3368 71.9044 76.6165C71.691 76.7548 71.5287 76.857 71.4145 76.9292C71.3034 76.9983 71.2433 77.0314 71.2433 77.0314Z" fill="#455A64"/>
<path d="M75.8801 39.8775C75.8801 39.8775 73.3498 41.8259 72.1207 44.0027C70.6481 46.6065 70.4889 50.4732 70.4438 56.4745C70.4017 62.0279 71.2311 63.5674 70.9096 65.66C70.2845 69.7461 69.8157 83.4627 69.8157 83.4627C69.8157 83.4627 77.9206 80.3448 79.5043 78.9677C81.0881 77.5906 81.0881 77.5906 81.0881 77.5906L91.2425 80.9491L89.193 68.4653L87.7866 52.9056L85.9865 44.6522L85.6709 41.4139L76.971 37.8931L75.8801 39.8775Z" fill="#38A585"/>
<path d="M85.3674 41.2335C85.4726 41.2516 85.118 41.9642 84.4899 43.0105L84.4659 43.0526L84.4178 43.0346C83.5343 42.6918 82.3713 42.2618 81.0971 41.7988C79.6606 41.2756 78.3624 40.7885 77.4338 40.4097C76.968 40.2203 76.5954 40.0609 76.3399 39.9437C76.0845 39.8264 75.9463 39.7572 75.9493 39.7482C75.9523 39.7392 76.0995 39.7873 76.364 39.8865C76.6525 39.9948 77.0281 40.1361 77.4759 40.3045C78.4435 40.6593 79.7297 41.1283 81.1542 41.6515C82.4284 42.1175 83.5914 42.5595 84.4659 42.9233L84.3937 42.9474C85.0399 41.9161 85.4275 41.2396 85.3674 41.2335Z" fill="#263238"/>
<path d="M95.8584 34.7391C95.8584 34.7391 95.2153 33.7378 94.6082 32.8148C93.9982 31.8917 93.0816 31.4407 92.9374 30.9566C92.7901 30.4725 91.9817 28.3348 91.8525 27.8026C91.6722 27.0569 91.6962 26.2331 91.6962 26.2331C91.6962 26.2331 92.3604 25.9474 92.6789 26.9006C92.8712 27.4718 93.4813 29.4112 93.6135 29.5074C93.7458 29.6036 93.9291 29.4623 93.9291 29.4623C93.9291 29.4623 93.2499 27.5981 93.2198 27.2433C93.1898 26.8916 93.313 24.5614 93.313 24.5614C93.313 24.5614 93.7968 24.414 94.1124 25.0094C94.4279 25.6017 94.4399 27.1171 94.4399 27.1171L94.9178 28.7948L94.7525 27.1351L94.9929 24.0863C94.9929 24.0863 95.7502 24.1555 95.9545 24.9793C96.1559 25.8031 95.8884 26.9517 96.0267 27.1982C96.1619 27.4448 96.3092 28.9151 96.3092 28.9151C96.3092 28.9151 96.4744 25.3341 96.8561 25.2319C97.2377 25.1296 97.5533 25.5115 97.4992 26.2331C97.4451 26.9547 97.4301 28.4791 97.6284 29.1556C97.8268 29.8291 99.8612 32.451 99.693 33.6145C99.5247 34.7812 99.5066 35.7132 99.5066 35.7132H96.0086L95.8584 34.7391Z" fill="#FFBF9D"/>
<path d="M83.6336 43.7532C83.8289 43.8283 92.1562 45.8879 92.1562 45.8879C92.1562 45.8879 94.0164 42.8692 94.2869 42.0093C94.5573 41.1493 96.0179 35.3284 96.0179 35.3284L99.5369 34.9946C99.5369 34.9946 98.6474 49.9981 97.3612 50.8039C96.075 51.6127 94.0675 52.0216 93.9233 51.9765C93.779 51.9314 84.9258 52.5478 80.2498 48.8646C75.5738 45.1813 83.6336 43.7532 83.6336 43.7532Z" fill="#FFBF9D"/>
<g opacity="0.3">
<path opacity="0.3" d="M77.6652 51.6939C77.6652 51.6939 78.8612 53.2093 81.07 53.6963C83.2788 54.1834 87.9819 55.0433 87.9819 55.0433L87.7505 52.7372L77.5179 51.6428" fill="black"/>
</g>
<path d="M73.9569 48.519C74.7142 50.1186 76.3971 51.8324 80.0964 52.2142C87.42 52.9719 92.9645 53.3748 95.3596 53.014C97.7548 52.6532 98.7074 47.5809 98.9538 47.4246C99.6991 46.9525 99.651 45.3439 99.0079 44.8628C97.1808 43.4978 93.5145 42.4455 93.268 42.5687C91.8135 43.2933 92.2884 44.9891 92.2884 44.9891L83.0144 42.9416C83.0144 42.9416 81.5119 42.2801 79.6877 41.9704" fill="#455A64"/>
<path d="M79.6878 41.9672C79.6878 41.9672 79.766 41.9732 79.9162 41.9972C80.0665 42.0213 80.2889 42.0634 80.5774 42.1265C81.1544 42.2588 81.9988 42.4783 83.0296 42.8993L83.0236 42.8963C85.2414 43.3803 88.4419 44.0749 92.3035 44.9168L92.2254 45.001C92.1052 44.4838 92.1112 43.9155 92.3456 43.3984C92.4598 43.1398 92.6461 42.9143 92.8715 42.7369C92.9797 42.6407 93.1089 42.5775 93.2321 42.5024C93.2681 42.4873 93.3313 42.4813 93.3703 42.4813L93.4815 42.4934C93.5566 42.4994 93.6228 42.5174 93.6949 42.5294C94.8038 42.779 95.9127 43.1729 97.0216 43.657C97.5745 43.9035 98.1245 44.1801 98.6534 44.5169C98.7856 44.6011 98.9118 44.6943 99.0411 44.7845C99.1733 44.8867 99.2875 45.019 99.3596 45.1663C99.5129 45.461 99.573 45.7887 99.579 46.1164C99.582 46.4442 99.5189 46.7779 99.3626 47.0786C99.2755 47.2229 99.1703 47.3672 99.023 47.4634C98.987 47.4815 98.9629 47.5597 98.9329 47.6318L98.8547 47.8573C98.6564 48.4737 98.4611 49.1021 98.2176 49.7185C97.869 50.5964 97.4694 51.4624 96.8533 52.1719C96.5468 52.5207 96.1741 52.8334 95.7264 52.9868C95.504 53.0709 95.2696 53.092 95.0472 53.1161C94.8218 53.1491 94.5994 53.1521 94.377 53.1732C93.4845 53.2243 92.61 53.2123 91.7535 53.1882C90.8971 53.1642 90.0586 53.1221 89.2442 53.0709C85.9806 52.8605 83.0506 52.5628 80.5894 52.3072C79.9763 52.2501 79.3873 52.1689 78.8404 52.0547C78.2965 51.9254 77.7856 51.7901 77.3288 51.5977C76.4092 51.2339 75.7 50.7347 75.1981 50.2567C74.6963 49.7726 74.3958 49.3186 74.2124 49.0029C74.0291 48.6872 73.963 48.5068 73.963 48.5068C73.972 48.5008 74.0472 48.6782 74.2395 48.9878C74.4288 49.2945 74.7383 49.7395 75.2402 50.2116C75.7421 50.6776 76.4483 51.1647 77.3618 51.5165C77.8126 51.7029 78.3205 51.8352 78.8614 51.9585C79.4054 52.0667 79.9853 52.1419 80.6014 52.196C83.0626 52.4365 85.9927 52.7252 89.2533 52.9266C90.0677 52.9747 90.9031 53.0168 91.7596 53.0409C92.613 53.0619 93.4875 53.074 94.371 53.0198C94.5904 52.9988 94.8128 52.9928 95.0352 52.9627C95.2576 52.9356 95.4799 52.9176 95.6813 52.8394C96.093 52.6981 96.4476 52.4065 96.7421 52.0667C97.3341 51.3812 97.7338 50.5273 98.0794 49.6583C98.3198 49.045 98.5122 48.4226 98.7135 47.8032L98.7946 47.5717C98.8097 47.5326 98.8247 47.4935 98.8427 47.4544C98.8547 47.4334 98.8607 47.4153 98.8818 47.3883C98.8938 47.3732 98.9088 47.3582 98.9209 47.3462L98.9419 47.3281C99.0651 47.247 99.1552 47.1237 99.2334 46.9974C99.3746 46.7298 99.4347 46.4171 99.4317 46.1104C99.4257 45.8037 99.3686 45.4941 99.2304 45.2325C99.1613 45.1002 99.0681 44.9889 98.9539 44.9017C98.8277 44.8145 98.7015 44.7243 98.5753 44.6401C98.0584 44.3094 97.5144 44.0328 96.9645 43.7892C95.8676 43.3082 94.7587 42.9113 93.6708 42.6647C93.6047 42.6527 93.5356 42.6347 93.4695 42.6287L93.3703 42.6166C93.3403 42.6196 93.3313 42.6166 93.3012 42.6226C93.187 42.6918 93.0638 42.7519 92.9646 42.8391C92.7573 43.0015 92.583 43.209 92.4778 43.4465C92.2614 43.9215 92.2494 44.4718 92.3606 44.9559L92.3846 45.0611L92.2825 45.037C88.4268 44.1741 85.2293 43.4555 83.0145 42.9594H83.0115L83.0085 42.9564C81.9898 42.5264 81.1483 42.2949 80.5774 42.1506C80.2919 42.0784 80.0695 42.0333 79.9192 42.0003C79.763 41.9882 79.6878 41.9672 79.6878 41.9672Z" fill="#263238"/>
<path d="M95.3595 47.8904C95.3505 47.9084 95.1161 47.8242 94.7615 47.6288C94.4069 47.4334 93.9411 47.1147 93.4963 46.6847C93.0516 46.2517 92.718 45.7977 92.5107 45.452C92.3033 45.1062 92.2101 44.8717 92.2282 44.8626C92.2732 44.8356 92.73 45.7286 93.6075 46.5735C94.47 47.4244 95.3836 47.8453 95.3595 47.8904Z" fill="#263238"/>
<path d="M29.9796 72.6506C29.9796 72.6506 31.8398 72.7528 32.9968 73.4744C34.1507 74.1991 36.0049 75.3206 36.7682 76.7127C37.1198 77.3531 36.1191 77.4884 35.6233 77.1156C35.1304 76.7427 34.3731 76.0452 33.9975 75.958C33.6218 75.8708 33.6218 75.8708 33.6218 75.8708C33.6218 75.8708 34.3761 77.5515 34.7668 78.1409C35.1575 78.7302 35.494 79.7404 34.328 79.7885C34.328 79.7885 33.5407 80.8108 32.7473 80.0531C32.7473 80.0531 32.1283 80.9792 31.1306 79.6953C31.1306 79.6953 30.5506 80.432 30.3071 80.1493C30.0637 79.8697 29.2704 79.4217 29.039 78.5017C28.8076 77.5816 27.8339 75.3476 27.8339 75.3476L29.9796 72.6506Z" fill="#FFBF9D"/>
<path d="M14.1244 48.1309C14.1244 48.1309 12.6699 48.5248 11.7833 49.8898C11.0681 50.9903 10.8487 52.9116 11.0531 54.3157C11.4858 57.3044 12.8592 62.3557 13.6285 65.5969C13.893 66.7154 14.4399 68.7178 16.0417 69.7792L27.4252 76.6104L30.4694 72.0884L20.0896 63.6245L18.0371 52.0246L14.1244 48.1309Z" fill="#455A64"/>
<path d="M12.1559 59.5384C12.1589 59.5384 12.171 59.5775 12.192 59.6556C12.216 59.7428 12.2461 59.8571 12.2852 60.0074C12.3663 60.3261 12.4835 60.7831 12.6338 61.3695C12.9313 62.5631 13.361 64.2769 13.8929 66.4057C14.1634 67.458 14.7885 68.5405 15.7681 69.3763C16.249 69.8063 16.841 70.119 17.433 70.4828C18.025 70.8406 18.6381 71.2104 19.2631 71.5862C21.7724 73.1016 24.5402 74.7764 27.4642 76.5413L27.359 76.5653C27.7076 76.0482 28.0803 75.495 28.4529 74.9387C29.1141 73.9555 29.7662 72.9874 30.4033 72.0463L30.4183 72.1485C26.5086 68.9283 22.9625 66.0088 20.1286 63.6726L20.1136 63.6606L20.1076 63.6425C19.4284 60.7801 18.9356 58.4409 18.626 56.8113C18.4698 55.9965 18.3616 55.3621 18.2925 54.9291C18.2624 54.7186 18.2384 54.5533 18.2204 54.436C18.2053 54.3247 18.2023 54.2676 18.2023 54.2676C18.2023 54.2676 18.2173 54.3247 18.2384 54.433C18.2594 54.5502 18.2895 54.7126 18.3285 54.9231C18.4097 55.353 18.5269 55.9875 18.6922 56.7993C19.0227 58.4229 19.5336 60.7591 20.2248 63.6155L20.2038 63.5824C23.0436 65.9096 26.5987 68.8201 30.5145 72.0312L30.5685 72.0763L30.5295 72.1365C29.8954 73.0776 29.2433 74.0457 28.5821 75.0319C28.2065 75.5882 27.8339 76.1414 27.4853 76.6586L27.4432 76.7217L27.3801 76.6826C24.4591 74.9117 21.6913 73.2339 19.185 71.7125C18.5599 71.3337 17.9499 70.9608 17.3579 70.6031C16.7719 70.2392 16.1708 69.9175 15.681 69.4755C14.6863 68.6186 14.0552 67.5092 13.7847 66.4358C13.2739 64.304 12.8592 62.5812 12.5737 61.3875C12.4354 60.7982 12.3272 60.3382 12.2521 60.0194C12.2191 59.8691 12.192 59.7518 12.174 59.6647C12.162 59.5805 12.1529 59.5414 12.1559 59.5384Z" fill="#263238"/>
<path d="M12.3423 49.7425C12.3393 49.7335 12.4204 49.6944 12.5737 49.6463C12.727 49.5952 12.9524 49.5381 13.2409 49.496C13.8058 49.4178 14.6473 49.4058 15.4617 49.7966C16.261 50.2056 16.808 50.8249 17.1205 51.309C17.2768 51.5526 17.376 51.769 17.424 51.9224C17.4751 52.0757 17.4841 52.1659 17.4781 52.1689C17.4511 52.178 17.3609 51.8292 17.0304 51.3722C16.7058 50.9181 16.1559 50.3258 15.3925 49.938C14.6202 49.5681 13.8088 49.5591 13.2529 49.6072C12.6879 49.6583 12.3513 49.7666 12.3423 49.7425Z" fill="#263238"/>
</svg>
